<svg width="72" height="72" viewBox="0 0 72 72" fill="none" xmlns="http://www.w3.org/2000/svg">
<g filter="url(#filter0_d_5236_74649)">
<rect x="7" y="7" width="58" height="58" rx="29" fill="#FEB853"/>
<path d="M31.7606 46.6691L31.7608 46.6692C32.1952 46.9196 32.5135 47.2561 32.7991 47.6442C33.066 48.0067 33.3418 48.4683 33.6623 49.0046L33.6846 49.0418L34.5604 50.5072C34.5604 50.5073 34.5604 50.5073 34.5604 50.5073C34.9531 51.1641 35.9626 51.1641 36.3553 50.5073L31.7606 46.6691ZM31.7606 46.6691C31.3232 46.4172 30.8642 46.3112 30.3778 46.2579C29.9199 46.2077 29.3655 46.1983 28.7158 46.1873L28.6722 46.1866C28.6721 46.1866 28.6721 46.1865 28.6721 46.1865C26.6435 46.1518 25.5427 46.0249 24.6673 45.6659C22.9313 44.9537 21.5551 43.5893 20.8383 41.8756L20.8383 41.8755C20.5907 41.2836 20.4486 40.5727 20.3753 39.5085C20.3013 38.4352 20.3008 37.0776 20.3008 35.2V33.6C20.3008 30.9617 20.3019 29.0539 20.445 27.5629C20.5867 26.0873 20.8604 25.1239 21.3416 24.3462L20.4972 23.8237L21.3416 24.3462C21.9243 23.4046 22.7244 22.6119 23.6771 22.0338L23.1583 21.1789L23.6771 22.0338C24.4656 21.5553 25.4424 21.2835 26.9352 21.143C28.4425 21.001 30.3707 21 33.0343 21H37.8814C40.545 21 42.4732 21.001 43.9805 21.143C45.4733 21.2835 46.4501 21.5553 47.2387 22.0338C48.1914 22.6119 48.9914 23.4046 49.5741 24.3462C50.0554 25.1239 50.329 26.0873 50.4707 27.5629C50.6139 29.0539 50.6149 30.9617 50.6149 33.6V35.2C50.6149 37.0776 50.6144 38.4352 50.5404 39.5085C50.4671 40.5727 50.3251 41.2836 50.0775 41.8755L50.0775 41.8756C49.3606 43.5893 47.9845 44.9537 46.2484 45.6659C45.3731 46.0249 44.2722 46.1518 42.2436 46.1865C42.2436 46.1865 42.2436 46.1866 42.2435 46.1866L42.1999 46.1873C41.5502 46.1983 40.9958 46.2077 40.5378 46.2579C40.0515 46.3112 39.5925 46.4172 39.1551 46.6691C38.7205 46.9194 38.4022 47.256 38.1166 47.6441C37.8496 48.0068 37.5737 48.4687 37.2531 49.0051L37.2312 49.0418L37.2311 49.0419L36.3553 50.5072L31.7606 46.6691Z" fill="#FEB853" stroke="white" stroke-width="2"/>
<path d="M27.7832 31.2C27.7832 30.5373 28.3257 30 28.995 30H41.9207C42.5899 30 43.1324 30.5373 43.1324 31.2C43.1324 31.8627 42.5899 32.4 41.9207 32.4H28.995C28.3257 32.4 27.7832 31.8627 27.7832 31.2Z" fill="white"/>
<path d="M27.7832 36.8016C27.7832 36.1388 28.3257 35.6016 28.995 35.6016H37.8814C38.5506 35.6016 39.0932 36.1388 39.0932 36.8016C39.0932 37.4643 38.5506 38.0016 37.8814 38.0016H28.995C28.3257 38.0016 27.7832 37.4643 27.7832 36.8016Z" fill="white"/>
</g>
<defs>
<filter id="filter0_d_5236_74649" x="0" y="0" width="72" height="72" filterUnits="userSpaceOnUse" color-interpolation-filters="sRGB">
<feFlood flood-opacity="0" result="BackgroundImageFix"/>
<feColorMatrix in="SourceAlpha" type="matrix" values="0 0 0 0 0 0 0 0 0 0 0 0 0 0 0 0 0 0 127 0" result="hardAlpha"/>
<feOffset/>
<feGaussianBlur stdDeviation="3.5"/>
<feComposite in2="hardAlpha" operator="out"/>
<feColorMatrix type="matrix" values="0 0 0 0 0 0 0 0 0 0 0 0 0 0 0 0 0 0 0.15 0"/>
<feBlend mode="normal" in2="BackgroundImageFix" result="effect1_dropShadow_5236_74649"/>
<feBlend mode="normal" in="SourceGraphic" in2="effect1_dropShadow_5236_74649" result="shape"/>
</filter>
</defs>
</svg>
