<svg width="39" height="39" viewBox="0 0 39 39" fill="none" xmlns="http://www.w3.org/2000/svg">
<g clip-path="url(#clip0_5245_13521)">
<path d="M9.08537 0.966835C9.16991 0.966504 9.25446 0.966173 9.34157 0.965832C9.43411 0.965846 9.52665 0.965859 9.62199 0.965874C9.72157 0.965629 9.82116 0.965352 9.92074 0.965047C10.1943 0.964304 10.4679 0.964027 10.7415 0.96383C11.0366 0.96354 11.3317 0.962829 11.6268 0.962182C12.3397 0.960716 13.0525 0.959968 13.7653 0.959307C14.1013 0.958982 14.4373 0.958583 14.7733 0.958195C15.8909 0.956932 17.0084 0.955857 18.126 0.955319C18.4159 0.955177 18.7059 0.955035 18.9958 0.954889C19.1039 0.954836 19.1039 0.954836 19.2142 0.954781C20.3803 0.954165 21.5465 0.952286 22.7126 0.949874C23.9109 0.947415 25.1093 0.946082 26.3076 0.945845C26.98 0.945685 27.6523 0.945041 28.3247 0.943139C28.8976 0.941523 29.4705 0.940933 30.0434 0.941652C30.3353 0.941988 30.6272 0.941858 30.9191 0.940408C33.7802 0.927005 33.7802 0.927005 34.8632 1.71898C34.9803 1.80164 34.9803 1.80164 35.0998 1.88598C35.7966 2.56728 36.2001 3.41375 36.2133 4.38925C36.2137 4.47299 36.2137 4.47299 36.2142 4.55843C36.2146 4.61668 36.2151 4.67493 36.2155 4.73495C36.2162 4.85759 36.2167 4.98022 36.217 5.10286C36.2177 5.29066 36.22 5.47841 36.2223 5.6662C36.2228 5.78555 36.2232 5.9049 36.2235 6.02425C36.2244 6.08038 36.2253 6.13651 36.2263 6.19434C36.2246 6.58206 36.2246 6.58206 36.0956 6.76118C35.8302 6.93698 35.6024 6.9243 35.2934 6.92272C35.2375 6.92273 35.1816 6.92274 35.1239 6.92275C34.9425 6.92269 34.7611 6.92213 34.5797 6.92154C34.4678 6.92143 34.356 6.92136 34.2441 6.92132C33.8289 6.92093 33.4137 6.91989 32.9985 6.91893C32.0708 6.9174 31.1432 6.91587 30.1874 6.9143C30.1874 9.68191 30.1874 12.4495 30.1874 15.301C30.4324 15.301 30.6773 15.301 30.9296 15.301C31.2265 15.4495 31.2265 15.4495 31.299 15.595C31.431 16.0865 31.524 16.5787 31.5976 17.0823C31.6633 17.0912 31.729 17.1001 31.7968 17.1092C32.0915 17.1658 32.3323 17.278 32.6021 17.4055C32.8455 17.4692 32.9361 17.4232 33.1562 17.3049C33.3793 17.1508 33.5969 16.9906 33.8143 16.8286C34.1127 16.6779 34.2444 16.7057 34.5663 16.7854C34.7808 16.9434 34.7808 16.9434 34.9879 17.1504C35.0433 17.2055 35.0433 17.2055 35.0999 17.2617C35.1774 17.3392 35.2544 17.4173 35.3308 17.4958C35.4475 17.6155 35.5663 17.7329 35.6854 17.8501C35.7607 17.926 35.8359 18.002 35.911 18.0781C35.9788 18.1468 36.0466 18.2155 36.1165 18.2863C36.2917 18.5165 36.3402 18.6502 36.3476 18.9377C36.2923 19.0834 36.2923 19.0834 36.2035 19.2091C36.1725 19.2559 36.1414 19.3027 36.1094 19.3509C36.0424 19.4467 35.9751 19.5423 35.9076 19.6379C35.7056 19.9342 35.7056 19.9342 35.7234 20.2844C35.7579 20.3543 35.7925 20.4243 35.8281 20.4963C35.8674 20.5943 35.8674 20.5943 35.9075 20.6943C35.9599 20.8196 36.0125 20.9449 36.0652 21.0701C36.1249 21.2385 36.1249 21.2385 36.1249 21.4612C36.2045 21.4688 36.2841 21.4765 36.3661 21.4844C36.6432 21.5201 36.9145 21.5718 37.1872 21.6328C37.2993 21.6576 37.2993 21.6576 37.4136 21.683C37.6522 21.7745 37.7077 21.8328 37.832 22.0549C37.8537 22.2564 37.8632 22.4404 37.8615 22.6417C37.8617 22.6982 37.862 22.7548 37.8622 22.813C37.8623 22.9323 37.8619 23.0516 37.861 23.1708C37.8598 23.3531 37.861 23.5353 37.8624 23.7176C37.8623 23.8337 37.862 23.9497 37.8615 24.0658C37.862 24.1201 37.8624 24.1745 37.8629 24.2305C37.8598 24.4592 37.845 24.6277 37.7381 24.832C37.5895 24.9675 37.4968 25.0028 37.3005 25.0408C37.2417 25.0529 37.1828 25.065 37.1221 25.0774C37.0609 25.0888 36.9997 25.1001 36.9367 25.1118C36.8152 25.1359 36.6937 25.1602 36.5723 25.1846C36.5185 25.1947 36.4647 25.2049 36.4093 25.2154C36.2672 25.2421 36.2672 25.2421 36.1249 25.3205C36.0369 25.4992 35.9586 25.6746 35.8837 25.8586C35.8619 25.9083 35.8401 25.9579 35.8176 26.0091C35.7262 26.2327 35.6697 26.3885 35.7219 26.6278C35.8974 26.9206 36.0969 27.1941 36.2971 27.4703C36.4445 27.7365 36.4868 27.8426 36.4218 28.1409C36.2701 28.3598 36.0882 28.5445 35.9023 28.7346C35.8519 28.7892 35.8014 28.8439 35.7495 28.9001C35.5925 29.07 35.4324 29.2364 35.2714 29.4026C35.2179 29.4601 35.1645 29.5176 35.1094 29.5768C34.8669 29.8254 34.717 29.9785 34.3738 30.0584C34.0928 29.9894 33.9539 29.8919 33.7359 29.7097C33.3413 29.3689 33.3413 29.3689 32.8516 29.2615C32.5041 29.3505 32.2032 29.5209 31.8945 29.6994C31.821 29.7239 31.7475 29.7484 31.6718 29.7737C31.6181 29.9036 31.6181 29.9036 31.5956 30.0627C31.5842 30.1214 31.5729 30.1801 31.5612 30.2406C31.5392 30.3644 31.5174 30.4883 31.4957 30.6123C31.4842 30.6712 31.4728 30.7302 31.461 30.791C31.4516 30.8449 31.4421 30.8989 31.4324 30.9544C31.353 31.169 31.2607 31.2688 31.0781 31.4065C30.8542 31.4355 30.8542 31.4355 30.6142 31.425C30.5342 31.4224 30.4542 31.4197 30.3718 31.4169C30.311 31.4135 30.2501 31.41 30.1874 31.4065C30.1883 31.4469 30.1891 31.4874 30.1899 31.5291C30.1982 31.9554 30.2038 32.3817 30.2078 32.808C30.2097 32.9665 30.2122 33.125 30.2154 33.2835C30.2392 34.4778 30.2128 35.4952 29.3826 36.44C28.4856 37.3467 27.4094 37.6542 26.1562 37.6611C26.029 37.6606 26.029 37.6606 25.8993 37.6602C25.7611 37.6606 25.7611 37.6606 25.6201 37.6611C25.3666 37.6617 25.113 37.6617 24.8595 37.6613C24.5852 37.6612 24.3108 37.6618 24.0365 37.6624C23.5 37.6633 22.9634 37.6635 22.4269 37.6633C21.9905 37.6632 21.5542 37.6633 21.1178 37.6636C21.0245 37.6637 21.0245 37.6637 20.9293 37.6637C20.8028 37.6638 20.6764 37.6639 20.5499 37.664C19.3656 37.6648 18.1813 37.6647 16.997 37.6642C15.9149 37.6638 14.8329 37.6647 13.7508 37.6661C12.6381 37.6675 11.5254 37.6681 10.4127 37.6678C9.78869 37.6677 9.16466 37.6679 8.54063 37.6689C8.00941 37.6698 7.47819 37.6699 6.94696 37.669C6.67627 37.6686 6.40559 37.6685 6.1349 37.6694C5.84065 37.6704 5.54643 37.6696 5.25218 37.6686C5.16776 37.6692 5.08334 37.6697 4.99636 37.6703C3.94571 37.6633 2.96669 37.4286 2.18377 36.6946C1.41474 35.8672 1.15832 34.9287 1.15282 33.825C1.1524 33.7588 1.15198 33.6926 1.15154 33.6243C1.15084 33.485 1.15036 33.3456 1.15007 33.2063C1.14935 32.9931 1.14704 32.7799 1.14471 32.5667C1.14422 32.431 1.14383 32.2954 1.14355 32.1597C1.14217 32.0642 1.14217 32.0642 1.14077 31.9669C1.1411 31.8777 1.1411 31.8777 1.14144 31.7867C1.14117 31.7346 1.1409 31.6826 1.14062 31.6289C1.17794 31.4261 1.24794 31.3326 1.39056 31.1838C1.57794 31.1481 1.57794 31.1481 1.80418 31.1501C1.88886 31.1501 1.97354 31.1502 2.06078 31.1502C2.15217 31.1517 2.24356 31.1533 2.33771 31.1548C2.4313 31.1553 2.52488 31.1557 2.6213 31.1561C2.86988 31.1575 3.11838 31.1602 3.36693 31.1634C3.62064 31.1665 3.87437 31.1678 4.1281 31.1693C4.62576 31.1726 5.12339 31.1776 5.62103 31.1838C5.62091 31.1266 5.6208 31.0693 5.62068 31.0103C5.61404 27.6146 5.60894 24.2188 5.60587 20.8231C5.60549 20.4152 5.60511 20.0073 5.60472 19.5994C5.60464 19.5182 5.60456 19.437 5.60448 19.3533C5.60319 18.0392 5.60085 16.725 5.59812 15.4109C5.59534 14.062 5.59369 12.7132 5.59309 11.3643C5.59269 10.5323 5.5914 9.70027 5.58899 8.86824C5.58742 8.29736 5.58694 7.72648 5.58733 7.1556C5.58752 6.82644 5.58723 6.49729 5.58564 6.16813C5.58418 5.86625 5.58412 5.56441 5.58513 5.26253C5.58526 5.15383 5.58489 5.04513 5.58395 4.93643C5.57484 3.81447 5.82548 2.79962 6.60442 1.96019C7.28309 1.32638 8.15839 0.968522 9.08537 0.966835ZM7.17962 2.75805C6.79853 3.27297 6.56716 3.77836 6.5676 4.42573C6.56731 4.5215 6.56701 4.61727 6.56671 4.71594C6.56713 4.82168 6.56757 4.92742 6.56802 5.03317C6.56795 5.1459 6.56782 5.25864 6.56763 5.37138C6.5673 5.68093 6.5679 5.99048 6.56864 6.30004C6.56928 6.63394 6.56906 6.96784 6.56895 7.30175C6.56887 7.88018 6.56934 8.45861 6.57017 9.03705C6.57138 9.87337 6.57177 10.7097 6.57195 11.546C6.57228 12.9029 6.57327 14.2597 6.57467 15.6166C6.57603 16.9347 6.57708 18.2528 6.57771 19.5708C6.57775 19.6521 6.57779 19.7333 6.57783 19.817C6.57803 20.2246 6.57821 20.6322 6.5784 21.0398C6.57994 24.4211 6.58255 27.8025 6.58587 31.1838C6.7205 31.1841 6.7205 31.1841 6.85784 31.1844C8.98659 31.1886 11.1153 31.194 13.2441 31.2008C13.5059 31.2017 13.7677 31.2025 14.0295 31.2033C14.1077 31.2035 14.1077 31.2035 14.1874 31.2038C15.0323 31.2064 15.8771 31.2083 16.7219 31.2098C17.5883 31.2114 18.4546 31.2139 19.321 31.2171C19.8078 31.2189 20.2947 31.2203 20.7815 31.2208C21.2392 31.2212 21.697 31.2227 22.1547 31.225C22.3231 31.2256 22.4916 31.2259 22.66 31.2258C22.8891 31.2256 23.1182 31.2269 23.3473 31.2285C23.4147 31.2281 23.4821 31.2277 23.5516 31.2274C23.7366 31.2295 23.7366 31.2295 24.0273 31.258C24.1776 31.4835 24.1942 31.5265 24.1947 31.7792C24.1952 31.8389 24.1957 31.8987 24.1962 31.9602C24.1962 32.0247 24.1961 32.0892 24.196 32.1556C24.1975 32.2932 24.1991 32.4309 24.2006 32.5685C24.2023 32.7846 24.2035 33.0006 24.204 33.2167C24.2077 34.311 24.232 35.1666 25.0281 35.9956C25.701 36.5755 26.4366 36.6632 27.2929 36.6018C27.9373 36.4514 28.4868 36.0826 28.8747 35.5488C29.3799 34.6961 29.3242 33.7979 29.3107 32.8398C29.3096 32.7005 29.3086 32.5612 29.3077 32.4219C29.3052 32.0834 29.3014 31.745 29.2968 31.4065C29.2351 31.4037 29.1734 31.4009 29.1098 31.3981C28.9888 31.3908 28.9888 31.3908 28.8654 31.3833C28.7853 31.379 28.7053 31.3747 28.6227 31.3702C28.4062 31.3323 28.4062 31.3323 28.2691 31.2374C28.1654 31.0826 28.15 30.9802 28.136 30.795C28.0884 30.1361 28.0884 30.1361 27.7679 29.5911C27.4565 29.4112 27.1225 29.3296 26.7734 29.2541C26.6999 29.2296 26.6264 29.2052 26.5507 29.1799C26.3141 29.3285 26.0915 29.4874 25.868 29.6547C25.5434 29.8855 25.33 29.9823 24.9179 29.9221C24.7718 29.8456 24.7718 29.8456 24.6581 29.7366C24.5936 29.6753 24.5936 29.6753 24.5277 29.6128C24.3519 29.4279 24.1844 29.2373 24.0203 29.0419C23.8119 28.8078 23.5792 28.6002 23.346 28.3911C23.1604 28.1493 23.1288 28.0002 23.1367 27.6955C23.2185 27.556 23.3143 27.4434 23.4208 27.3218C23.658 27.0493 23.8748 26.7786 23.8825 26.4055C23.8162 25.9742 23.6577 25.5694 23.3593 25.2463C22.9977 25.0189 22.5885 24.9863 22.1718 24.9494C22.0249 24.925 21.8779 24.9005 21.7265 24.8752C21.7265 23.8955 21.7265 22.9159 21.7265 21.9065C22.1926 21.7511 22.4418 21.6753 22.8908 21.6328C23.1318 21.5817 23.2977 21.5456 23.447 21.341C23.6471 20.9566 23.815 20.515 23.7962 20.078C23.6775 19.7615 23.4626 19.5078 23.2639 19.2372C23.1156 18.9747 23.0972 18.8636 23.1367 18.5666C23.2572 18.4018 23.3665 18.2742 23.5106 18.1335C23.5491 18.0946 23.5876 18.0557 23.6273 18.0156C23.7087 17.9339 23.7907 17.8527 23.8732 17.772C23.9991 17.6486 24.1224 17.5229 24.2456 17.3968C24.3252 17.3175 24.4049 17.2384 24.4848 17.1594C24.5214 17.1218 24.5581 17.0842 24.5959 17.0455C24.7811 16.8676 24.8949 16.7887 25.1517 16.7515C25.3644 16.7856 25.4559 16.8173 25.6183 16.953C25.6618 16.9871 25.7052 17.0213 25.75 17.0565C25.8388 17.1296 25.9273 17.203 26.0155 17.2768C26.1618 17.396 26.1618 17.396 26.4023 17.5276C26.6322 17.4905 26.6322 17.4905 26.8476 17.3791C26.9273 17.3648 27.007 17.3504 27.0891 17.3357C27.3866 17.2647 27.5703 17.1985 27.8124 17.008C28.0113 16.5919 28.0762 16.1243 28.1395 15.6709C28.1835 15.5237 28.1835 15.5237 28.4062 15.3752C28.6227 15.3445 28.6227 15.3445 28.8654 15.3288C28.9864 15.3205 28.9864 15.3205 29.1098 15.312C29.2024 15.3066 29.2024 15.3066 29.2968 15.301C29.297 15.2133 29.297 15.2133 29.2971 15.1238C29.2999 13.6983 29.3043 12.2729 29.3105 10.8474C29.3134 10.158 29.3158 9.46867 29.3169 8.7793C29.3179 8.17814 29.3199 7.57699 29.3231 6.97584C29.3248 6.6578 29.326 6.33979 29.3259 6.02175C29.3258 5.72178 29.3272 5.42184 29.3295 5.12188C29.3302 5.01238 29.3303 4.90289 29.3299 4.7934C29.3269 3.88463 29.4668 3.12779 30.0117 2.38231C30.1119 2.24031 30.1857 2.0976 30.2617 1.94164C27.5134 1.93484 24.7652 1.92961 22.0169 1.92648C21.6924 1.92611 21.3678 1.92572 21.0432 1.92533C20.9786 1.92525 20.914 1.92518 20.8474 1.9251C19.8016 1.9238 18.7559 1.92146 17.7101 1.91874C16.6368 1.91596 15.5634 1.91431 14.4901 1.91371C13.8279 1.9133 13.1658 1.91202 12.5037 1.9096C12.0495 1.90803 11.5952 1.90756 11.1409 1.90794C10.879 1.90813 10.6171 1.90785 10.3551 1.90625C10.0707 1.90453 9.78624 1.90513 9.50177 1.90594C9.41961 1.90507 9.33745 1.90421 9.2528 1.90332C8.43846 1.90957 7.75786 2.17538 7.17962 2.75805ZM30.6884 3.00853C30.0692 3.93735 30.1874 4.8052 30.1874 5.94945C31.8529 5.94945 33.5184 5.94945 35.2343 5.94945C35.322 4.05997 35.322 4.05997 34.4562 2.62468C33.8698 2.11113 33.2383 1.98017 32.4784 1.99556C31.6938 2.05103 31.2109 2.45698 30.6884 3.00853ZM28.9257 16.2659C28.8343 16.6432 28.8343 16.6432 28.7437 17.0207C28.6014 17.5989 28.6014 17.5989 28.4804 17.7502C28.3031 17.8237 28.1397 17.8799 27.9562 17.9311C27.5523 18.0529 27.2038 18.1889 26.8496 18.4243C26.6318 18.5229 26.4915 18.5236 26.2538 18.4924C26.0698 18.3868 25.9114 18.2848 25.7436 18.1584C25.6996 18.1266 25.6556 18.0947 25.6102 18.0619C25.5025 17.9837 25.3956 17.9042 25.289 17.8245C24.9866 17.944 24.7869 18.1613 24.5654 18.3904C24.5278 18.4286 24.4902 18.4669 24.4514 18.5063C24.3592 18.6003 24.2674 18.6948 24.1757 18.7893C24.3006 19.1293 24.4781 19.4091 24.6773 19.7098C24.8083 19.9837 24.8209 20.1945 24.7235 20.4849C24.6611 20.6364 24.5937 20.7843 24.5236 20.9324C24.4774 21.0326 24.4313 21.1329 24.3853 21.2333C24.3624 21.2826 24.3396 21.3319 24.316 21.3828C24.2479 21.5402 24.1926 21.6992 24.1374 21.8615C24.0273 22.1291 24.0273 22.1291 23.7721 22.2637C23.6601 22.2959 23.547 22.3249 23.4335 22.3518C23.3554 22.3723 23.2772 22.3927 23.1967 22.4138C22.9793 22.4698 22.7612 22.5224 22.5429 22.5744C22.5429 23.0888 22.5429 23.6031 22.5429 24.133C23.0572 24.231 23.5716 24.329 24.1015 24.4299C24.1306 24.5463 24.1597 24.6626 24.1896 24.7825C24.3388 25.3309 24.527 25.8846 24.8437 26.3596C24.8953 26.7103 24.8108 26.9013 24.6062 27.187C24.5585 27.2505 24.5585 27.2505 24.5097 27.3152C24.4778 27.3592 24.446 27.4032 24.4132 27.4485C24.3349 27.5563 24.2555 27.6631 24.1757 27.7698C24.296 28.0662 24.5018 28.2741 24.7231 28.498C24.7589 28.5363 24.7946 28.5745 24.8315 28.6139C25.0242 28.8198 25.0242 28.8198 25.2855 28.8891C25.5476 28.7506 25.7919 28.5856 26.0347 28.416C26.239 28.2822 26.3728 28.2146 26.6191 28.2183C26.9017 28.3061 27.1643 28.4192 27.4321 28.5444C27.8274 28.7292 28.202 28.8623 28.6288 28.9573C28.6374 28.9996 28.646 29.0419 28.6549 29.0855C28.6939 29.2763 28.7332 29.467 28.7726 29.6577C28.7929 29.7577 28.7929 29.7577 28.8137 29.8596C28.8268 29.923 28.84 29.9864 28.8535 30.0517C28.8656 30.1104 28.8776 30.1691 28.89 30.2295C28.9133 30.3676 28.9133 30.3676 28.9999 30.4416C29.1158 30.4481 29.232 30.4496 29.3481 30.4489C29.4182 30.4486 29.4883 30.4484 29.5605 30.4482C29.6342 30.4475 29.7079 30.4469 29.7839 30.4463C29.8579 30.4459 29.9319 30.4456 30.0081 30.4453C30.1916 30.4444 30.3751 30.4432 30.5585 30.4416C30.5757 30.3478 30.5928 30.2539 30.6104 30.1572C30.6348 30.034 30.6592 29.9108 30.6838 29.7876C30.6948 29.7257 30.7059 29.6639 30.7173 29.6002C30.8107 29.1439 30.8107 29.1439 31.0253 28.9604C31.2318 28.881 31.4367 28.8078 31.6486 28.7439C32.0229 28.6254 32.3523 28.4746 32.692 28.2786C32.9137 28.1944 33.0058 28.2118 33.2304 28.2893C33.4183 28.3922 33.5955 28.5084 33.7731 28.6279C33.845 28.6752 33.845 28.6752 33.9182 28.7234C34.0357 28.8009 34.1526 28.879 34.2695 28.9573C34.6621 28.6301 35.0256 28.2837 35.3827 27.9182C35.3478 27.8636 35.3129 27.8089 35.2769 27.7527C35.2307 27.6802 35.1845 27.6078 35.1369 27.5332C35.0913 27.4617 35.0456 27.3903 34.9986 27.3166C34.9539 27.2457 34.9092 27.1748 34.8632 27.1018C34.8208 27.0364 34.7784 26.9711 34.7348 26.9038C34.6274 26.7065 34.6238 26.5839 34.6669 26.3648C34.7486 26.1026 34.8684 25.8592 34.9867 25.6119C35.1162 25.3284 35.2168 25.0379 35.3164 24.7427C35.3827 24.5784 35.3827 24.5784 35.5312 24.4299C35.6707 24.3858 35.6707 24.3858 35.8379 24.3505C35.8918 24.3388 35.9457 24.3271 36.0012 24.3151C36.0696 24.3009 36.138 24.2868 36.2084 24.2722C36.4258 24.2263 36.6432 24.1804 36.8671 24.133C36.8671 23.6187 36.8671 23.1044 36.8671 22.5744C36.4898 22.483 36.4898 22.483 36.1122 22.3924C36.0648 22.3807 36.0173 22.369 35.9684 22.357C35.9202 22.3454 35.872 22.3337 35.8223 22.3217C35.4189 22.197 35.4189 22.197 35.3129 21.9979C35.2977 21.946 35.2824 21.8941 35.2668 21.8407C35.249 21.7832 35.2312 21.7258 35.2129 21.6666C35.1954 21.6064 35.178 21.5463 35.1601 21.4844C35.011 20.9805 35.011 20.9805 34.7751 20.5134C34.5848 20.1742 34.5848 20.1742 34.6406 19.9026C34.7628 19.6882 34.8942 19.4899 35.0363 19.2887C35.2 19.057 35.2 19.057 35.2042 18.7861C35.0381 18.5822 34.8572 18.3967 34.6684 18.2141C34.6301 18.1765 34.5919 18.1389 34.5524 18.1002C34.4584 18.0079 34.364 17.9161 34.2695 17.8245C33.9095 17.9515 33.6481 18.1517 33.349 18.384C33.1071 18.52 32.9857 18.5286 32.7109 18.4924C32.5106 18.4245 32.3218 18.3376 32.131 18.2466C31.7953 18.0879 31.5032 17.9611 31.1337 17.9033C30.9818 17.8592 30.9818 17.8592 30.8554 17.7502C30.7048 17.361 30.6296 16.9729 30.5585 16.5627C30.5218 16.4158 30.5218 16.4158 30.4843 16.2659C29.97 16.2659 29.4556 16.2659 28.9257 16.2659ZM2.13274 32.0744C1.98235 34.1787 1.98235 34.1787 2.79665 35.9332C3.44713 36.5689 4.16541 36.6988 5.03692 36.6939C5.1195 36.694 5.20208 36.6941 5.28716 36.6942C5.56351 36.6945 5.83984 36.6937 6.11619 36.6929C6.31442 36.6928 6.51265 36.6928 6.71089 36.6929C7.13749 36.693 7.56409 36.6925 7.9907 36.6917C8.60749 36.6905 9.22428 36.6901 9.84107 36.6899C10.8418 36.6896 11.8426 36.6886 12.8434 36.6872C13.8154 36.6858 14.7874 36.6848 15.7594 36.6842C15.8193 36.6841 15.8793 36.6841 15.941 36.684C16.2417 36.6839 16.5424 36.6837 16.8432 36.6835C19.3368 36.6819 21.8305 36.6793 24.3242 36.676C24.2936 36.6357 24.263 36.5955 24.2315 36.554C24.1914 36.5009 24.1513 36.4478 24.11 36.3931C24.0702 36.3406 24.0305 36.2881 23.9895 36.234C23.8535 36.0475 23.7423 35.8566 23.6376 35.6509C23.602 35.583 23.5664 35.5152 23.5298 35.4453C23.131 34.3943 23.2454 33.1441 23.2109 32.0744C16.2551 32.0744 9.29931 32.0744 2.13274 32.0744Z" fill="#FF751A"/>
<path d="M32.5902 20.278C33.3822 21.0154 33.8504 21.976 33.914 23.0552C33.929 24.2339 33.6313 25.2764 32.8729 26.2013C32.3781 26.6934 31.7391 27.1016 31.0786 27.3268C31.0316 27.3433 30.9847 27.3599 30.9363 27.3769C29.8081 27.6977 28.6015 27.4723 27.5848 26.9409C27.2219 26.7175 26.9237 26.4418 26.6255 26.1393C26.582 26.0965 26.5384 26.0538 26.4936 26.0097C25.7898 25.2629 25.5328 24.1309 25.5606 23.1305C25.6873 21.8695 26.2017 20.9225 27.1427 20.0693C28.7932 18.7469 31.0332 18.9445 32.5902 20.278ZM27.3074 21.2269C26.6556 22.0201 26.472 22.9048 26.5513 23.9127C26.6717 24.5676 26.9082 25.0645 27.3677 25.5455C27.4065 25.5865 27.4454 25.6274 27.4854 25.6696C28.0969 26.2484 28.9145 26.5724 29.7493 26.5892C30.7202 26.5523 31.5472 26.1631 32.2058 25.4528C32.8586 24.6506 33.0297 23.731 32.9341 22.7252C32.7504 21.8599 32.2275 21.166 31.5239 20.6471C30.1033 19.7793 28.4554 20.0048 27.3074 21.2269Z" fill="#FF751A"/>
<path d="M9.79985 23.8278C9.88209 23.8268 9.96434 23.8258 10.0491 23.8249C10.1383 23.8243 10.2275 23.8238 10.3194 23.8232C10.4108 23.8226 10.5021 23.822 10.5962 23.8214C10.7897 23.8204 10.9833 23.8196 11.1768 23.819C11.3754 23.8183 11.5739 23.8168 11.7724 23.8144C12.0581 23.8113 12.3438 23.81 12.6295 23.8093C12.7184 23.808 12.8073 23.8067 12.8989 23.8053C12.9816 23.8056 13.0643 23.8058 13.1496 23.806C13.2223 23.8056 13.295 23.8051 13.3699 23.8047C13.6234 23.8523 13.7088 23.9303 13.8593 24.1378C13.897 24.3321 13.897 24.3321 13.8977 24.5551C13.8987 24.6388 13.8996 24.7225 13.9006 24.8088C13.9 24.8989 13.8994 24.9889 13.8987 25.0817C13.8992 25.2209 13.8992 25.2209 13.8996 25.3629C13.8998 25.5591 13.8994 25.7551 13.898 25.9513C13.8963 26.2024 13.8973 26.4534 13.8991 26.7045C13.9004 26.9444 13.8995 27.1843 13.8987 27.4243C13.8993 27.5143 13.8999 27.6044 13.9006 27.6972C13.8996 27.7809 13.8987 27.8646 13.8977 27.9509C13.8975 28.0245 13.8972 28.0981 13.897 28.1739C13.8478 28.4276 13.7704 28.5141 13.5624 28.6651C13.3709 28.7023 13.3709 28.7023 13.1519 28.7023C13.0286 28.7034 13.0286 28.7034 12.9027 28.7045C12.8143 28.7036 12.7258 28.7028 12.6347 28.7019C12.5436 28.702 12.4524 28.7021 12.3586 28.7023C12.1659 28.7021 11.9732 28.7013 11.7806 28.6997C11.4854 28.6976 11.1904 28.6982 10.8952 28.6992C10.7081 28.6987 10.521 28.6981 10.3339 28.6973C10.2455 28.6975 10.157 28.6977 10.0659 28.6979C9.98366 28.697 9.90143 28.6961 9.8167 28.6951C9.74442 28.6947 9.67214 28.6943 9.59767 28.6939C9.37274 28.6601 9.27176 28.5997 9.10931 28.4425C9.03535 28.2206 9.02485 28.0711 9.02313 27.8393C9.02242 27.7618 9.0217 27.6842 9.02097 27.6043C9.02065 27.5206 9.02034 27.4369 9.02001 27.3506C9.01959 27.2645 9.01917 27.1784 9.01873 27.0897C9.01803 26.9074 9.01754 26.7251 9.01726 26.5428C9.01654 26.2639 9.01423 25.9851 9.01189 25.7062C9.01141 25.5292 9.01102 25.3521 9.01073 25.1751C9.00936 25.0499 9.00936 25.0499 9.00796 24.9223C9.00829 24.8053 9.00829 24.8053 9.00863 24.6859C9.00836 24.6175 9.00809 24.5491 9.00781 24.4787C9.04088 24.2453 9.1208 24.1053 9.25774 23.9151C9.44825 23.8199 9.58653 23.8299 9.79985 23.8278ZM9.99993 24.8057C9.99993 25.7609 9.99993 26.7161 9.99993 27.7003C10.9551 27.7003 11.9103 27.7003 12.8945 27.7003C12.8945 26.7451 12.8945 25.7899 12.8945 24.8057C11.9393 24.8057 10.9841 24.8057 9.99993 24.8057Z" fill="#FF751A"/>
<path d="M9.79985 16.109C9.88209 16.108 9.96434 16.1071 10.0491 16.1061C10.1383 16.1056 10.2275 16.105 10.3194 16.1045C10.4108 16.1039 10.5021 16.1033 10.5962 16.1026C10.7897 16.1016 10.9833 16.1008 11.1768 16.1002C11.3754 16.0996 11.5739 16.098 11.7724 16.0957C12.0581 16.0925 12.3438 16.0913 12.6295 16.0905C12.7184 16.0892 12.8073 16.0879 12.8989 16.0866C12.9816 16.0868 13.0643 16.087 13.1496 16.0873C13.2223 16.0868 13.295 16.0864 13.3699 16.0859C13.6234 16.1336 13.7088 16.2115 13.8593 16.419C13.897 16.6133 13.897 16.6133 13.8977 16.8363C13.8987 16.9201 13.8996 17.0038 13.9006 17.09C13.9 17.1801 13.8994 17.2702 13.8987 17.363C13.8992 17.5021 13.8992 17.5021 13.8996 17.6441C13.8998 17.8403 13.8994 18.0364 13.898 18.2326C13.8963 18.4836 13.8973 18.7346 13.8991 18.9857C13.9004 19.2257 13.8995 19.4656 13.8987 19.7055C13.8993 19.7956 13.8999 19.8857 13.9006 19.9785C13.8996 20.0622 13.8987 20.1459 13.8977 20.2321C13.8975 20.3057 13.8972 20.3793 13.897 20.4552C13.8478 20.7089 13.7704 20.7954 13.5624 20.9464C13.3709 20.9836 13.3709 20.9836 13.1519 20.9836C13.0286 20.9846 13.0286 20.9846 12.9027 20.9857C12.8143 20.9849 12.7258 20.984 12.6347 20.9832C12.5436 20.9833 12.4524 20.9834 12.3586 20.9835C12.1659 20.9834 11.9732 20.9825 11.7806 20.981C11.4854 20.9788 11.1904 20.9795 10.8952 20.9804C10.7081 20.98 10.521 20.9793 10.3339 20.9785C10.2455 20.9788 10.157 20.979 10.0659 20.9792C9.98366 20.9783 9.90143 20.9773 9.8167 20.9763C9.74442 20.9759 9.67214 20.9755 9.59767 20.9751C9.37274 20.9413 9.27176 20.881 9.10931 20.7237C9.03535 20.5018 9.02485 20.3524 9.02313 20.1206C9.02242 20.043 9.0217 19.9655 9.02097 19.8856C9.02065 19.8019 9.02034 19.7181 9.02001 19.6319C9.01959 19.5458 9.01917 19.4596 9.01873 19.3709C9.01803 19.1886 9.01754 19.0063 9.01726 18.824C9.01654 18.5452 9.01423 18.2663 9.01189 17.9875C9.01141 17.8104 9.01102 17.6334 9.01073 17.4563C9.00936 17.3312 9.00936 17.3312 9.00796 17.2035C9.00829 17.0865 9.00829 17.0865 9.00863 16.9671C9.00836 16.8988 9.00809 16.8304 9.00781 16.7599C9.04088 16.5266 9.1208 16.3865 9.25774 16.1964C9.44825 16.1011 9.58653 16.1111 9.79985 16.109ZM9.99993 17.087C9.99993 18.0422 9.99993 18.9974 9.99993 19.9815C10.9551 19.9815 11.9103 19.9815 12.8945 19.9815C12.8945 19.0263 12.8945 18.0711 12.8945 17.087C11.9393 17.087 10.9841 17.087 9.99993 17.087Z" fill="#FF751A"/>
<path d="M9.44926 8.35319C9.52589 8.35335 9.60251 8.3535 9.68146 8.35366C9.81186 8.35262 9.81186 8.35262 9.94489 8.35156C10.0858 8.35339 10.0858 8.35339 10.2295 8.35525C10.3259 8.35525 10.4222 8.35524 10.5215 8.35524C10.7254 8.35536 10.9293 8.35675 11.1332 8.35909C11.3945 8.36204 11.6557 8.36236 11.9171 8.3618C12.1663 8.36152 12.4156 8.36307 12.6648 8.36453C12.7588 8.36454 12.8527 8.36456 12.9495 8.36457C13.0364 8.36575 13.1234 8.36693 13.2129 8.36815C13.2896 8.36878 13.3662 8.3694 13.4451 8.37004C13.6366 8.39932 13.6366 8.39932 13.7727 8.48654C13.8938 8.67594 13.8876 8.81469 13.8881 9.03887C13.8888 9.12432 13.8895 9.20977 13.8902 9.29781C13.8898 9.39012 13.8893 9.48243 13.8889 9.57754C13.8891 9.67224 13.8893 9.76695 13.8895 9.86452C13.8897 10.0649 13.8894 10.2653 13.8883 10.4657C13.8871 10.7225 13.8878 10.9793 13.8891 11.2361C13.8901 11.4811 13.8894 11.7261 13.8889 11.9711C13.8893 12.0634 13.8898 12.1557 13.8902 12.2508C13.8892 12.379 13.8892 12.379 13.8881 12.5098C13.8879 12.5851 13.8878 12.6604 13.8876 12.738C13.8593 12.9267 13.8593 12.9267 13.7722 13.0622C13.5828 13.1839 13.4443 13.1776 13.2197 13.1781C13.1343 13.1788 13.0489 13.1795 12.9608 13.1803C12.8685 13.1798 12.7762 13.1794 12.6811 13.1789C12.5864 13.1791 12.4917 13.1793 12.3941 13.1795C12.1937 13.1797 11.9933 13.1794 11.7929 13.1783C11.5361 13.1771 11.2793 13.1778 11.0225 13.1791C10.7775 13.1801 10.5325 13.1794 10.2875 13.1789C10.1952 13.1793 10.1029 13.1798 10.0078 13.1803C9.92235 13.1796 9.8369 13.1789 9.74886 13.1781C9.67356 13.1779 9.59825 13.1778 9.52066 13.1776C9.33196 13.1493 9.33196 13.1493 9.19922 13.0501C9.02911 12.8166 9.0252 12.6022 9.02313 12.3235C9.02242 12.246 9.0217 12.1684 9.02097 12.0886C9.02065 12.0048 9.02034 11.9211 9.02001 11.8348C9.01959 11.7487 9.01917 11.6626 9.01873 11.5739C9.01803 11.3916 9.01754 11.2093 9.01726 11.027C9.01654 10.7481 9.01423 10.4693 9.01189 10.1904C9.01141 10.0134 9.01102 9.83634 9.01073 9.6593C9.00936 9.53415 9.00936 9.53415 9.00796 9.40648C9.00829 9.28947 9.00829 9.28947 9.00863 9.1701C9.00836 9.10171 9.00809 9.03333 9.00781 8.96287C9.0521 8.65034 9.12568 8.43112 9.44926 8.35319ZM9.99993 9.28994C9.99993 10.2696 9.99993 11.2493 9.99993 12.2587C10.9551 12.2587 11.9103 12.2587 12.8945 12.2587C12.8945 11.279 12.8945 10.2993 12.8945 9.28994C11.9393 9.28994 10.9841 9.28994 9.99993 9.28994Z" fill="#FF751A"/>
<path d="M12.2009 4.43866C12.2512 4.43836 12.3016 4.43807 12.3534 4.43776C12.5225 4.43705 12.6915 4.43793 12.8606 4.4388C12.9816 4.43862 13.1027 4.43834 13.2237 4.43798C13.5528 4.43728 13.8819 4.43798 14.2109 4.43897C14.5549 4.43981 14.899 4.4395 15.243 4.43936C15.8207 4.43929 16.3985 4.44011 16.9762 4.44148C17.6447 4.44305 18.3131 4.44331 18.9815 4.44285C19.6239 4.44243 20.2664 4.44284 20.9088 4.44368C21.1824 4.44402 21.4561 4.44409 21.7298 4.44393C22.0519 4.44379 22.374 4.44439 22.6962 4.44557C22.8146 4.44588 22.933 4.44595 23.0513 4.44574C23.2126 4.4455 23.3739 4.44617 23.5352 4.44708C23.6707 4.44731 23.6707 4.44731 23.809 4.44754C24.0282 4.46643 24.0282 4.46643 24.2508 4.61487C24.2778 4.75403 24.2778 4.75403 24.274 4.91174C24.2737 4.96379 24.2735 5.01584 24.2732 5.06946C24.2508 5.20862 24.2508 5.20862 24.1024 5.35706C23.8912 5.37594 23.8912 5.37594 23.6155 5.3764C23.5396 5.37683 23.5396 5.37683 23.4622 5.37726C23.2919 5.37803 23.1216 5.37773 22.9513 5.37744C22.8295 5.37776 22.7078 5.37815 22.586 5.37859C22.2546 5.37959 21.9232 5.37963 21.5919 5.37944C21.3156 5.37936 21.0393 5.37972 20.763 5.38008C20.1113 5.3809 19.4596 5.38093 18.8079 5.38048C18.1349 5.38004 17.4619 5.38095 16.7888 5.38253C16.2117 5.38384 15.6345 5.38428 15.0573 5.38404C14.7123 5.38391 14.3673 5.38411 14.0223 5.38513C13.6979 5.38607 13.3735 5.38593 13.0491 5.38496C12.9299 5.38478 12.8107 5.38499 12.6914 5.3856C12.529 5.38637 12.3666 5.38578 12.2042 5.38483C12.1132 5.38484 12.0222 5.38486 11.9284 5.38487C11.7079 5.35706 11.7079 5.35706 11.5673 5.25791C11.4387 5.06437 11.457 4.9148 11.4852 4.68909C11.6709 4.41032 11.885 4.43861 12.2009 4.43866Z" fill="#FF751A"/>
<path d="M16.7237 8.37736C16.8098 8.37674 16.896 8.37611 16.9848 8.37546C17.1267 8.37614 17.1267 8.37614 17.2715 8.37683C17.3721 8.37653 17.4727 8.37613 17.5732 8.37565C17.8465 8.37463 18.1197 8.37502 18.393 8.37573C18.6788 8.37629 18.9645 8.37577 19.2503 8.37542C19.7302 8.37502 20.2101 8.37555 20.6901 8.37661C21.2452 8.37782 21.8003 8.37743 22.3554 8.3762C22.8317 8.37519 23.308 8.37505 23.7844 8.37563C24.069 8.37598 24.3536 8.37603 24.6382 8.37529C24.9058 8.37465 25.1733 8.37509 25.4409 8.37638C25.5861 8.37682 25.7313 8.37615 25.8765 8.37546C25.9627 8.37609 26.0489 8.37672 26.1376 8.37736C26.2502 8.37749 26.2502 8.37749 26.365 8.37762C26.5518 8.40564 26.5518 8.40564 26.6898 8.50221C26.7744 8.62829 26.7744 8.62829 26.7605 8.8927C26.7002 9.14783 26.7002 9.14783 26.5518 9.29626C26.3742 9.31536 26.3742 9.31536 26.1466 9.31611C26.0605 9.31674 25.9744 9.31738 25.8858 9.31803C25.7909 9.31796 25.696 9.3179 25.5982 9.31783C25.4977 9.31827 25.3971 9.31877 25.2965 9.31934C25.023 9.32065 24.7494 9.321 24.4758 9.32109C24.2477 9.32123 24.0195 9.32178 23.7914 9.3223C23.2532 9.32351 22.715 9.32387 22.1768 9.32377C21.6212 9.32368 21.0655 9.32525 20.5099 9.32759C20.0332 9.32953 19.5566 9.33033 19.08 9.33023C18.7951 9.33019 18.5102 9.33062 18.2254 9.33219C17.9575 9.33362 17.6897 9.33364 17.4218 9.33256C17.2764 9.33233 17.131 9.33357 16.9856 9.33485C16.8993 9.33423 16.8131 9.3336 16.7242 9.33296C16.649 9.33304 16.5739 9.33312 16.4965 9.33321C16.3096 9.29626 16.3096 9.29626 16.1741 9.15742C16.066 8.96146 16.053 8.84894 16.0869 8.62829C16.2675 8.37789 16.4257 8.3777 16.7237 8.37736Z" fill="#FF751A"/>
<path d="M16.9973 11.0558C17.0599 11.0555 17.1226 11.0551 17.1872 11.0547C17.3945 11.0537 17.6018 11.0537 17.8092 11.0539C17.9531 11.0536 18.097 11.0533 18.241 11.0529C18.5427 11.0524 18.8444 11.0524 19.1461 11.0528C19.5332 11.0532 19.9203 11.052 20.3074 11.0502C20.6046 11.0492 20.9018 11.0491 21.199 11.0493C21.3418 11.0493 21.4845 11.0489 21.6273 11.0481C21.8267 11.0472 22.026 11.0477 22.2254 11.0486C22.2846 11.048 22.3438 11.0475 22.4048 11.0469C22.8016 11.0507 22.8016 11.0507 22.9881 11.1754C23.1043 11.3683 23.0854 11.5245 23.0625 11.7442C22.9141 11.9669 22.9141 11.9669 22.6914 12.0411C22.4936 12.0494 22.2976 12.0535 22.0997 12.0542C22.0395 12.0547 21.9792 12.0552 21.9172 12.0557C21.7178 12.0571 21.5184 12.058 21.3189 12.0588C21.2168 12.0592 21.2168 12.0592 21.1125 12.0597C20.7522 12.0612 20.3918 12.0623 20.0314 12.063C19.6591 12.0638 19.2868 12.0664 18.9146 12.0693C18.6283 12.0712 18.342 12.0719 18.0558 12.0721C17.9185 12.0725 17.7813 12.0734 17.644 12.0747C17.452 12.0765 17.26 12.0765 17.0679 12.076C17.0113 12.0769 16.9547 12.0779 16.8964 12.0788C16.6263 12.0762 16.4669 12.047 16.2333 11.9073C16.0859 11.7442 16.0859 11.7442 16.0859 11.4752C16.2281 10.9953 16.5686 11.0545 16.9973 11.0558Z" fill="#FF751A"/>
<path d="M16.9752 16.0954C17.0355 16.0948 17.0957 16.0942 17.1578 16.0935C17.3572 16.0917 17.5566 16.0911 17.756 16.0906C17.8946 16.0899 18.0331 16.0892 18.1717 16.0886C18.4623 16.0873 18.7529 16.0868 19.0436 16.0866C19.4159 16.0862 19.7881 16.0834 20.1604 16.08C20.4466 16.0778 20.7329 16.0772 21.0192 16.0771C21.1564 16.0768 21.2937 16.0759 21.4309 16.0744C21.623 16.0724 21.8149 16.0727 22.007 16.0736C22.0636 16.0725 22.1202 16.0714 22.1786 16.0703C22.4751 16.0744 22.6057 16.1085 22.8416 16.2943C22.989 16.4892 22.989 16.4892 22.989 16.6841C22.9058 16.8817 22.867 16.959 22.6921 17.083C22.4867 17.1053 22.2979 17.1142 22.0924 17.113C22.0314 17.1135 21.9703 17.114 21.9073 17.1145C21.7051 17.1159 21.503 17.1156 21.3008 17.1152C21.1604 17.1155 21.02 17.1159 20.8796 17.1163C20.5851 17.117 20.2907 17.1168 19.9963 17.1161C19.6188 17.1152 19.2414 17.1167 18.864 17.1189C18.574 17.1203 18.284 17.1202 17.9939 17.1198C17.8548 17.1198 17.7156 17.1203 17.5764 17.1212C17.3819 17.1223 17.1874 17.1215 16.9928 17.1202C16.9352 17.1209 16.8777 17.1216 16.8183 17.1224C16.5595 17.1188 16.4096 17.1017 16.1967 16.949C16.0867 16.7861 16.0867 16.7861 16.0913 16.5171C16.2229 16.0433 16.5545 16.0958 16.9752 16.0954Z" fill="#FF751A"/>
<path d="M16.951 26.5478C17.0231 26.5474 17.0231 26.5474 17.0967 26.547C17.2547 26.5464 17.4126 26.548 17.5707 26.5497C17.6809 26.5499 17.7912 26.5499 17.9014 26.5499C18.1321 26.5501 18.3627 26.5514 18.5933 26.5533C18.8887 26.5559 19.1841 26.5564 19.4795 26.5563C19.707 26.5564 19.9345 26.5572 20.162 26.5583C20.2709 26.5587 20.3799 26.559 20.4888 26.5591C20.641 26.5595 20.7932 26.5608 20.9455 26.5623C21.032 26.5629 21.1186 26.5635 21.2078 26.564C21.4235 26.5833 21.5479 26.6128 21.7266 26.7323C21.8305 26.9401 21.8196 27.0964 21.8008 27.3261C21.7194 27.4497 21.7194 27.4497 21.5782 27.5487C21.3562 27.5775 21.3562 27.5775 21.0807 27.5787C21.0054 27.5795 21.0054 27.5795 20.9285 27.5803C20.7625 27.5816 20.5965 27.5813 20.4304 27.5809C20.315 27.5813 20.1995 27.5817 20.0841 27.5821C19.842 27.5828 19.6 27.5826 19.358 27.5818C19.0479 27.581 18.7379 27.5825 18.4279 27.5847C18.1894 27.586 17.951 27.586 17.7125 27.5856C17.5982 27.5856 17.4839 27.586 17.3696 27.5869C17.2097 27.588 17.0499 27.5873 16.89 27.586C16.799 27.586 16.708 27.586 16.6143 27.5859C16.3393 27.5417 16.2521 27.4713 16.086 27.2519C16.0443 27.0663 16.0443 27.0663 16.086 26.8808C16.3676 26.5983 16.5572 26.5469 16.951 26.5478Z" fill="#FF751A"/>
<path d="M16.7862 18.8441C16.8595 18.8436 16.8595 18.8436 16.9343 18.843C17.0963 18.8419 17.2582 18.842 17.4202 18.8422C17.5326 18.8419 17.645 18.8416 17.7574 18.8412C17.9932 18.8407 18.229 18.8407 18.4648 18.8411C18.7671 18.8415 19.0694 18.8402 19.3717 18.8385C19.6039 18.8374 19.8361 18.8374 20.0684 18.8376C20.1798 18.8376 20.2913 18.8372 20.4028 18.8364C20.5586 18.8355 20.7144 18.836 20.8702 18.8369C20.9589 18.8368 21.0476 18.8368 21.1391 18.8367C21.3564 18.8645 21.3564 18.8645 21.4964 18.9636C21.6259 19.157 21.6073 19.3064 21.5791 19.5325C21.4963 19.6558 21.4963 19.6558 21.3564 19.7551C21.1396 19.7839 21.1396 19.7839 20.8714 19.7851C20.8225 19.7856 20.7736 19.7861 20.7232 19.7867C20.5616 19.788 20.4001 19.7877 20.2385 19.7873C20.1262 19.7876 20.0139 19.788 19.9016 19.7885C19.6663 19.7892 19.4309 19.789 19.1956 19.7882C18.8938 19.7874 18.5921 19.7889 18.2904 19.791C18.0585 19.7924 17.8266 19.7924 17.5947 19.792C17.4835 19.792 17.3722 19.7924 17.2609 19.7933C17.1055 19.7944 16.9501 19.7936 16.7946 19.7924C16.7061 19.7924 16.6176 19.7923 16.5264 19.7923C16.3096 19.7551 16.3096 19.7551 16.167 19.6189C16.0539 19.3921 16.0935 19.2523 16.1611 19.0129C16.3683 18.8057 16.4959 18.8452 16.7862 18.8441Z" fill="#FF751A"/>
<path d="M16.738 23.8206C16.8098 23.8196 16.8817 23.8187 16.9557 23.8177C17.0331 23.8175 17.1106 23.8174 17.1904 23.8172C17.2701 23.8167 17.3498 23.8162 17.432 23.8157C17.6006 23.8149 17.7692 23.8146 17.9379 23.8146C18.1961 23.8143 18.4542 23.8116 18.7124 23.8088C18.8761 23.8084 19.0399 23.8081 19.2036 23.8079C19.2809 23.8069 19.3583 23.8058 19.4379 23.8047C19.9694 23.8081 19.9694 23.8081 20.2201 23.9759C20.3172 24.139 20.3172 24.139 20.3126 24.408C20.243 24.6585 20.243 24.6585 20.0203 24.807C19.8575 24.8268 19.8575 24.8268 19.6659 24.8285C19.5941 24.8295 19.5222 24.8304 19.4482 24.8314C19.332 24.8317 19.332 24.8317 19.2135 24.8319C19.0939 24.8326 19.0939 24.8326 18.972 24.8334C18.8033 24.8342 18.6347 24.8345 18.4661 24.8345C18.2078 24.8348 17.9497 24.8375 17.6916 24.8403C17.5278 24.8407 17.364 24.841 17.2003 24.8412C17.123 24.8423 17.0457 24.8433 16.966 24.8444C16.4345 24.841 16.4345 24.841 16.1838 24.6732C16.0867 24.5101 16.0867 24.5101 16.0914 24.2411C16.1968 23.8614 16.3758 23.8238 16.738 23.8206Z" fill="#FF751A"/>
</g>
<defs>
<clipPath id="clip0_5245_13521">
<rect width="38" height="38" fill="white" transform="translate(0.5 0.3125)"/>
</clipPath>
</defs>
</svg>
