<svg width="39" height="39" viewBox="0 0 39 39" fill="none" xmlns="http://www.w3.org/2000/svg">
<g clip-path="url(#clip0_5245_13538)">
<path d="M23.1637 2.10277C23.5492 2.38786 23.9013 2.70585 24.2492 3.03514C24.3133 3.0936 24.3774 3.15206 24.4434 3.21228C25.4204 4.13682 26.1177 5.28474 26.7726 6.44921C26.8289 6.54792 26.8852 6.64659 26.9417 6.74521C27.0049 6.85586 27.0049 6.85586 27.0695 6.96874C27.1573 6.96699 27.1573 6.96699 27.2468 6.9652C29.6359 6.92412 32.053 7.05977 34.0878 8.45775C34.406 8.63712 34.5102 8.6024 34.8625 8.52733C35.7502 8.45895 36.4699 8.61265 37.1627 9.19124C37.6794 9.72003 37.9058 10.3402 37.9333 11.0693C37.9197 11.809 37.673 12.4401 37.1633 12.9805C36.8961 13.2031 36.8961 13.2031 36.7179 13.2031C36.7311 13.2633 36.7444 13.3235 36.758 13.3855C37.0041 15.2772 36.0286 17.5137 35.0419 19.0789C34.9948 19.154 34.9948 19.154 34.9466 19.2306C34.8857 19.3262 34.8235 19.421 34.7599 19.5148C34.6636 19.6582 34.6636 19.6582 34.5656 19.8828C34.6438 20.1364 34.766 20.355 34.9025 20.5815C35.8902 22.2475 36.6339 23.9796 36.769 25.9316C36.7726 25.9832 36.7762 26.0349 36.7799 26.0881C36.7933 26.3214 36.7926 26.4869 36.7179 26.7109C36.7608 26.7295 36.8037 26.748 36.8478 26.7672C37.3128 27.0239 37.6156 27.4737 37.7941 27.9634C37.991 28.653 37.9745 29.3161 37.6828 29.9765C37.3071 30.6227 36.7626 31.1068 36.0503 31.3386C35.5676 31.4428 35.0711 31.4407 34.5934 31.3171C34.2329 31.3104 34.0413 31.4859 33.7495 31.6856C32.113 32.7603 30.0737 32.937 28.1735 32.987C28.0589 32.9903 27.9443 32.9935 27.8297 32.9968C27.5515 33.0046 27.2734 33.0122 26.9953 33.0195C26.9565 33.0968 26.9178 33.1741 26.8779 33.2538C25.7192 35.5257 24.017 37.7131 21.5773 38.6601C21.4949 38.6924 21.4124 38.7246 21.3274 38.7578C19.8446 39.2403 18.1851 39.0521 16.8041 38.3772C16.0286 37.9777 15.3816 37.4783 14.7492 36.8789C14.6796 36.815 14.6101 36.7511 14.5384 36.6852C13.4379 35.6513 12.6706 34.362 12.0031 33.0195C11.9041 33.0179 11.9041 33.0179 11.803 33.0162C9.24797 32.9696 9.24796 32.9696 7.99529 32.7226C7.94233 32.7124 7.88938 32.7022 7.83482 32.6917C6.77689 32.4792 5.82483 32.0581 4.91173 31.4893C4.61625 31.3228 4.45839 31.2985 4.13591 31.3867C3.39918 31.4484 2.761 31.3857 2.15201 30.9423C1.52775 30.4084 1.14621 29.8668 1.07671 29.0416C1.05048 28.2644 1.23959 27.6622 1.76091 27.082C1.85663 27.0093 1.85663 27.0093 1.95429 26.935C2.22541 26.5931 2.2088 26.2457 2.2387 25.8203C2.42045 23.8936 3.11713 22.1906 4.11475 20.5438C4.1714 20.4472 4.22796 20.3506 4.28435 20.2539C4.32253 20.1901 4.3607 20.1263 4.40003 20.0605C4.45198 19.7787 4.29725 19.6014 4.14519 19.3772C4.08193 19.278 4.01903 19.1785 3.95646 19.0789C3.92427 19.0278 3.89209 18.9768 3.85893 18.9242C2.91356 17.3709 2.35555 15.6558 2.22487 13.8475C2.19956 13.3896 2.19956 13.3896 1.95661 13.0231C1.89203 12.9845 1.82745 12.946 1.76091 12.9062C1.20459 12.1782 1.00873 11.518 1.09295 10.6055C1.23561 9.9562 1.55341 9.38775 2.08968 8.98598C2.7606 8.56385 3.35217 8.48545 4.13591 8.52733C4.26909 8.56177 4.26909 8.56177 4.40496 8.59691C4.76246 8.60353 4.94517 8.43137 5.2347 8.23336C7.21778 6.96787 9.6582 6.92349 11.9289 6.96874C11.9989 6.83958 11.9989 6.83958 12.0704 6.70781C12.7907 5.38873 13.5791 4.15031 14.675 3.10936C14.7351 3.04861 14.7951 2.98786 14.857 2.92527C17.1655 0.6416 20.4661 0.28743 23.1637 2.10277ZM16.0109 3.70311C15.9546 3.74961 15.8982 3.79611 15.8402 3.84401C14.9881 4.56511 14.3665 5.49903 13.789 6.44457C13.7591 6.49291 13.7293 6.54124 13.6985 6.59105C13.5283 6.87099 13.5283 6.87099 13.4875 7.19139C13.5388 7.19953 13.5901 7.20766 13.6429 7.21604C15.3947 7.49886 17.1539 7.85519 18.8034 8.52773C19.5 8.79742 20.0712 8.57568 20.747 8.33251C22.2993 7.79643 23.8891 7.44056 25.5109 7.19139C25.4707 6.82416 25.3023 6.56772 25.1073 6.26366C25.0743 6.21151 25.0412 6.15935 25.0071 6.10562C24.6834 5.60308 24.3308 5.13022 23.9523 4.66796C23.9 4.60328 23.8477 4.53861 23.7937 4.47197C22.926 3.45188 21.6049 2.46655 20.2414 2.29296C18.5882 2.16346 17.2701 2.61055 16.0109 3.70311ZM5.76873 9.49218C5.84709 9.7351 5.92846 9.96139 6.03777 10.1926C6.25258 10.7665 6.23016 11.477 6.01922 12.0481C5.66042 12.7993 5.19187 13.1959 4.42815 13.5232C4.13494 13.5918 3.84191 13.6231 3.54216 13.6484C3.70938 15.3181 4.23003 16.8149 5.02277 18.2883C5.04675 18.3329 5.07074 18.3775 5.09545 18.4234C5.18218 18.558 5.28092 18.6604 5.39763 18.7695C5.45245 18.7048 5.50727 18.6402 5.56376 18.5735C6.30675 17.6997 7.0763 16.8612 7.88396 16.0466C7.94825 15.9814 8.01253 15.9161 8.07877 15.8489C8.56004 15.367 9.06345 14.8714 9.64497 14.5107C9.83134 14.3406 9.84206 14.1963 9.88468 13.9496C9.90112 13.8598 9.91755 13.77 9.93449 13.6775C9.94273 13.6297 9.95096 13.5819 9.95945 13.5327C10.0036 13.2787 10.0524 13.0257 10.1012 12.7726C10.1111 12.7211 10.121 12.6696 10.1312 12.6166C10.4186 11.139 10.8976 9.71739 11.4094 8.30467C9.37029 8.24711 7.57079 8.51474 5.76873 9.49218ZM27.589 8.30467C27.611 8.36799 27.6331 8.4313 27.6557 8.49653C28.0387 9.60428 28.4147 10.7104 28.6977 11.8486C28.7187 11.9331 28.7397 12.0175 28.7614 12.1045C28.8555 12.4963 28.9367 12.885 28.9937 13.284C29.0886 14.122 29.0886 14.122 29.5883 14.7663C29.7377 14.8646 29.8877 14.962 30.0383 15.0586C30.1891 15.1875 30.3347 15.317 30.4789 15.4529C30.5177 15.4889 30.5565 15.525 30.5964 15.5622C31.4992 16.4086 32.4001 17.2672 33.1554 18.25C33.3021 18.4248 33.4513 18.5971 33.6008 18.7695C34.7012 17.4945 35.4705 15.3289 35.382 13.6484C35.3272 13.6429 35.2724 13.6373 35.2159 13.6316C34.5225 13.5417 33.9027 13.3331 33.4198 12.8042C32.8797 12.1001 32.7915 11.4005 32.8586 10.5312C32.9174 10.3215 32.9889 10.1371 33.0833 9.94126C33.154 9.79211 33.1951 9.65314 33.2297 9.49218C31.4276 8.51474 29.6281 8.24711 27.589 8.30467ZM12.8195 8.45311C12.5343 8.96965 12.3516 9.51461 12.1677 10.0728C12.1152 10.2322 12.0617 10.3911 12.008 10.5501C11.558 11.7783 11.558 11.7783 11.4094 13.0547C11.7396 12.8717 12.0547 12.677 12.3664 12.4642C13.9974 11.3501 15.75 10.3415 17.5695 9.56639C17.5091 9.40416 17.5091 9.40416 17.346 9.3593C17.2477 9.33136 17.2477 9.33136 17.1474 9.30286C17.0734 9.28178 16.9994 9.26069 16.9232 9.23897C16.8426 9.2169 16.762 9.19484 16.6789 9.17211C16.5548 9.13786 16.5548 9.13786 16.4282 9.10293C15.2551 8.78653 14.0403 8.47981 12.8195 8.45311ZM24.7455 8.60619C24.6585 8.62239 24.5715 8.63859 24.4818 8.65527C22.9086 8.92807 22.9086 8.92807 21.4289 9.49218C21.587 9.65032 21.711 9.71193 21.913 9.805C21.9819 9.83713 22.0508 9.86926 22.1218 9.90237C22.1962 9.93692 22.2707 9.97147 22.3473 10.0071C24.1648 10.8653 25.8734 11.8962 27.5148 13.0547C27.6524 12.6503 27.4859 12.2655 27.3803 11.8672C27.3459 11.7358 27.3459 11.7358 27.3108 11.6018C26.8992 9.95696 26.8992 9.95696 26.1789 8.45311C25.6974 8.39976 25.2177 8.51771 24.7455 8.60619ZM2.59211 10.4779C2.39792 10.7562 2.40196 11.0191 2.42888 11.3476C2.56983 11.7793 2.76334 12.0214 3.17107 12.2383C3.50934 12.351 3.8153 12.3819 4.1478 12.2478C4.50324 12.0452 4.75067 11.8168 4.8781 11.4219C4.94765 11.0543 4.91002 10.7628 4.72966 10.4338C4.51485 10.1298 4.26767 9.97081 3.91326 9.86327C3.30298 9.78961 2.967 10.0292 2.59211 10.4779ZM34.314 10.3512C34.091 10.6879 34.0532 11.0275 34.1203 11.4219C34.2466 11.8166 34.4955 12.0468 34.8515 12.2473C35.1962 12.3883 35.4841 12.3535 35.8366 12.2336C36.172 12.0076 36.4404 11.735 36.5695 11.3476C36.599 10.9566 36.5639 10.7119 36.3469 10.3828C36.0287 10.0608 35.7933 9.88245 35.331 9.83544C34.9086 9.84244 34.5903 10.0383 34.314 10.3512ZM19.0243 10.3289C18.942 10.3652 18.8597 10.4016 18.7749 10.439C18.6864 10.4786 18.5978 10.5182 18.5065 10.5591C18.4612 10.5793 18.416 10.5995 18.3693 10.6204C15.9833 11.6887 13.7262 12.9783 11.6413 14.5622C11.5892 14.6018 11.5371 14.6414 11.4834 14.6821C11.103 14.9688 11.103 14.9688 10.9279 15.4042C10.9198 15.4826 10.9118 15.5609 10.9034 15.6416C10.8896 15.7731 10.8896 15.7731 10.8755 15.9073C10.8664 15.9992 10.8574 16.0911 10.8481 16.1858C10.8387 16.2739 10.8294 16.3621 10.8198 16.4529C10.7029 17.5906 10.6498 18.7213 10.6486 19.8642C10.6485 19.9275 10.6484 19.9908 10.6482 20.056C10.6481 21.0133 10.6876 21.9627 10.7692 22.9165C10.7739 22.9721 10.7786 23.0277 10.7834 23.0849C10.8117 24.1169 10.8117 24.1169 11.1792 25.0375C11.2398 25.0815 11.3005 25.1255 11.363 25.1709C11.4727 25.2521 11.4727 25.2521 11.5848 25.335C11.6747 25.3978 11.7647 25.4606 11.8547 25.5234C11.9671 25.6047 12.0795 25.6861 12.1918 25.7675C12.9416 26.3062 13.7085 26.8101 14.5041 27.2782C14.6189 27.3458 14.7334 27.4139 14.8476 27.4825C15.6862 27.9851 16.5461 28.4332 17.4257 28.8586C17.4743 28.8822 17.5229 28.9057 17.5729 28.93C17.8054 29.0422 18.0385 29.1531 18.2729 29.2613C18.4426 29.3401 18.6111 29.4215 18.7781 29.5058C19.2544 29.7386 19.2544 29.7386 19.7636 29.6884C19.8746 29.6387 19.9844 29.5861 20.0929 29.5312C20.2228 29.4756 20.3527 29.4202 20.4826 29.3648C20.6251 29.3002 20.7673 29.2351 20.9094 29.1694C20.9865 29.1338 21.0636 29.0982 21.143 29.0615C24.9662 27.3905 24.9662 27.3905 28.0344 24.707C28.0742 24.5039 28.0742 24.5039 28.0949 24.2724C28.1088 24.1409 28.1088 24.1409 28.1229 24.0067C28.132 23.9148 28.141 23.8229 28.1503 23.7283C28.1596 23.6401 28.169 23.5519 28.1786 23.4611C28.2955 22.3234 28.3486 21.1928 28.3498 20.0498C28.3499 19.9865 28.35 19.9233 28.3502 19.8581C28.3503 18.9008 28.3107 17.9513 28.2292 16.9975C28.2245 16.942 28.2198 16.8864 28.215 16.8291C28.1867 15.7971 28.1867 15.7971 27.8192 14.8765C27.7586 14.8325 27.6979 14.7885 27.6354 14.7432C27.5242 14.6611 27.5242 14.6611 27.4107 14.5773C27.3473 14.533 27.3473 14.533 27.2826 14.4879C27.1309 14.3816 26.9818 14.272 26.8326 14.1622C23.0836 11.3591 23.0836 11.3591 19.0243 10.3289ZM8.98333 16.8042C8.94054 16.8467 8.89775 16.8893 8.85366 16.9331C8.76247 17.0239 8.67138 17.1148 8.58038 17.2058C8.44364 17.3424 8.30632 17.4784 8.16895 17.6143C7.71063 18.0705 7.27462 18.5299 6.87351 19.0379C6.68616 19.2748 6.48821 19.5017 6.28971 19.7291C6.19529 19.8813 6.19529 19.8813 6.24941 20.0565C6.39756 20.3151 6.57801 20.5277 6.77532 20.7502C6.81153 20.7919 6.84774 20.8336 6.88505 20.8765C7.00687 21.0161 7.1299 21.1546 7.2531 21.293C7.32807 21.3779 7.32807 21.3779 7.40455 21.4646C7.82136 21.9333 8.2559 22.3812 8.70037 22.8237C8.76753 22.8912 8.83469 22.9586 8.90389 23.0281C8.99947 23.1235 8.99947 23.1235 9.09697 23.2209C9.15452 23.2784 9.21207 23.3358 9.27136 23.395C9.38402 23.5279 9.38402 23.5279 9.47966 23.5195C9.47163 23.3886 9.47163 23.3886 9.46343 23.2551C9.34004 20.9788 9.33994 18.67 9.47966 16.3945C9.30485 16.3945 9.10746 16.6803 8.98333 16.8042ZM29.5187 16.3945C29.521 16.4359 29.5232 16.4772 29.5255 16.5198C29.6461 18.8476 29.6453 21.1921 29.5187 23.5195C29.9593 23.1536 30.3665 22.7603 30.7712 22.3552C30.8373 22.2891 30.9033 22.2229 30.9714 22.1548C31.4085 21.7136 31.8146 21.2681 32.1906 20.7734C32.3032 20.6325 32.4161 20.4918 32.5292 20.3513C32.6143 20.2447 32.6994 20.138 32.7844 20.0312C32.6744 19.6832 32.4702 19.4416 32.2323 19.1731C32.1723 19.1044 32.1723 19.1044 32.1111 19.0343C31.9897 18.896 31.8676 18.7585 31.7453 18.6211C31.6815 18.5488 31.6177 18.4766 31.5519 18.4022C31.1205 17.9227 30.6696 17.4638 30.2145 17.0068C30.1546 16.9466 30.0947 16.8863 30.033 16.8242C29.9771 16.7685 29.9213 16.7128 29.8637 16.6554C29.8133 16.6051 29.763 16.5548 29.7111 16.503C29.6106 16.3862 29.6106 16.3862 29.5187 16.3945ZM5.32341 21.1445C4.42933 22.6691 3.54216 24.4474 3.54216 26.2656C3.60234 26.2712 3.66252 26.2767 3.72452 26.2824C4.44509 26.368 5.0756 26.5604 5.57854 27.1098C6.11868 27.8139 6.20689 28.5136 6.13982 29.3828C6.08103 29.5926 6.00951 29.7769 5.91513 29.9728C5.8444 30.1219 5.80325 30.2609 5.76873 30.4219C7.57079 31.3993 9.37029 31.6669 11.4094 31.6094C11.373 31.5054 11.373 31.5054 11.3358 31.3994C10.9139 30.1892 10.5033 28.9819 10.2172 27.7314C10.1963 27.6399 10.1753 27.5484 10.1538 27.4542C10.0714 27.0815 9.99497 26.7114 9.9473 26.3326C9.88281 25.8238 9.82186 25.5046 9.41008 25.1662C9.26063 25.0619 9.11064 24.9583 8.96013 24.8555C8.37018 24.3559 7.82489 23.8036 7.2763 23.2598C7.21106 23.1955 7.14582 23.1312 7.07861 23.065C6.6344 22.6214 6.23384 22.1549 5.84295 21.664C5.69733 21.4878 5.54956 21.3154 5.39763 21.1445C5.37314 21.1445 5.34865 21.1445 5.32341 21.1445ZM33.6008 21.1445C33.5406 21.2146 33.4804 21.2846 33.4184 21.3567C30.7861 24.413 30.7861 24.413 29.4041 25.3553C29.1833 25.559 29.1577 25.6707 29.1091 25.9638C29.0933 26.0523 29.0774 26.1407 29.0611 26.2318C29.0453 26.3272 29.0294 26.4225 29.0131 26.5207C28.9765 26.7235 28.9383 26.926 28.8998 27.1284C28.89 27.1801 28.8802 27.2318 28.8701 27.2851C28.5846 28.7623 28.1077 30.1996 27.589 31.6094C29.5519 31.6635 31.5248 31.4734 33.2297 30.4219C33.1513 30.1789 33.0699 29.9526 32.9606 29.7214C32.7377 29.13 32.762 28.339 33 27.7538C33.3666 27.0664 33.8643 26.6893 34.5749 26.3909C34.8437 26.3266 35.1071 26.2941 35.382 26.2656C35.4208 24.6973 34.8031 22.4046 33.7017 21.2383C33.6684 21.2074 33.6351 21.1764 33.6008 21.1445ZM11.4094 26.8594C11.4528 27.4281 11.5847 27.9498 11.7433 28.4968C11.7692 28.5869 11.7951 28.6769 11.8218 28.7697C12.1505 30.2053 12.1505 30.2053 12.8195 31.4609C13.4992 31.4535 14.161 31.3287 14.8234 31.1872C14.9162 31.1677 15.009 31.1482 15.1046 31.128C15.6897 31.002 16.2697 30.8624 16.8459 30.7002C16.9112 30.6819 16.9766 30.6637 17.0439 30.6449C17.1959 30.6002 17.3459 30.5488 17.4953 30.4961C17.532 30.4226 17.532 30.4226 17.5695 30.3476C17.5136 30.3216 17.4578 30.2956 17.4002 30.2687C16.1058 29.6626 14.8568 29.0158 13.6359 28.2695C13.5779 28.2343 13.5198 28.1991 13.46 28.1628C12.845 27.7889 12.2472 27.3958 11.6601 26.9794C11.5089 26.8524 11.5089 26.8524 11.4094 26.8594ZM27.5148 26.8594C27.4694 26.8903 27.424 26.9212 27.3772 26.9531C25.5026 28.2258 23.5394 29.496 21.4289 30.3476C21.4893 30.5099 21.4893 30.5099 21.6524 30.5547C21.7179 30.5734 21.7835 30.592 21.851 30.6112C21.925 30.6323 21.999 30.6533 22.0752 30.6751C22.1558 30.6971 22.2364 30.7192 22.3195 30.7419C22.4022 30.7648 22.485 30.7876 22.5702 30.8111C23.7433 31.1275 24.9581 31.4342 26.1789 31.4609C26.4664 30.9324 26.6547 30.3798 26.8422 29.8096C26.8584 29.7606 26.8746 29.7117 26.8913 29.6613C27.0971 29.0384 27.2925 28.4137 27.4545 27.7778C27.4777 27.6884 27.4777 27.6884 27.5013 27.5971C27.5676 27.3223 27.5973 27.1293 27.5148 26.8594ZM2.61907 28.1257C2.43974 28.4629 2.40309 28.7055 2.42888 29.0859C2.56885 29.4894 2.82729 29.7367 3.17107 29.9765C3.54216 30.1002 3.86031 30.0935 4.21941 29.9394C4.55261 29.7547 4.74215 29.5147 4.8781 29.1601C4.9543 28.7677 4.90635 28.4247 4.68444 28.0895C4.4532 27.8277 4.18117 27.6443 3.83788 27.5685C3.33557 27.5388 2.92832 27.7372 2.61907 28.1257ZM34.314 28.0895C34.091 28.4262 34.0532 28.7658 34.1203 29.1601C34.2466 29.5549 34.4955 29.7851 34.8515 29.9855C35.1962 30.1266 35.4841 30.0917 35.8366 29.9719C36.172 29.7459 36.4404 29.4733 36.5695 29.0859C36.599 28.6947 36.5566 28.4538 36.3469 28.1211C36.0297 27.7538 35.8005 27.624 35.3217 27.5691C34.9056 27.5817 34.586 27.7815 34.314 28.0895ZM18.8678 31.3661C18.7895 31.3936 18.7112 31.4211 18.6305 31.4494C18.5467 31.4792 18.463 31.5091 18.3766 31.5398C16.7793 32.0889 15.156 32.4663 13.4875 32.7226C13.5277 33.0899 13.6961 33.3463 13.891 33.6504C13.9242 33.7026 13.9573 33.7548 13.9915 33.8086C15.0613 35.469 16.51 37.1268 18.5225 37.5912C19.9678 37.7752 21.2514 37.5208 22.4497 36.6574C22.6331 36.5129 22.8108 36.3636 22.9875 36.2109C23.0384 36.1699 23.0893 36.1288 23.1417 36.0865C23.5717 35.7319 23.9096 35.315 24.2492 34.875C24.2989 34.8107 24.3487 34.7464 24.4 34.6802C24.6938 34.2884 24.9594 33.8827 25.214 33.4648C25.2584 33.3928 25.2584 33.3928 25.3036 33.3192C25.4713 33.0408 25.4713 33.0408 25.5109 32.7226C25.434 32.7104 25.434 32.7104 25.3555 32.698C23.5918 32.4133 21.8479 32.0352 20.1754 31.3928C20.1214 31.3724 20.0674 31.352 20.0118 31.331C19.9661 31.3131 19.9204 31.2951 19.8733 31.2765C19.5129 31.1855 19.2113 31.2422 18.8678 31.3661Z" fill="#7C7A7A"/>
<path d="M16.4477 15.4531C16.6972 15.5226 16.8076 15.6757 16.9771 15.8683C17.0755 16.0573 17.16 16.2375 17.2398 16.4339C17.2753 16.5181 17.2753 16.5181 17.3115 16.604C17.3896 16.7898 17.4663 16.9761 17.543 17.1625C17.5978 17.2937 17.6527 17.4249 17.7077 17.5561C17.855 17.9085 18.0012 18.2615 18.147 18.6147C18.2401 18.8401 18.3335 19.0655 18.427 19.2908C18.7576 20.0877 19.0882 20.8846 19.415 21.6831C19.5428 21.995 19.672 22.306 19.8055 22.6156C19.8299 22.6729 19.8543 22.7301 19.8795 22.7892C19.9248 22.8953 19.9707 23.0011 20.0174 23.1066C20.1428 23.4022 20.2005 23.6374 20.1685 23.9581C20.0004 24.3019 20.0004 24.3019 19.7974 24.4034C19.3756 24.4449 19.3756 24.4449 19.2037 24.4034C18.912 24.1495 18.7601 23.9206 18.6178 23.563C18.5643 23.4302 18.5643 23.4302 18.5098 23.2947C18.492 23.249 18.4741 23.2034 18.4558 23.1563C18.4009 23.0157 18.3447 22.8757 18.2883 22.7357C18.0162 22.0527 18.0162 22.0527 18.0162 21.88C16.914 21.9045 15.8119 21.929 14.6763 21.9542C14.3988 22.6487 14.3988 22.6487 14.1236 23.3442C14.0707 23.4741 14.0707 23.4741 14.0168 23.6068C13.9814 23.6954 13.946 23.784 13.9096 23.8753C13.7742 24.1281 13.6549 24.2497 13.4146 24.4034C13.0883 24.4559 12.9517 24.442 12.6771 24.255C12.4851 23.9758 12.4814 23.7643 12.524 23.4386C12.5952 23.1923 12.694 22.9613 12.7965 22.7266C12.8255 22.6579 12.8544 22.5893 12.8842 22.5186C12.9796 22.2929 13.0765 22.0679 13.1734 21.8429C13.2403 21.6855 13.3071 21.528 13.3737 21.3705C13.5133 21.0409 13.6534 20.7115 13.7937 20.3823C14.0076 19.8792 14.2178 19.3746 14.427 18.8695C14.4774 18.7479 14.4774 18.7479 14.5288 18.6239C14.6595 18.3085 14.7901 17.9932 14.9205 17.6777C15.0106 17.4603 15.1009 17.243 15.1912 17.0256C15.2175 16.9621 15.2437 16.8985 15.2707 16.833C15.8335 15.482 15.8335 15.482 16.4477 15.4531ZM16.3092 17.9464C16.1915 18.2154 16.074 18.4844 15.9566 18.7535C15.9237 18.8287 15.8908 18.9039 15.8569 18.9814C15.4635 19.7383 15.4635 19.7383 15.2701 20.5441C15.9804 20.5441 16.6906 20.5441 17.4224 20.5441C17.1005 19.6668 16.7512 18.8054 16.3834 17.9464C16.3589 17.9464 16.3344 17.9464 16.3092 17.9464Z" fill="#7C7A7A"/>
<path d="M22.1149 15.4478C22.2107 15.4472 22.3064 15.4467 22.4051 15.4461C22.6075 15.4453 22.8099 15.4458 23.0123 15.4472C23.2711 15.4489 23.5298 15.4469 23.7886 15.4438C24.0363 15.4415 24.2839 15.4425 24.5316 15.4431C24.6243 15.442 24.717 15.4408 24.8125 15.4397C25.4373 15.4481 25.4373 15.4481 25.6548 15.5968C25.7938 15.7569 25.8763 15.9005 25.9116 16.1105C25.8707 16.3243 25.8347 16.5034 25.7075 16.6825C25.1851 17.0241 24.5831 16.8356 23.9541 16.8356C23.9541 18.8929 23.9541 20.9503 23.9541 23.07C24.4194 23.07 24.8848 23.07 25.3643 23.07C25.8145 23.3401 25.8145 23.3401 25.8838 23.5895C25.8737 23.8706 25.858 24.0465 25.6839 24.2712C25.4688 24.4404 25.3545 24.4438 25.0829 24.4455C24.9532 24.4473 24.9532 24.4473 24.8209 24.4491C24.7279 24.4487 24.6348 24.4483 24.5389 24.4479C24.443 24.4484 24.3471 24.4489 24.2483 24.4493C24.0454 24.4501 23.8426 24.4498 23.6398 24.4487C23.3804 24.4474 23.1211 24.4491 22.8617 24.4518C22.6136 24.4538 22.3656 24.453 22.1175 24.4526C22.0245 24.4536 21.9316 24.4545 21.8358 24.4556C21.1195 24.4479 21.1195 24.4479 20.8897 24.2272C20.6919 23.9276 20.7122 23.7947 20.7627 23.4411C20.9015 23.2606 21.0062 23.1708 21.208 23.07C21.6734 23.07 22.1387 23.07 22.6182 23.07C22.6182 21.0126 22.6182 18.9553 22.6182 16.8356C22.1528 16.8356 21.6875 16.8356 21.208 16.8356C20.8369 16.6129 20.8369 16.6129 20.7627 16.4645C20.7119 15.9479 20.7119 15.9479 20.8893 15.6784C21.2138 15.3679 21.6958 15.4454 22.1149 15.4478Z" fill="#7C7A7A"/>
</g>
<defs>
<clipPath id="clip0_5245_13538">
<rect width="38" height="38" fill="white" transform="translate(0.5 0.953125)"/>
</clipPath>
</defs>
</svg>
