<svg width="39" height="39" viewBox="0 0 39 39" fill="none" xmlns="http://www.w3.org/2000/svg">
<g clip-path="url(#clip0_5245_13563)">
<path d="M21.7844 1.79917C21.9217 1.8374 22.0591 1.87557 22.1964 1.91369C22.4899 1.99525 22.7832 2.07715 23.0765 2.15932C23.5421 2.28975 24.0079 2.41943 24.4737 2.54897C24.9565 2.68325 25.4392 2.81758 25.9218 2.95217C27.3411 3.34793 28.7612 3.74054 30.1817 4.13195C30.6555 4.26251 31.1292 4.39331 31.6029 4.52421C32.7048 4.82859 33.8067 5.13245 34.9105 5.42936C35.1389 5.49082 35.3671 5.55257 35.5954 5.61426C35.9146 5.70055 36.2341 5.78582 36.5538 5.87041C36.691 5.9074 36.8281 5.94444 36.9653 5.98152C37.0253 5.99705 37.0852 6.01258 37.147 6.02858C37.5643 6.14281 37.9058 6.29787 38.1942 6.63441C38.3133 6.93205 38.3285 7.19498 38.2777 7.51112C38.0706 7.91062 37.8545 8.12086 37.4299 8.26585C37.3273 8.29442 37.2246 8.32227 37.1217 8.34954C37.0373 8.37276 37.0373 8.37276 36.9512 8.39645C36.7652 8.44745 36.5789 8.49751 36.3927 8.54757C36.2625 8.58309 36.1323 8.61867 36.0021 8.65431C35.6588 8.74811 35.3153 8.84113 34.9718 8.93398C34.6257 9.02764 34.2798 9.12196 33.9339 9.21627C33.5433 9.32276 33.1527 9.4292 32.7619 9.53503C32.0755 9.72104 31.3905 9.91107 30.7074 10.1088C30.8881 10.2923 31.0617 10.467 31.2664 10.6237C32.015 11.2491 32.51 12.3507 32.6371 13.3002C32.6452 13.5029 32.6506 13.7042 32.6522 13.907C32.6527 13.9617 32.6532 14.0164 32.6537 14.0728C32.6552 14.3018 32.6561 14.5308 32.6542 14.7598C32.6531 14.9286 32.6548 15.0973 32.6568 15.2661C32.6557 15.3177 32.6546 15.3692 32.6534 15.4224C32.652 15.5884 32.652 15.5884 32.7113 15.8236C32.9145 15.9861 32.9145 15.9861 33.1567 16.1205C33.501 16.4747 33.7022 16.8748 33.9186 17.3158C33.9719 17.4228 33.9719 17.4228 34.0263 17.532C34.1009 17.682 34.1752 17.8321 34.2493 17.9824C34.3628 18.2128 34.4772 18.4428 34.5917 18.6728C34.6643 18.8188 34.7367 18.9649 34.8092 19.111C34.8433 19.1799 34.8775 19.2488 34.9127 19.3197C34.9442 19.3837 34.9757 19.4476 35.0081 19.5134C35.0359 19.5696 35.0636 19.6258 35.0921 19.6837C35.3062 20.146 35.3155 20.7046 35.1893 21.1961C34.991 21.6407 34.6138 22.0062 34.1738 22.2118C33.9611 22.2848 33.7979 22.3004 33.5736 22.3022C33.4956 22.3032 33.4175 22.3041 33.3371 22.3051C33.2116 22.3053 33.2116 22.3053 33.0836 22.3056C32.9967 22.3061 32.9099 22.3066 32.8204 22.3071C32.6368 22.3078 32.4531 22.3082 32.2694 22.3082C31.9897 22.3085 31.7102 22.3112 31.4305 22.314C31.2517 22.3144 31.0729 22.3147 30.8941 22.3149C30.8111 22.3159 30.728 22.317 30.6425 22.3181C30.083 22.3149 29.5909 22.2458 29.1603 21.8616C28.8044 21.4884 28.6248 21.059 28.5968 20.5458C28.627 19.9112 28.9881 19.3131 29.2668 18.7541C29.3143 18.6584 29.3143 18.6584 29.3627 18.5608C29.4291 18.4273 29.4957 18.2938 29.5624 18.1604C29.6638 17.9572 29.7643 17.7535 29.8648 17.5498C29.9298 17.4193 29.9949 17.2888 30.06 17.1584C30.0897 17.0981 30.1193 17.0378 30.1498 16.9756C30.3582 16.5623 30.5615 16.1595 30.9876 15.9403C31.1794 15.8334 31.1794 15.8334 31.1984 15.5853C31.1979 15.4886 31.1974 15.3919 31.1968 15.2922C31.1968 15.2138 31.1968 15.2138 31.1968 15.1338C31.1964 15.0229 31.1951 14.912 31.193 14.8012C31.1899 14.6338 31.1899 14.4667 31.1904 14.2994C31.1861 13.2827 30.9958 12.4412 30.2795 11.6758C30.0741 11.4921 29.8613 11.3518 29.6221 11.216C29.5394 11.169 29.4567 11.122 29.3715 11.0736C29.3722 11.1546 29.3722 11.1546 29.373 11.2372C29.3775 11.7492 29.3809 12.2612 29.383 12.7732C29.3842 13.0363 29.3857 13.2994 29.3883 13.5626C29.3912 13.866 29.3923 14.1694 29.3932 14.4729C29.3944 14.5661 29.3955 14.6593 29.3967 14.7553C29.3969 15.8142 29.1335 16.6056 28.4067 17.3822C26.2515 19.1512 22.7969 19.058 20.1684 19.015C20.1684 19.2355 20.1684 19.4559 20.1684 19.683C20.2602 19.6876 20.3521 19.6922 20.4467 19.6969C21.3747 19.8045 22.2517 20.3355 22.8356 21.056C23.23 21.6037 23.4424 22.0852 23.4572 22.7631C23.46 22.8465 23.4627 22.9299 23.4656 23.0159C23.4275 23.2926 23.3532 23.3724 23.1371 23.5424C22.9254 23.6483 22.7783 23.6396 22.5434 23.6166C22.2903 23.4601 22.1875 23.36 22.0815 23.0791C22.0507 22.9456 22.0507 22.9456 22.0192 22.8095C21.8574 22.119 21.5679 21.7678 20.9848 21.39C20.7154 21.2921 20.4459 21.1941 20.1684 21.0931C20.1684 22.3423 20.1684 23.5914 20.1684 24.8783C20.4133 24.9273 20.6582 24.9763 20.9106 25.0267C21.8223 25.3162 22.6178 25.8655 23.1006 26.7059C23.4824 27.4565 23.5633 28.2463 23.3746 29.072C23.023 29.9984 22.2701 30.6791 21.3883 31.0941C20.9782 31.2708 20.6201 31.4096 20.1684 31.4096C20.1727 31.4749 20.177 31.5402 20.1814 31.6076C20.2086 32.3077 20.2086 32.3077 20.0199 32.6202C19.7323 32.782 19.5254 32.8214 19.2035 32.7455C18.9809 32.6202 18.9809 32.6202 18.8324 32.3744C18.8022 32.0504 18.8111 31.7339 18.8324 31.4096C18.713 31.4027 18.713 31.4027 18.5912 31.3956C17.6259 31.2726 16.6935 30.6714 16.0863 29.9252C15.6464 29.2356 15.4761 28.6707 15.5668 27.8471C15.7199 27.6012 15.7199 27.6012 15.9379 27.476C16.2493 27.4377 16.4932 27.4406 16.7543 27.6244C16.9093 27.8569 16.9262 27.958 16.9584 28.2274C17.0496 28.7505 17.2427 29.1375 17.6699 29.4639C18.0497 29.7017 18.4046 29.839 18.8324 29.9994C18.8079 28.7503 18.7834 27.5012 18.7582 26.2142C18.3541 26.104 18.3541 26.104 17.9418 25.9916C16.9444 25.5887 16.2154 25.0252 15.7129 24.0639C15.4468 23.4244 15.4458 22.5186 15.6874 21.8724C15.7427 21.7594 15.8015 21.6479 15.8637 21.5385C15.8934 21.4825 15.9232 21.4265 15.9538 21.3689C16.4583 20.5164 17.3068 20.0256 18.2294 19.734C18.4399 19.6877 18.618 19.67 18.8324 19.683C18.8324 19.4626 18.8324 19.2421 18.8324 19.015C18.7271 19.0167 18.6218 19.0185 18.5132 19.0202C16.5967 19.0418 14.5924 18.983 12.7467 18.4163C12.3347 18.2793 12.3347 18.2793 11.9197 18.3308C11.7673 18.4704 11.671 18.6185 11.559 18.7924C11.4986 18.8679 11.4383 18.9433 11.3761 19.0211C10.05 20.6834 9.20451 22.8224 9.10978 24.9525C9.10585 25.0373 9.10193 25.1221 9.09789 25.2094C9.04307 27.5593 9.73995 29.915 11.1879 31.7806C11.2412 31.8503 11.2945 31.9199 11.3494 31.9917C13.1048 34.2117 15.6024 35.5498 18.4042 35.892C18.6213 35.913 18.8372 35.9273 19.0551 35.9369C19.123 35.94 19.1909 35.943 19.2609 35.9462C21.9751 36.0057 24.6252 34.9787 26.6055 33.1298C28.5449 31.2731 29.7531 28.7595 29.891 26.0658C29.8906 25.6009 29.8787 25.1359 29.862 24.6713C29.8491 23.8914 29.8491 23.8914 30.0592 23.6653C30.3063 23.5156 30.4313 23.4875 30.7124 23.5061C30.9642 23.5697 31.0773 23.7094 31.227 23.9135C31.3668 24.4173 31.3193 24.9664 31.3197 25.486C31.3198 25.5431 31.3198 25.6002 31.3199 25.659C31.3187 26.5075 31.2848 27.3173 31.0785 28.1439C31.0662 28.1969 31.0538 28.2499 31.0411 28.3045C30.3444 31.2622 28.4771 33.9116 25.903 35.537C24.4865 36.4047 22.9338 37.0374 21.2817 37.2728C21.2117 37.283 21.2117 37.283 21.1404 37.2934C18.7543 37.6029 16.3872 37.2062 14.2309 36.1596C14.1847 36.1376 14.1386 36.1156 14.091 36.093C12.142 35.1547 10.5613 33.5895 9.40665 31.7806C9.379 31.7376 9.35135 31.6946 9.32287 31.6503C7.82131 29.2774 7.23924 26.0111 7.84545 23.2556C7.87061 23.1532 7.89624 23.0509 7.92228 22.9486C7.93702 22.888 7.95177 22.8274 7.96696 22.765C8.389 21.0613 9.11388 19.559 10.2051 18.1862C10.3933 17.9485 10.5692 17.705 10.7426 17.4564C10.6869 17.4153 10.6312 17.3742 10.5739 17.3318C10.3709 17.159 10.2453 17.0029 10.1025 16.7792C10.0602 16.7147 10.0179 16.6502 9.97431 16.5838C9.61166 15.8705 9.59918 15.1767 9.60756 14.392C9.60798 14.2766 9.6083 14.1612 9.60852 14.0458C9.60936 13.7444 9.61154 13.443 9.61402 13.1417C9.61631 12.8332 9.61732 12.5247 9.61844 12.2162C9.62081 11.6127 9.6246 11.0092 9.62931 10.4057C9.53539 10.3888 9.44148 10.372 9.34472 10.3547C8.72299 10.23 8.11411 10.0531 7.50306 9.88496C7.3679 9.84795 7.23274 9.81096 7.09758 9.77398C6.81469 9.69653 6.53186 9.61891 6.24906 9.54115C5.89105 9.44273 5.53294 9.34469 5.17479 9.24677C4.89545 9.17037 4.61615 9.09378 4.33688 9.01713C4.20513 8.981 4.07336 8.9449 3.94158 8.90886C3.57389 8.80823 3.20668 8.70602 2.83985 8.6023C2.64143 8.54703 2.44244 8.49411 2.2434 8.44115C2.10927 8.40405 1.97517 8.36687 1.84109 8.32963C1.77912 8.31371 1.71715 8.29779 1.6533 8.28139C1.23266 8.16173 1.04404 8.0225 0.797276 7.65956C0.668355 7.40171 0.688886 7.12507 0.723058 6.84315C0.921478 6.44631 1.16249 6.25518 1.57817 6.10968C1.64489 6.09181 1.71161 6.07394 1.78035 6.05554C1.89655 6.02396 1.89655 6.02396 2.0151 5.99174C2.09981 5.96933 2.18452 5.94691 2.27179 5.92382C2.41098 5.88621 2.55017 5.84861 2.68936 5.81098C2.84039 5.77027 2.9915 5.72984 3.14263 5.68947C3.46696 5.60283 3.79105 5.51535 4.1151 5.42769C4.17105 5.41255 4.227 5.39742 4.28464 5.38183C4.39997 5.35063 4.51529 5.31943 4.63062 5.28822C4.80963 5.23981 4.98865 5.19147 5.16768 5.14314C6.52533 4.77643 7.88091 4.40224 9.23644 4.02778C9.50705 3.95305 9.77769 3.8784 10.0483 3.80376C11.4627 3.4136 12.8768 3.02211 14.2902 2.6285C14.5074 2.56803 14.7246 2.5076 14.9418 2.44719C15.0477 2.41776 15.0477 2.41776 15.1556 2.38773C15.2964 2.34859 15.4371 2.30945 15.5778 2.27031C15.9864 2.15667 16.3949 2.04272 16.8033 1.92855C17.0549 1.85825 17.3067 1.78822 17.5585 1.71825C17.6748 1.68587 17.7911 1.65336 17.9074 1.62074C18.0664 1.57613 18.2255 1.53193 18.3847 1.48782C18.4735 1.46303 18.5623 1.43825 18.6538 1.41271C19.7364 1.14838 20.7428 1.50587 21.7844 1.79917ZM18.915 2.79489C18.8271 2.81893 18.7392 2.84297 18.6487 2.86774C18.5517 2.89481 18.4546 2.9219 18.3575 2.94899C18.2544 2.9774 18.1512 3.00577 18.0481 3.03411C17.7658 3.11177 17.4836 3.19001 17.2015 3.26835C16.9005 3.35182 16.5994 3.43475 16.2983 3.51773C15.781 3.66035 15.2638 3.80329 14.7467 3.94645C13.9277 4.17313 13.1085 4.39898 12.2893 4.62471C11.1961 4.92596 10.1031 5.22745 9.01005 5.52925C8.94464 5.54731 8.87924 5.56536 8.81185 5.58397C8.71452 5.61085 8.71452 5.61085 8.61521 5.63826C8.4859 5.67397 8.35658 5.70968 8.22727 5.74538C8.1642 5.76279 8.10112 5.78021 8.03614 5.79815C7.39441 5.97533 6.75265 6.15239 6.11087 6.32942C6.05871 6.34381 6.00654 6.3582 5.9528 6.37302C5.70314 6.44189 5.45349 6.51075 5.20383 6.57961C4.76486 6.70069 4.32589 6.82178 3.88692 6.94288C3.74627 6.98168 3.60562 7.02048 3.46497 7.05928C3.40797 7.07501 3.35097 7.09073 3.29225 7.10693C3.23286 7.12331 3.23286 7.12331 3.17228 7.14003C3.35521 7.32296 3.48322 7.34593 3.73245 7.41331C3.82032 7.43734 3.90819 7.46136 3.99873 7.48612C4.09695 7.51243 4.19517 7.53874 4.29339 7.56504C4.39689 7.59316 4.50038 7.62133 4.60386 7.64954C4.82857 7.71071 5.05336 7.77157 5.27822 7.8322C5.63992 7.92974 6.00143 8.02798 6.3629 8.12638C6.48838 8.16053 6.61386 8.19468 6.73934 8.22883C6.8025 8.24602 6.86566 8.26321 6.93073 8.28092C7.1269 8.33429 7.32308 8.38759 7.51927 8.44087C8.89434 8.81446 10.268 9.19314 11.6415 9.57242C11.9858 9.66749 12.3302 9.76241 12.6746 9.85728C13.8925 10.1928 15.1103 10.5288 16.326 10.8724C16.4721 10.9137 16.6181 10.9548 16.7642 10.9959C17.1947 11.1172 17.625 11.2389 18.0549 11.3622C18.2019 11.4036 18.3489 11.4451 18.4958 11.4865C18.5599 11.5052 18.624 11.5238 18.69 11.5431C18.7794 11.568 18.7794 11.568 18.8707 11.5934C18.9211 11.6078 18.9715 11.6223 19.0234 11.6371C19.5256 11.7215 19.9491 11.6491 20.4302 11.5107C20.4903 11.494 20.5505 11.4774 20.6125 11.4602C20.8095 11.4055 21.0061 11.3497 21.2028 11.294C21.34 11.2556 21.4773 11.2173 21.6146 11.1791C21.9745 11.0788 22.3341 10.9775 22.6937 10.8761C23.0612 10.7725 23.4289 10.6699 23.7967 10.5671C24.5172 10.3657 25.2374 10.1633 25.9574 9.96034C25.9574 9.91135 25.9574 9.86237 25.9574 9.8119C25.475 9.63081 24.9906 9.45562 24.5047 9.28416C24.34 9.22533 24.1759 9.16522 24.0122 9.10376C22.7149 8.6169 22.7149 8.6169 21.4 8.88475C20.0558 9.44278 18.1654 9.19811 16.8285 8.69862C16.3197 8.45747 15.8987 8.17491 15.641 7.65956C15.5993 7.20903 15.5631 6.74764 15.8303 6.36218C16.6166 5.53777 17.8596 5.30337 18.9481 5.26049C20.3488 5.22809 21.7152 5.30199 22.9145 6.10096C23.2328 6.44962 23.3726 6.72537 23.4062 7.19569C23.4145 7.30533 23.4145 7.30533 23.423 7.41719C23.4266 7.47268 23.4302 7.52817 23.434 7.58534C24.0619 7.80097 24.6903 8.01525 25.3193 8.22786C25.6113 8.32664 25.9032 8.42586 26.1948 8.52614C26.4764 8.62298 26.7585 8.71861 27.0408 8.81343C27.1482 8.84972 27.2554 8.88644 27.3625 8.92361C27.5131 8.9758 27.6641 9.0264 27.8154 9.07669C27.9011 9.10586 27.9868 9.13503 28.0751 9.16509C28.5739 9.26793 29.0432 9.12487 29.5233 8.99033C29.5798 8.97487 29.6362 8.95941 29.6944 8.94348C29.8794 8.8927 30.0642 8.84133 30.2491 8.78994C30.379 8.75412 30.509 8.71833 30.639 8.68257C30.911 8.60764 31.1829 8.53244 31.4547 8.45703C31.8006 8.36108 32.1467 8.26562 32.4927 8.17033C32.7612 8.0964 33.0296 8.02231 33.2979 7.94816C33.4254 7.91296 33.5528 7.87778 33.6802 7.84263C34.3999 7.64393 35.1165 7.43927 35.8285 7.21424C35.5545 7.05896 35.2618 6.98226 34.96 6.90008C34.9021 6.88406 34.8443 6.86805 34.7847 6.85154C34.591 6.79801 34.3973 6.74491 34.2035 6.69181C34.0652 6.65365 33.9268 6.61546 33.7884 6.57724C33.4134 6.47374 33.0382 6.3706 32.6631 6.26754C32.2702 6.15953 31.8774 6.05117 31.4847 5.94283C30.8333 5.76322 30.1819 5.58381 29.5304 5.40455C28.2401 5.0495 26.95 4.69373 25.66 4.33788C25.2543 4.226 24.8487 4.11421 24.443 4.00251C24.1892 3.9326 23.9353 3.86264 23.6815 3.79268C23.5597 3.75912 23.4379 3.72558 23.316 3.69207C22.6768 3.51616 22.0381 3.33848 21.4007 3.15602C21.2897 3.12435 21.1787 3.09268 21.0677 3.06101C20.8617 3.00224 20.6559 2.94284 20.4503 2.88305C20.3142 2.84416 20.3142 2.84416 20.1754 2.80448C20.0966 2.78166 20.0178 2.75885 19.9365 2.73534C19.563 2.65058 19.2816 2.69354 18.915 2.79489ZM17.0512 7.06581C17.0512 7.13928 17.0512 7.21276 17.0512 7.28846C18.2434 7.99405 19.7866 7.93084 21.1016 7.65463C21.4163 7.56886 21.671 7.45677 21.9496 7.28846C21.9496 7.21499 21.9496 7.14151 21.9496 7.06581C20.3853 6.36403 18.6155 6.36403 17.0512 7.06581ZM11.0395 10.851C11.0308 11.4381 11.0243 12.0252 11.0202 12.6124C11.0183 12.8851 11.0157 13.1578 11.0115 13.4305C11.0074 13.6943 11.0052 13.9579 11.0043 14.2217C11.0032 14.3701 11.0004 14.5185 10.9974 14.6669C10.9972 15.3086 11.0777 15.8582 11.5455 16.3311C13.1412 17.6802 16.0117 17.6149 17.9763 17.6199C18.0615 17.6203 18.0615 17.6203 18.1483 17.6206C18.4498 17.6217 18.7513 17.6224 19.0528 17.6227C19.2964 17.623 19.5399 17.624 19.7835 17.6257C23.8679 17.7716 23.8679 17.7716 27.4882 16.2504C27.9989 15.6591 28.0022 15.1434 27.9903 14.388C27.9898 14.2856 27.9894 14.1833 27.9891 14.081C27.9879 13.8135 27.985 13.5461 27.9817 13.2786C27.9787 13.005 27.9773 12.7313 27.9758 12.4577C27.9727 11.9221 27.9676 11.3865 27.9613 10.851C27.2358 10.9804 26.5317 11.1809 25.822 11.3769C25.686 11.4142 25.55 11.4516 25.4139 11.4889C25.0569 11.5869 24.7 11.6852 24.3431 11.7836C23.9122 11.9023 23.4812 12.0207 23.0502 12.1391C22.6517 12.2486 22.2532 12.3582 21.8548 12.468C21.6761 12.5172 21.4972 12.5659 21.3183 12.6147C21.1028 12.6735 20.888 12.7343 20.6736 12.7971C19.8609 13.0317 19.2403 13.0668 18.4289 12.834C18.3625 12.8158 18.2961 12.7976 18.2276 12.7788C18.0084 12.7185 17.7896 12.6568 17.5707 12.5951C17.4161 12.5523 17.2616 12.5096 17.1069 12.4671C16.6849 12.3506 16.2633 12.233 15.8417 12.1152C15.1089 11.9107 14.3756 11.708 13.6424 11.5053C13.3054 11.4121 12.9686 11.3183 12.6318 11.2244C12.4546 11.1752 12.2775 11.126 12.1003 11.0768C11.9777 11.0424 11.9777 11.0424 11.8527 11.0074C11.7779 10.9867 11.7031 10.966 11.626 10.9447C11.5608 10.9265 11.4956 10.9083 11.4283 10.8896C11.2544 10.8426 11.2544 10.8426 11.0395 10.851ZM31.4716 17.5097C31.3225 17.7723 31.1828 18.0388 31.0469 18.3085C31.0178 18.3661 30.9887 18.4237 30.9587 18.483C30.8978 18.6036 30.8372 18.7243 30.7766 18.845C30.6839 19.0296 30.5901 19.2136 30.4962 19.3976C30.437 19.5154 30.3778 19.6332 30.3187 19.7511C30.2906 19.8058 30.2625 19.8605 30.2336 19.9168C30.036 20.3008 30.036 20.3008 30.0395 20.7221C30.169 20.888 30.277 20.9369 30.4847 20.9642C30.6746 20.9731 30.863 20.9736 31.053 20.9717C31.1227 20.9717 31.1924 20.9717 31.2643 20.9718C31.4115 20.9716 31.5587 20.9709 31.7059 20.9697C31.9312 20.9679 32.1564 20.9681 32.3817 20.9686C32.5248 20.9682 32.6679 20.9677 32.8111 20.967C32.8784 20.9671 32.9458 20.9672 33.0151 20.9672C33.1095 20.9662 33.1095 20.9662 33.2058 20.9651C33.2609 20.9648 33.3161 20.9644 33.3729 20.9641C33.5519 20.9417 33.6714 20.8905 33.8246 20.7963C33.9127 20.6115 33.9079 20.5271 33.8441 20.3326C33.8142 20.272 33.7844 20.2115 33.7536 20.1492C33.7203 20.0807 33.687 20.0121 33.6527 19.9415C33.6161 19.8685 33.5794 19.7954 33.5417 19.7201C33.5047 19.6449 33.4678 19.5698 33.4298 19.4923C33.3529 19.3362 33.2756 19.1802 33.1979 19.0244C33.0876 18.8027 32.9788 18.5802 32.8705 18.3575C32.8051 18.2241 32.7397 18.0907 32.6742 17.9574C32.6439 17.8952 32.6136 17.8329 32.5824 17.7688C32.5538 17.7113 32.5251 17.6537 32.4956 17.5944C32.4709 17.5443 32.4462 17.4941 32.4207 17.4424C32.292 17.2273 32.1844 17.1047 31.9413 17.0343C31.6616 17.1076 31.6149 17.2696 31.4716 17.5097ZM17.3423 21.8153C17.0317 22.1821 16.8723 22.5863 16.8981 23.0692C16.9929 23.6012 17.307 24.0028 17.7218 24.335C18.0753 24.5726 18.4045 24.7299 18.8324 24.7299C18.8324 23.5298 18.8324 22.3296 18.8324 21.0931C18.2522 21.0931 17.7495 21.4262 17.3423 21.8153ZM20.1684 26.2885C20.1684 27.5131 20.1684 28.7377 20.1684 29.9994C20.8945 29.8179 21.4427 29.5914 21.8664 28.9551C22.1263 28.5078 22.1331 28.1219 22.0238 27.6244C21.7456 27.0448 21.209 26.6181 20.6137 26.3998C20.3956 26.3209 20.3956 26.3209 20.1684 26.2885Z" fill="#7C7A7A"/>
<path d="M27.8119 22.2105C28.0875 22.3257 28.1692 22.4031 28.2952 22.6781C28.326 22.7769 28.355 22.8762 28.3825 22.9759C28.3979 23.0293 28.4132 23.0827 28.4291 23.1377C28.8848 24.7801 28.9855 27.0327 28.183 28.5933C28.062 28.7504 28 28.8071 27.8055 28.8508C27.4929 28.855 27.3332 28.8427 27.0651 28.6675C26.8814 28.3831 26.8692 28.1754 26.9213 27.8511C26.9706 27.6461 27.026 27.4447 27.088 27.2432C27.4086 26.0488 27.3144 24.6295 26.9862 23.4479C26.9201 23.1703 26.8998 22.9399 26.9213 22.6558C27.1766 22.2644 27.3484 22.1741 27.8119 22.2105Z" fill="#7C7A7A"/>
<path d="M11.7817 22.2842C11.9673 22.4419 11.9673 22.4419 12.0786 22.6553C12.1015 22.9903 12.0627 23.2711 11.9729 23.5937C11.6021 24.9488 11.6335 26.5155 12.0786 27.8506C12.1286 28.367 12.1286 28.367 11.9348 28.667C11.6692 28.8405 11.5113 28.8569 11.2016 28.8575C10.9715 28.7978 10.8877 28.7061 10.7426 28.5186C10.6084 28.1574 10.5286 27.7811 10.4458 27.4053C10.4287 27.331 10.4117 27.2568 10.3942 27.1803C10.1253 25.7717 10.1523 23.9163 10.7426 22.5811C11.0457 22.2046 11.3182 22.1523 11.7817 22.2842Z" fill="#7C7A7A"/>
</g>
<defs>
<clipPath id="clip0_5245_13563">
<rect width="38" height="38" fill="white" transform="translate(0.5 0.3125)"/>
</clipPath>
</defs>
</svg>
