<svg width="39" height="39" viewBox="0 0 39 39" fill="none" xmlns="http://www.w3.org/2000/svg">
<g clip-path="url(#clip0_5245_13581)">
<path d="M23.136 9.4442C24.4329 10.4662 25.2733 11.8459 25.5544 13.4825C25.7382 15.0753 25.3975 16.6534 24.4719 17.9794C23.9613 18.6164 23.3807 19.1745 22.6906 19.6122C22.7369 19.6295 22.7831 19.6468 22.8307 19.6646C23.898 20.0859 24.9597 20.6044 25.8542 21.3285C26.0292 21.4666 26.2082 21.5798 26.4016 21.6903C26.4613 21.6444 26.4613 21.6444 26.5222 21.5975C27.0893 21.1796 27.6981 20.8795 28.3313 20.577C28.2759 20.5216 28.2205 20.4662 28.1634 20.4091C28.0963 20.3421 28.0293 20.275 27.9602 20.2059C27.9122 20.1595 27.8643 20.1131 27.8149 20.0653C27.4834 19.7226 27.2544 19.3626 27.0417 18.9396C27.017 18.8905 26.9922 18.8415 26.9667 18.791C26.5118 17.847 26.4254 16.5713 26.7654 15.5748C27.3072 14.2907 28.0463 13.3492 29.3628 12.7893C30.615 12.3571 31.875 12.408 33.0853 12.962C34.1922 13.5514 34.8741 14.4495 35.3191 15.6035C35.6771 16.796 35.4908 18.0888 34.9173 19.1747C34.6026 19.6987 34.2295 20.1279 33.7492 20.5028C33.7248 20.5518 33.7003 20.6008 33.675 20.6512C33.7276 20.6596 33.7803 20.6679 33.8345 20.6765C35.2809 21.0113 36.6443 22.3867 37.417 23.5971C37.8484 24.3077 38.1251 25.0489 38.3508 25.8465C38.3805 25.9467 38.3805 25.9467 38.4108 26.0489C38.5119 26.4545 38.5183 26.8684 38.5271 27.2845C38.529 27.3429 38.531 27.4012 38.533 27.4614C38.5338 27.7379 38.5307 27.8802 38.3676 28.1108C38.1941 28.2271 38.1118 28.2619 37.9055 28.2586C37.832 28.2598 37.832 28.2598 37.7571 28.261C37.5338 28.2017 37.4497 28.109 37.3117 27.9247C37.2607 27.6777 37.2607 27.6777 37.2375 27.3866C37.0941 25.9711 36.6684 24.6048 35.6789 23.5458C35.6242 23.4843 35.5695 23.4229 35.5131 23.3596C34.4755 22.2508 32.9658 21.5184 31.4403 21.4499C30.1769 21.4194 28.6227 21.5956 27.6197 22.4598C27.5323 22.5467 27.4489 22.6377 27.3664 22.7294C27.4271 22.7997 27.4271 22.7997 27.4891 22.8714C29.0309 24.7005 29.9393 26.9546 30.0012 29.358C30.0035 29.4099 30.0058 29.4619 30.0081 29.5153C30.0082 29.8 29.97 29.921 29.7927 30.1475C29.593 30.2997 29.593 30.2997 29.3286 30.3368C29.0668 30.2987 28.958 30.2654 28.7766 30.077C28.7128 29.8858 28.6878 29.7496 28.6731 29.5523C28.4621 26.9806 27.4856 24.6 25.4872 22.8839C23.4966 21.2395 21.0948 20.5676 18.5344 20.7254C18.0293 20.7813 17.5401 20.8902 17.05 21.0223C17.0011 21.035 16.9521 21.0477 16.9017 21.0608C15.7093 21.3799 14.5761 22.0099 13.636 22.8036C13.5623 22.8652 13.4886 22.9268 13.4127 22.9903C11.6906 24.475 10.6402 26.6458 10.3703 28.8895C10.3534 29.1391 10.3385 29.3883 10.3289 29.6384C10.2918 29.8828 10.2183 30.0266 10.0735 30.2254C9.84086 30.3417 9.58128 30.3629 9.33127 30.2997C9.10703 30.0939 9.04005 29.9689 8.99758 29.6659C8.99708 29.5648 8.99865 29.4637 9.00193 29.3627C9.00313 29.3074 9.00432 29.2522 9.00555 29.1952C9.08076 26.9955 9.88544 24.8859 11.261 23.1747C11.3868 23.0029 11.5094 22.8292 11.6321 22.6551C10.2862 21.6881 8.67516 21.2812 7.03165 21.5018C5.66697 21.7466 4.53097 22.3509 3.54221 23.3231C3.49026 23.3741 3.43831 23.4251 3.38479 23.4776C2.47566 24.4328 1.93564 25.7347 1.80416 27.0366C1.79848 27.0897 1.79281 27.1428 1.78696 27.1975C1.77603 27.3029 1.76633 27.4084 1.75801 27.5141C1.73325 27.7579 1.69917 27.908 1.55164 28.1062C1.37948 28.2289 1.30156 28.2619 1.09299 28.2586C1.04401 28.2594 0.995024 28.2602 0.944556 28.261C0.717759 28.2007 0.636067 28.1152 0.499243 27.9247C0.468698 27.7102 0.456912 27.5309 0.462134 27.317C0.463031 27.258 0.463928 27.1991 0.464852 27.1383C0.522964 25.3585 1.34175 23.7492 2.50315 22.4325C2.54314 22.3863 2.58313 22.3401 2.62433 22.2924C3.28969 21.5753 4.20105 21.0219 5.10081 20.6512C5.17428 20.6512 5.24776 20.6512 5.32346 20.6512C5.27448 20.6038 5.22549 20.5563 5.17502 20.5074C4.10629 19.4296 3.52175 18.3266 3.52391 16.7927C3.5409 15.6352 3.99303 14.5802 4.80393 13.7489C5.75097 12.9197 6.87762 12.4243 8.15479 12.4657C9.32398 12.5842 10.4716 13.0225 11.2891 13.8967C12.2405 15.0752 12.4856 16.2753 12.3742 17.7567C12.1691 18.9315 11.4898 19.76 10.6672 20.577C10.7435 20.6138 10.8197 20.6507 10.8983 20.6886C11.515 20.9898 12.1021 21.3045 12.6711 21.6903C12.7549 21.6215 12.7549 21.6215 12.8404 21.5514C13.6988 20.8616 14.6279 20.3418 15.6399 19.909C15.7683 19.852 15.8966 19.7948 16.0249 19.7374C16.1192 19.6956 16.2135 19.6539 16.3078 19.6122C16.2575 19.5779 16.2072 19.5437 16.1553 19.5084C14.7411 18.5172 13.8549 17.2257 13.4875 15.5301C13.2157 13.9236 13.5316 12.2605 14.45 10.9051C15.4103 9.63647 16.6611 8.72991 18.2375 8.40514C18.3025 8.39155 18.3674 8.37796 18.4344 8.36397C20.1178 8.14004 21.7319 8.47081 23.136 9.4442ZM16.3078 10.7801C16.252 10.8281 16.1961 10.876 16.1385 10.9254C15.2473 11.7479 14.7382 12.916 14.6608 14.1179C14.6126 15.4973 15.0794 16.7319 16.0066 17.7529C16.8856 18.6643 18.095 19.1948 19.356 19.2475C20.7114 19.2549 21.9233 18.7519 22.9133 17.8309C23.8171 16.9079 24.3154 15.7125 24.3513 14.4215C24.3123 13.0642 23.8261 11.867 22.8391 10.9286C22.7893 10.88 22.7396 10.8314 22.6883 10.7813C21.6947 9.85865 20.4358 9.54206 19.1137 9.56915C18.0502 9.61948 17.1013 10.0914 16.3078 10.7801ZM5.58758 14.79C4.94547 15.6027 4.7021 16.4267 4.80393 17.4598C5.00437 18.4009 5.51054 19.1251 6.28831 19.6864C7.08688 20.1041 7.93977 20.2886 8.82566 20.0436C9.79613 19.7118 10.4296 19.1379 10.9145 18.242C11.2325 17.5117 11.2418 16.5717 10.9919 15.8177C10.8347 15.457 10.6294 15.1569 10.3703 14.8622C10.3331 14.8172 10.2959 14.7722 10.2576 14.7259C9.67642 14.0783 8.85586 13.7951 8.00925 13.7257C7.11117 13.756 6.19862 14.1232 5.58758 14.79ZM28.4009 15.1312C27.8594 15.8867 27.787 16.7054 27.886 17.6083C28.0024 18.1642 28.2562 18.5952 28.6281 19.0184C28.6654 19.0634 28.7026 19.1083 28.7409 19.1547C29.2866 19.7627 30.0673 20.0684 30.8672 20.1476C31.7257 20.1856 32.5199 19.8519 33.1648 19.306C33.8562 18.657 34.1949 17.8932 34.227 16.9496C34.2053 16.0778 33.8988 15.3352 33.3013 14.7021C32.6094 14.0481 31.7907 13.7019 30.8353 13.7257C29.8056 13.8432 29.0443 14.3437 28.4009 15.1312Z" fill="#7C7A7A"/>
</g>
<defs>
<clipPath id="clip0_5245_13581">
<rect width="38" height="38" fill="white" transform="translate(0.5 0.3125)"/>
</clipPath>
</defs>
</svg>
