<svg width="39" height="39" viewBox="0 0 39 39" fill="none" xmlns="http://www.w3.org/2000/svg">
<g clip-path="url(#clip0_5245_13546)">
<path d="M26.4016 8.66871C26.4708 8.72057 26.54 8.77242 26.6112 8.82585C28.5061 10.3111 29.4666 12.4399 29.7911 14.7832C29.8146 15.0395 29.8137 15.279 29.7994 15.5357C29.7165 17.2058 30.3318 18.4514 31.064 19.9205C31.2692 20.3324 31.4621 20.7489 31.648 21.1699C31.6889 21.2559 31.6889 21.2559 31.7306 21.3436C31.906 21.7371 31.9181 22.0535 31.8196 22.4734C31.682 22.7899 31.5322 22.9154 31.2258 23.0672C31.0216 23.1129 30.8171 23.135 30.6089 23.1553C30.5264 23.1644 30.5264 23.1644 30.4423 23.1737C30.3078 23.1885 30.1731 23.2021 30.0383 23.2156C30.0403 23.3039 30.0422 23.3922 30.0442 23.4831C30.051 23.8137 30.0552 24.1443 30.0587 24.4749C30.0606 24.6174 30.0631 24.76 30.0663 24.9025C30.0863 25.8073 30.0934 26.4824 29.4956 27.2095C28.9996 27.6132 28.6106 27.8238 27.9625 27.8328C27.8594 27.8349 27.7563 27.837 27.6532 27.8392C27.491 27.8422 27.3288 27.845 27.1665 27.8469C27.0097 27.849 26.853 27.8524 26.6962 27.856C26.6024 27.8575 26.5086 27.8589 26.4119 27.8605C26.1861 27.8723 26.1861 27.8723 26.0547 27.9778C25.9158 28.17 25.9292 28.3075 25.9301 28.5434C25.9297 28.6756 25.9297 28.6756 25.9293 28.8106C25.9303 28.9536 25.9303 28.9536 25.9314 29.0995C25.9307 29.2489 25.93 29.3984 25.9292 29.5478C25.9275 29.9167 25.9282 30.2855 25.9296 30.6544C25.9302 30.8614 25.9299 31.0683 25.9285 31.2752C25.9274 31.4702 25.9277 31.6653 25.9297 31.8603C25.9286 31.9929 25.9286 31.9929 25.9275 32.1282C25.9278 32.2449 25.9278 32.2449 25.928 32.3639C25.8656 32.6399 25.745 32.7145 25.511 32.864C25.4375 32.8885 25.364 32.913 25.2883 32.9382C25.2918 32.9841 25.2952 33.0299 25.2988 33.0771C25.3144 33.4445 25.3007 33.6936 25.1213 34.0191C24.9996 34.2568 24.9996 34.2568 25.0378 34.5125C25.094 34.6237 25.1518 34.7342 25.2109 34.8439C25.3866 35.2353 25.3265 35.6333 25.2048 36.0322C24.9223 36.5314 24.6543 36.8427 24.1008 37.0203C24.0274 37.0203 23.9539 37.0203 23.8782 37.0203C23.8751 37.0784 23.8721 37.1366 23.8689 37.1965C23.7313 37.7666 23.4181 38.2119 22.9444 38.5528C22.8851 38.5859 22.8259 38.619 22.7649 38.6531C22.7221 38.6773 22.6793 38.7015 22.6352 38.7264C22.1358 38.9803 21.6854 38.9932 21.1324 38.9894C20.9956 38.9898 20.9956 38.9898 20.856 38.9902C20.664 38.9905 20.4719 38.9899 20.2799 38.9887C19.9875 38.9871 19.6952 38.9887 19.4029 38.9905C19.2155 38.9904 19.0282 38.99 18.8409 38.9894C18.7543 38.99 18.6677 38.9906 18.5784 38.9912C17.7379 38.9817 17.1554 38.7516 16.5459 38.1718C16.2589 37.8448 16.011 37.4647 16.011 37.0203C15.9498 37.0172 15.8885 37.0142 15.8254 37.011C15.4289 36.9119 15.1177 36.6946 14.8707 36.3662C14.624 35.95 14.5485 35.5721 14.6008 35.0906C14.6499 34.9332 14.7076 34.7853 14.7748 34.6348C14.8722 34.3589 14.8139 34.1478 14.7122 33.8892C14.6202 33.6341 14.5934 33.4404 14.6101 33.1702C14.6217 33.0077 14.6217 33.0077 14.6008 32.864C14.4286 32.7136 14.4286 32.7136 14.2297 32.6414C14.1123 32.4065 14.1423 32.1529 14.1399 31.8948C14.1378 31.7698 14.1357 31.6448 14.1335 31.5198C14.1305 31.3243 14.1277 31.1288 14.1257 30.9333C14.0992 28.5448 13.5388 26.537 12.1799 24.5606C11.3971 23.4099 10.79 22.1671 10.3704 20.8406C10.3527 20.7849 10.335 20.7291 10.3168 20.6717C9.51901 18.0996 9.39412 15.2239 10.593 12.7507C10.6136 12.7079 10.6341 12.6651 10.6553 12.621C11.0035 11.9048 11.4207 11.2845 11.929 10.6726C11.9786 10.6116 12.0283 10.5505 12.0794 10.4877C12.4536 10.0454 12.8815 9.68988 13.3391 9.33668C13.3999 9.28789 13.4606 9.2391 13.5232 9.18882C16.9821 6.51825 22.8249 5.97722 26.4016 8.66871ZM17.9407 8.52028C17.8836 8.53417 17.8264 8.54807 17.7676 8.56239C16.9887 8.7568 16.2797 9.04697 15.5657 9.4109C15.4933 9.44678 15.4208 9.48266 15.3462 9.51962C13.5053 10.4704 12.0328 12.1462 11.3694 14.1145C11.0885 15.0111 10.9357 15.8955 10.9409 16.8374C10.9413 16.918 10.9418 16.9987 10.9422 17.0817C10.9816 19.7324 12.0394 22.1498 13.5006 24.3141C15.0457 26.6059 15.2561 28.8211 15.343 31.6023C18.429 31.6023 21.5151 31.6023 24.6946 31.6023C24.7313 29.7287 24.7313 29.7287 24.7688 27.8171C25.1334 26.9665 25.1334 26.9665 25.6647 26.7495C25.8925 26.6769 26.1083 26.6751 26.3462 26.6737C26.3955 26.6729 26.4448 26.6721 26.4956 26.6713C26.7039 26.6679 26.9122 26.667 27.1206 26.6659C27.2738 26.6648 27.4269 26.6623 27.5801 26.6598C27.6709 26.6593 27.7616 26.6587 27.8551 26.6582C28.1989 26.6195 28.4544 26.5168 28.6885 26.2586C28.8314 26.0178 28.8607 25.8196 28.8649 25.5455C28.8661 25.4764 28.8674 25.4073 28.8687 25.3361C28.8697 25.2616 28.8707 25.1872 28.8717 25.1105C28.8738 24.9956 28.8738 24.9956 28.8759 24.8784C28.8802 24.6334 28.8841 24.3884 28.8879 24.1433C28.893 23.8209 28.8984 23.4985 28.9042 23.1762C28.9052 23.1017 28.9062 23.0273 28.9072 22.9505C28.9085 22.8814 28.9097 22.8123 28.911 22.7411C28.9119 22.6803 28.9129 22.6195 28.9138 22.5569C28.9251 22.3992 28.9251 22.3992 28.9993 22.1765C29.7708 22.0663 29.7708 22.0663 30.5579 21.9539C30.4656 21.6771 30.3785 21.4251 30.261 21.162C30.2323 21.0973 30.2035 21.0327 30.1739 20.966C30.1278 20.863 30.1278 20.863 30.0807 20.758C30.0486 20.686 30.0166 20.6141 29.9836 20.54C29.8814 20.3108 29.779 20.0817 29.6765 19.8526C29.6082 19.6993 29.5399 19.5461 29.4715 19.3929C29.3454 19.1099 29.2191 18.827 29.0927 18.5441C29.0647 18.4809 29.0368 18.4178 29.0081 18.3527C28.9535 18.2317 28.897 18.1115 28.8386 17.9922C28.6607 17.622 28.5919 17.335 28.5934 16.9169C28.5926 16.8079 28.5917 16.6989 28.5909 16.5899C28.591 16.5341 28.591 16.4782 28.5911 16.4207C28.5902 14.0505 27.9992 11.9718 26.3413 10.2088C24.8286 8.76879 22.815 8.19289 20.7703 8.19557C20.6952 8.19559 20.6952 8.19559 20.6186 8.19562C19.702 8.19847 18.831 8.2981 17.9407 8.52028ZM15.8626 33.0867C15.8193 33.3093 15.8193 33.3093 15.8626 33.532C15.9943 33.6866 16.1053 33.7472 16.3068 33.775C16.4993 33.7838 16.6906 33.7847 16.8834 33.7835C16.9568 33.7838 17.0302 33.7842 17.1058 33.7846C17.3485 33.7856 17.5912 33.785 17.834 33.7842C18.0026 33.7844 18.1712 33.7846 18.3398 33.7849C18.6932 33.7852 19.0465 33.7847 19.3999 33.7837C19.8531 33.7824 20.3064 33.7831 20.7596 33.7845C21.1078 33.7853 21.4559 33.785 21.804 33.7844C21.9712 33.7843 22.1383 33.7845 22.3054 33.785C22.5389 33.7856 22.7723 33.7847 23.0058 33.7835C23.0751 33.7839 23.1443 33.7844 23.2157 33.7848C23.5829 33.7833 23.5829 33.7833 23.9188 33.6502C24.0523 33.5038 24.1008 33.4352 24.1008 33.2351C24.0047 33.0283 24.0047 33.0283 23.804 32.864C23.5584 32.808 23.3162 32.8149 23.0652 32.8184C22.9903 32.8179 22.9153 32.8175 22.8381 32.8171C22.5901 32.8162 22.3423 32.818 22.0943 32.82C21.9222 32.8201 21.7501 32.8201 21.578 32.8199C21.2173 32.8201 20.8567 32.8215 20.496 32.8238C20.0331 32.8267 19.5702 32.8271 19.1073 32.8265C18.752 32.8263 18.3966 32.8272 18.0413 32.8284C17.8706 32.829 17.6999 32.8292 17.5292 32.8291C17.2909 32.8293 17.0526 32.8309 16.8143 32.8329C16.708 32.8325 16.708 32.8325 16.5995 32.8322C16.5022 32.8335 16.5022 32.8335 16.403 32.8348C16.3467 32.835 16.2904 32.8353 16.2323 32.8356C16.0435 32.8721 15.9776 32.9348 15.8626 33.0867ZM15.8626 35.1648C15.8131 35.3875 15.8131 35.3875 15.8626 35.6101C15.9947 35.7651 16.1061 35.8253 16.308 35.8535C16.5023 35.863 16.6955 35.8645 16.8902 35.8639C17.0014 35.8649 17.0014 35.8649 17.1148 35.8658C17.3599 35.8676 17.6051 35.8677 17.8502 35.8676C18.0205 35.8681 18.1907 35.8687 18.361 35.8693C18.7179 35.8703 19.0747 35.8704 19.4316 35.87C19.8894 35.8695 20.3471 35.8718 20.8048 35.8748C21.1564 35.8767 21.508 35.8769 21.8595 35.8766C22.0283 35.8768 22.1971 35.8775 22.3659 35.8788C22.6017 35.8805 22.8374 35.8797 23.0732 35.8784C23.1781 35.8799 23.1781 35.8799 23.2852 35.8814C23.6848 35.8809 23.6848 35.8809 23.9981 35.6444C24.032 35.5841 24.0659 35.5238 24.1008 35.4617C24.0081 35.1905 23.9768 35.1069 23.7297 34.9421C23.5816 34.9197 23.5816 34.9197 23.4176 34.9228C23.354 34.9223 23.2904 34.9217 23.2249 34.9212C23.1554 34.9214 23.0859 34.9216 23.0142 34.9218C22.9409 34.9214 22.8675 34.921 22.7918 34.9206C22.5487 34.9196 22.3056 34.9197 22.0624 34.9198C21.8937 34.9195 21.725 34.9192 21.5563 34.9189C21.2025 34.9183 20.8487 34.9183 20.4949 34.9187C20.041 34.9191 19.5872 34.9179 19.1334 34.9162C18.785 34.9151 18.4365 34.915 18.088 34.9152C17.9207 34.9152 17.7533 34.9148 17.586 34.9141C17.3522 34.9132 17.1184 34.9137 16.8845 34.9145C16.8152 34.9139 16.7458 34.9134 16.6743 34.9128C16.2189 34.9068 16.2189 34.9068 15.8626 35.1648ZM17.3469 37.0203C17.5077 37.3418 17.6573 37.4742 17.9407 37.6882C18.1517 37.7586 18.2872 37.773 18.5062 37.7756C18.5756 37.7766 18.645 37.7775 18.7165 37.7785C18.7914 37.779 18.8663 37.7796 18.9435 37.7801C19.0209 37.7807 19.0982 37.7813 19.1779 37.782C19.3418 37.783 19.5057 37.7838 19.6696 37.7844C19.9191 37.7856 20.1686 37.7889 20.4182 37.7922C20.5776 37.7929 20.737 37.7936 20.8964 37.7941C20.9705 37.7954 21.0447 37.7967 21.1211 37.798C21.5671 37.7966 21.965 37.7589 22.3196 37.4656C22.4176 37.3186 22.5155 37.1717 22.6165 37.0203C20.8775 37.0203 19.1386 37.0203 17.3469 37.0203Z" fill="#7C7A7A"/>
<path d="M21.9484 9.93366C22.087 10.0551 22.087 10.0551 22.1711 10.2305C22.1814 10.4723 22.1727 10.7023 22.1558 10.943C22.1461 11.1073 22.1461 11.1073 22.1711 11.3438C22.3461 11.5312 22.4246 11.5636 22.6813 11.5804C22.9839 11.4654 23.0867 11.2973 23.2623 11.033C23.3927 10.8507 23.4773 10.8294 23.6972 10.7918C24.4836 10.8919 25.2059 11.723 25.6714 12.3178C26.2889 13.1267 26.2889 13.1267 26.2766 13.5756C26.2397 13.8002 26.1363 13.8843 25.9562 14.0157C25.8904 14.0478 25.8246 14.08 25.7568 14.1131C25.5596 14.2308 25.5596 14.2307 25.5063 14.4935C25.4918 14.753 25.4918 14.753 25.6037 14.9434C25.8916 15.1005 26.1109 15.0355 26.4288 14.9936C26.6242 14.9805 26.6242 14.9805 26.8515 15.0733C27.1791 15.3692 27.207 15.6693 27.2299 16.0915C27.2333 16.3428 27.2354 16.594 27.2365 16.8453C27.2388 16.9744 27.2388 16.9744 27.2411 17.1062C27.2437 17.6704 27.2198 18.24 26.9953 18.7657C26.7965 18.9564 26.7245 18.9864 26.4433 19.0069C26.1789 18.9883 26.1789 18.9883 25.9794 18.942C25.7694 18.9079 25.6849 18.9445 25.5109 19.0626C25.407 19.2703 25.4179 19.4266 25.4367 19.6563C25.5543 19.8234 25.6775 19.8898 25.8542 19.9949C26.0304 20.1016 26.0304 20.1016 26.1047 20.2501C26.1468 20.5505 26.1647 20.7389 26.0122 21.0053C25.8768 21.1814 25.7334 21.3465 25.5851 21.5118C25.535 21.5724 25.4849 21.6331 25.4332 21.6956C24.9633 22.2495 24.2618 22.9911 23.5116 23.1028C23.2028 23.0587 23.1119 22.9345 22.9132 22.6993C22.8658 22.6304 22.8183 22.5615 22.7694 22.4905C22.6267 22.3063 22.6267 22.3063 22.3891 22.2911C22.1755 22.3125 22.1755 22.3125 22.0365 22.4163C21.8608 22.6845 21.8686 22.9169 21.9159 23.2235C21.9484 23.5157 21.9484 23.5157 21.8974 23.692C21.6762 23.9658 21.3914 23.9876 21.0578 24.0352C20.7332 24.0528 20.4087 24.0524 20.0837 24.0538C19.9545 24.0561 19.9545 24.0561 19.8227 24.0584C19.2586 24.0609 18.689 24.0371 18.1632 23.8126C17.9781 23.6192 17.9402 23.5586 17.9429 23.2861C17.9661 23.1175 17.9893 22.949 18.0125 22.7805C18.033 22.5515 18.033 22.5515 17.9217 22.3749C17.7898 22.2294 17.7898 22.2294 17.537 22.2122C17.2654 22.228 17.2654 22.228 17.1103 22.421C17.0659 22.4883 17.0215 22.5557 16.9757 22.6251C16.7932 22.8662 16.7111 22.9153 16.4098 22.9776C15.9594 22.9566 15.6619 22.6142 15.3429 22.3282C15.2304 22.2432 15.2304 22.2432 15.1156 22.1566C14.6018 21.6865 13.9507 21.0168 13.8122 20.3104C13.892 19.9513 14.1461 19.7881 14.4384 19.5867C14.6214 19.4443 14.6214 19.4443 14.6425 19.211C14.5912 18.9373 14.5236 18.859 14.3039 18.6915C14.0889 18.6828 14.0889 18.6828 13.8632 18.7286C13.4392 18.7771 13.4392 18.7771 13.1813 18.6636C12.8227 18.1615 12.8675 17.4843 12.8705 16.8917C12.8708 16.8099 12.8711 16.728 12.8715 16.6438C12.8911 15.2254 12.8911 15.2254 13.2428 14.8431C13.5389 14.695 13.8303 14.786 14.1485 14.8298C14.378 14.8511 14.378 14.8511 14.5526 14.7344C14.7128 14.5708 14.7381 14.4656 14.7492 14.2383C14.6627 13.9211 14.4227 13.8116 14.1554 13.6446C14.007 13.4962 14.007 13.4962 13.9606 13.2781C13.9864 12.5851 14.7784 11.9338 15.2565 11.4786C16.1061 10.7026 16.1061 10.7026 16.6183 10.6529C16.8954 10.6833 17.0029 10.7772 17.1984 10.9727C17.3283 11.1722 17.3283 11.1722 17.4211 11.3438C17.5075 11.4461 17.5075 11.4461 17.7458 11.4412C18.0129 11.4469 18.0129 11.4469 18.1453 11.2908C18.2588 11.0819 18.2435 10.9901 18.2004 10.7593C18.1549 10.4169 18.171 10.2202 18.3859 9.93366C19.2433 9.43353 21.0632 9.57475 21.9484 9.93366ZM19.4992 10.9727C19.4645 11.1275 19.4645 11.1275 19.4435 11.3113C19.3571 11.7796 19.156 12.122 18.7712 12.4087C18.3106 12.6851 17.8493 12.7612 17.3239 12.6403C16.9665 12.5294 16.6818 12.3832 16.382 12.1602C16.273 12.2506 16.165 12.342 16.0573 12.4339C15.997 12.4847 15.9367 12.5355 15.8746 12.5878C15.7018 12.7666 15.6199 12.8825 15.5656 13.1251C15.6288 13.296 15.6288 13.296 15.7419 13.4591C16.0115 13.9541 16.038 14.4668 15.8874 15.0098C15.6949 15.4475 15.3552 15.7447 14.9394 15.9686C14.679 16.0384 14.4237 16.0665 14.1554 16.0938C14.0651 16.5342 14.0117 16.9985 14.1554 17.4298C14.2922 17.4761 14.2922 17.4761 14.4569 17.4947C14.8953 17.5811 15.2498 17.7405 15.534 18.0951C15.83 18.5506 15.9248 18.9664 15.8625 19.5079C15.7473 19.8973 15.5968 20.229 15.3429 20.5469C15.4615 20.6819 15.5806 20.8164 15.7001 20.9505C15.7504 21.008 15.7504 21.008 15.8017 21.0666C15.9686 21.253 16.0662 21.3571 16.3078 21.4376C16.4547 21.3675 16.4547 21.3675 16.6 21.2613C17.0032 20.9832 17.3837 20.9395 17.8664 20.9923C18.3986 21.1251 18.7547 21.3468 19.0539 21.8087C19.2199 22.1169 19.2415 22.4293 19.2765 22.7735C19.5451 22.863 19.7905 22.8558 20.0697 22.8524C20.1479 22.8519 20.1479 22.8519 20.2276 22.8513C20.3559 22.8505 20.4842 22.8491 20.6125 22.8477C20.6197 22.7993 20.627 22.7509 20.6345 22.701C20.7318 22.1322 20.9015 21.7363 21.3729 21.3712C21.8057 21.0984 22.2299 21.0267 22.7329 21.0972C23.1076 21.1876 23.4119 21.3742 23.7297 21.586C24.1878 21.1916 24.1878 21.1916 24.6203 20.7696C24.5458 20.6201 24.471 20.4711 24.3924 20.3237C24.1813 19.9 24.099 19.5342 24.175 19.0626C24.2555 18.8288 24.3598 18.6145 24.4718 18.3946C24.4963 18.3211 24.5208 18.2476 24.5461 18.1719C24.6759 18.0977 24.6759 18.0977 24.8429 18.0235C24.895 17.9868 24.947 17.95 25.0006 17.9122C25.2627 17.7754 25.5093 17.7367 25.7997 17.6915C25.8513 17.6786 25.903 17.6657 25.9562 17.6524C26.0745 17.4158 26.038 17.1604 26.0351 16.9009C26.0346 16.817 26.0346 16.817 26.0341 16.7313C26.0332 16.5931 26.0319 16.4548 26.0304 16.3165C25.9604 16.3069 25.9604 16.3069 25.889 16.297C25.3865 16.2146 24.924 16.0893 24.5971 15.6729C24.307 15.1907 24.1554 14.7043 24.2889 14.1467C24.3995 13.7867 24.5443 13.501 24.7687 13.1993C24.6644 13.0764 24.559 12.9545 24.4533 12.8328C24.3655 12.7308 24.3655 12.7308 24.2759 12.6267C24.0716 12.4268 24.0716 12.4268 23.8039 12.3829C23.6727 12.4532 23.5413 12.5238 23.4165 12.605C23.025 12.8265 22.506 12.8154 22.078 12.7145C21.6012 12.5481 21.3158 12.3276 21.0763 11.8773C20.9312 11.5702 20.8571 11.3105 20.8351 10.9727C20.5816 10.8956 20.3479 10.8886 20.0837 10.8892C20.0054 10.889 19.9271 10.8888 19.8465 10.8886C19.6497 10.885 19.6497 10.885 19.4992 10.9727Z" fill="#7C7A7A"/>
<path d="M22.4097 13.9821C23.051 14.503 23.4227 15.1577 23.6557 15.9419C23.67 15.9866 23.6842 16.0312 23.6989 16.0773C23.8881 17.0622 23.7018 18.0484 23.1872 18.9014C22.6342 19.7063 21.8809 20.2877 20.9125 20.511C19.6647 20.6906 18.6209 20.4162 17.6046 19.6618C16.942 19.0925 16.5783 18.2853 16.3962 17.4448C16.3916 17.3652 16.387 17.2856 16.3823 17.2036C16.3786 17.1556 16.3748 17.1076 16.371 17.0581C16.3273 16.0892 16.6628 15.1744 17.2868 14.4436C18.6833 12.9757 20.7645 12.7961 22.4097 13.9821ZM18.0708 15.4456C17.676 16.0519 17.558 16.6324 17.644 17.352C17.7999 17.9976 18.1864 18.5941 18.7341 18.9756C19.3581 19.32 19.9817 19.4132 20.6789 19.2756C21.3723 19.0709 21.9187 18.629 22.2664 17.9951C22.5715 17.3392 22.6237 16.7507 22.3963 16.057C22.1167 15.3653 21.6118 14.849 20.9328 14.5364C19.766 14.1637 18.8633 14.631 18.0708 15.4456Z" fill="#7C7A7A"/>
<path d="M19.5421 0.915834C19.6272 0.916982 19.6272 0.916982 19.714 0.918154C19.9072 0.960848 19.9738 1.0206 20.0941 1.1756C20.166 1.39134 20.1789 1.53357 20.1814 1.7583C20.1824 1.83138 20.1833 1.90446 20.1843 1.97975C20.1849 2.05861 20.1854 2.13747 20.186 2.21872C20.1866 2.29989 20.1872 2.38107 20.1878 2.4647C20.1888 2.63652 20.1896 2.80833 20.1902 2.98015C20.1915 3.24291 20.1947 3.50559 20.198 3.76833C20.1988 3.93522 20.1994 4.10212 20.1999 4.26901C20.2012 4.34757 20.2025 4.42613 20.2038 4.50707C20.2022 5.05009 20.2022 5.05009 20.0341 5.3429C19.8095 5.53262 19.6426 5.54931 19.3519 5.55451C19.1531 5.49542 19.0827 5.45102 18.9743 5.275C18.896 5.08332 18.8868 4.94068 18.885 4.73391C18.8841 4.65935 18.8831 4.58479 18.8822 4.50797C18.882 4.42787 18.8818 4.34777 18.8817 4.26525C18.8812 4.18253 18.8807 4.09981 18.8802 4.01459C18.8794 3.83973 18.8791 3.66486 18.8791 3.48999C18.8788 3.22251 18.8761 2.95512 18.8732 2.68766C18.8728 2.51772 18.8725 2.34778 18.8724 2.17784C18.8708 2.05792 18.8708 2.05792 18.8691 1.93557C18.8725 1.38144 18.8725 1.38144 19.0467 1.08788C19.228 0.931812 19.3057 0.906237 19.5421 0.915834Z" fill="#7C7A7A"/>
<path d="M11.8559 3.03091C12.1429 3.2762 12.324 3.53906 12.5073 3.86674C12.5321 3.91058 12.5569 3.95442 12.5824 3.99959C12.6609 4.1387 12.7385 4.27826 12.8161 4.41787C12.8934 4.55563 12.9708 4.69329 13.0483 4.83092C13.0987 4.92057 13.149 5.01028 13.1992 5.10005C13.3833 5.42841 13.5762 5.75047 13.7757 6.06968C13.9008 6.29667 13.9391 6.48399 13.934 6.74185C13.8342 6.96061 13.7792 7.07901 13.5629 7.18716C13.3171 7.21499 13.3171 7.21499 13.0434 7.18716C12.7564 6.94187 12.5753 6.67901 12.392 6.35133C12.3672 6.30749 12.3424 6.26365 12.3169 6.21848C12.2384 6.07937 12.1608 5.93981 12.0832 5.8002C12.0059 5.66244 11.9285 5.52478 11.8511 5.38715C11.8006 5.2975 11.7503 5.20779 11.7001 5.11802C11.516 4.78966 11.3231 4.4676 11.1236 4.1484C10.9985 3.9214 10.9602 3.73408 10.9653 3.47622C11.169 3.02998 11.376 2.98211 11.8559 3.03091Z" fill="#7C7A7A"/>
<path d="M27.8122 3.10414C27.98 3.21984 28.0261 3.30414 28.0998 3.49378C28.1252 4.051 27.6539 4.6502 27.3901 5.11732C27.3437 5.19975 27.2974 5.28217 27.2496 5.3671C26.2478 7.13991 26.2478 7.13991 25.9336 7.24183C25.6928 7.26423 25.574 7.22853 25.363 7.11195C25.1875 6.94248 25.1439 6.85272 25.1211 6.60863C25.1435 6.33061 25.2186 6.18229 25.3604 5.94329C25.4073 5.86327 25.4541 5.78324 25.5024 5.70079C25.5528 5.61693 25.6033 5.53307 25.6552 5.44666C25.7066 5.35992 25.7578 5.27313 25.809 5.1863C25.91 5.01521 26.0117 4.84455 26.1137 4.67404C26.233 4.4745 26.3512 4.27435 26.4685 4.07362C27.1378 2.93553 27.1378 2.93553 27.8122 3.10414Z" fill="#7C7A7A"/>
<path d="M5.9931 8.81674C6.2269 8.91354 6.44239 9.03785 6.66107 9.16464C6.72473 9.20072 6.7884 9.23679 6.85399 9.27396C7.06243 9.39265 7.26994 9.51288 7.47748 9.63315C7.55173 9.67558 7.62598 9.71801 7.70249 9.76173C7.92639 9.88967 8.14967 10.0186 8.37274 10.148C8.44292 10.1883 8.51309 10.2286 8.58539 10.2702C8.65079 10.3086 8.71618 10.347 8.78355 10.3866C8.84134 10.4203 8.89914 10.454 8.95868 10.4887C9.12502 10.6086 9.22456 10.7213 9.33294 10.8949C9.37411 11.1713 9.35127 11.3051 9.22162 11.5536C9.016 11.7283 8.89853 11.759 8.63131 11.7513C8.19196 11.6582 7.80776 11.3839 7.42645 11.1546C7.33727 11.1023 7.24803 11.0501 7.15871 10.9981C6.93706 10.8683 6.71665 10.7366 6.4968 10.6039C6.40703 10.5496 6.31718 10.4956 6.22724 10.4417C6.09437 10.3619 5.96179 10.2817 5.8293 10.2014C5.75192 10.1546 5.67454 10.1077 5.59481 10.0595C5.43014 9.95041 5.29847 9.86177 5.17669 9.70737C5.1282 9.38002 5.13861 9.24049 5.33441 8.96982C5.59617 8.78204 5.67601 8.7772 5.9931 8.81674Z" fill="#7C7A7A"/>
<path d="M33.527 8.89437C33.7079 9.0057 33.7079 9.0057 33.8239 9.19124C33.8648 9.39742 33.878 9.58115 33.8239 9.78499C33.6128 10.0247 33.3889 10.1763 33.1124 10.3335C33.0315 10.3798 32.9507 10.4261 32.8674 10.4738C32.7811 10.5226 32.6948 10.5713 32.6085 10.62C32.5206 10.6698 32.4328 10.7198 32.3449 10.7697C32.173 10.8675 32.0009 10.9651 31.8288 11.0626C31.6366 11.1726 31.4464 11.2849 31.2572 11.4001C31.2106 11.4282 31.164 11.4562 31.116 11.4851C30.9997 11.5555 30.884 11.6268 30.7684 11.6982C30.5097 11.8099 30.3178 11.8138 30.0387 11.7889C29.8158 11.6364 29.7542 11.5309 29.6722 11.274C29.6665 10.9941 29.7265 10.9 29.8903 10.6756C30.0738 10.5419 30.0738 10.5419 30.2924 10.4193C30.3727 10.3737 30.453 10.328 30.5358 10.2809C30.6213 10.2336 30.7067 10.1863 30.7948 10.1375C30.8827 10.0882 30.9705 10.0388 31.0583 9.98937C31.232 9.89159 31.406 9.79431 31.5802 9.69726C31.7864 9.58123 31.9903 9.46255 32.1934 9.34113C32.2731 9.29403 32.2731 9.29403 32.3545 9.24597C32.4493 9.18988 32.5436 9.13306 32.6374 9.07535C32.9436 8.89745 33.1757 8.85993 33.527 8.89437Z" fill="#7C7A7A"/>
<path d="M8.96094 22.9963C9.13721 23.0798 9.13721 23.0798 9.25781 23.2189C9.32838 23.4508 9.34502 23.6075 9.29086 23.844C9.14093 24.1114 8.92539 24.2181 8.66406 24.36C8.55067 24.4238 8.43732 24.4876 8.32399 24.5514C8.26088 24.5865 8.19777 24.6217 8.13275 24.6579C7.89465 24.793 7.65961 24.9328 7.42467 25.0732C7.29486 25.1502 7.16499 25.2271 7.03507 25.3039C6.9076 25.3796 6.78061 25.4561 6.65363 25.5326C6.57437 25.579 6.4951 25.6255 6.41344 25.6734C6.34296 25.7153 6.27248 25.7572 6.19986 25.8004C5.96219 25.9039 5.80356 25.9171 5.54688 25.8908C5.32075 25.7551 5.20433 25.6617 5.10156 25.4177C5.10156 25.1493 5.18505 25.0062 5.32422 24.7775C5.52377 24.6274 5.52377 24.6274 5.76402 24.4951C5.80737 24.4708 5.85072 24.4465 5.89538 24.4215C6.03373 24.3442 6.17293 24.2686 6.31226 24.1931C6.40263 24.143 6.49294 24.0929 6.58318 24.0426C6.71869 23.9672 6.85431 23.892 6.9905 23.8178C7.22486 23.69 7.45596 23.5589 7.68396 23.4201C7.75283 23.3787 7.75283 23.3787 7.82309 23.3365C7.94977 23.2601 8.07576 23.1826 8.2017 23.105C8.47663 22.9803 8.66224 22.9697 8.96094 22.9963Z" fill="#7C7A7A"/>
<path d="M32.0691 16.7991C32.1484 16.798 32.2277 16.7968 32.3093 16.7956C32.3945 16.7959 32.4797 16.7963 32.5675 16.7967C32.6553 16.7962 32.7432 16.7958 32.8337 16.7953C33.0193 16.7948 33.205 16.795 33.3907 16.7959C33.6751 16.797 33.9594 16.7944 34.2438 16.7916C34.4241 16.7915 34.6045 16.7917 34.7848 16.792C34.87 16.7911 34.9552 16.7901 35.043 16.7891C35.6306 16.796 35.6306 16.796 35.8818 17.0133C35.9998 17.257 36.027 17.3878 35.9769 17.6551C35.8442 17.8517 35.8442 17.8517 35.6058 18.0262C35.3106 18.0814 35.0192 18.0764 34.7196 18.0729C34.5904 18.0732 34.5904 18.0732 34.4587 18.0734C34.277 18.0734 34.0953 18.0724 33.9135 18.0705C33.6351 18.068 33.3569 18.069 33.0785 18.0704C32.9019 18.0699 32.7253 18.0692 32.5487 18.0683C32.4236 18.0688 32.4236 18.0688 32.2961 18.0694C32.1798 18.0676 32.1798 18.0676 32.0611 18.0658C31.959 18.0651 31.959 18.0651 31.8548 18.0644C31.6168 18.0146 31.527 17.9152 31.3754 17.7293C31.3359 17.5809 31.3359 17.5809 31.3383 17.4325C31.3371 17.359 31.3371 17.359 31.3359 17.284C31.4366 16.905 31.707 16.8015 32.0691 16.7991Z" fill="#7C7A7A"/>
<path d="M4.28032 16.7142C4.40944 16.714 4.40944 16.714 4.54117 16.7137C4.7229 16.7138 4.90463 16.7148 5.08634 16.7166C5.36475 16.7192 5.64298 16.7181 5.92139 16.7167C6.098 16.7172 6.27461 16.7179 6.45122 16.7189C6.57624 16.7183 6.57624 16.7183 6.70378 16.7178C6.82008 16.7195 6.82008 16.7195 6.93873 16.7213C7.04088 16.722 7.04088 16.722 7.1451 16.7227C7.38311 16.7725 7.47292 16.8719 7.62451 17.0578C7.66394 17.2062 7.66394 17.2062 7.66162 17.3547C7.66239 17.4036 7.66315 17.4526 7.66394 17.5031C7.60659 17.719 7.4979 17.8068 7.32764 17.9484C7.1451 17.9866 7.1451 17.9866 6.93873 17.988C6.8612 17.9892 6.78366 17.9904 6.70378 17.9916C6.62044 17.9912 6.53709 17.9908 6.45122 17.9905C6.36521 17.9909 6.2792 17.9914 6.19058 17.9918C6.00873 17.9924 5.82687 17.9921 5.64501 17.9912C5.36675 17.9902 5.08868 17.9927 4.81043 17.9955C4.63373 17.9956 4.45702 17.9955 4.28032 17.9951C4.19712 17.9961 4.11393 17.9971 4.02821 17.9981C3.45237 17.9912 3.45237 17.9912 3.156 17.7739C3.02295 17.5773 3.02295 17.5773 2.97656 17.3547C3.12159 16.6586 3.69812 16.7074 4.28032 16.7142Z" fill="#7C7A7A"/>
</g>
<defs>
<clipPath id="clip0_5245_13546">
<rect width="38" height="38" fill="white" transform="translate(0.5 0.953125)"/>
</clipPath>
</defs>
</svg>
