<svg width="39" height="39" viewBox="0 0 39 39" fill="none" xmlns="http://www.w3.org/2000/svg">
<g clip-path="url(#clip0_5245_13571)">
<path d="M17.8771 0.895219C18.0639 0.956295 18.2508 1.0172 18.4378 1.07787C18.8244 1.20358 19.2107 1.33046 19.5967 1.45817C20.393 1.72146 21.1918 1.97668 21.9906 2.2325C22.2485 2.31522 22.5063 2.39822 22.7641 2.48132C23.9001 2.8474 25.0375 3.20881 26.1759 3.56734C26.4381 3.64998 26.7003 3.73277 26.9625 3.81563C27.0488 3.8429 27.1351 3.87017 27.224 3.89827C27.3988 3.95352 27.5737 4.00877 27.7485 4.06403C28.2592 4.22539 28.7702 4.38595 29.2815 4.54584C29.7144 4.68132 30.147 4.81794 30.5794 4.95489C30.7619 5.01246 30.9444 5.06965 31.1271 5.12645C31.3804 5.20523 31.6331 5.28533 31.8859 5.36574C31.9599 5.38842 32.0339 5.4111 32.1102 5.43446C32.7596 5.64373 33.2919 5.95973 33.7506 6.4709C33.8011 6.52601 33.8517 6.58112 33.9037 6.63789C34.3904 7.32871 34.5283 8.08739 34.4186 8.92012C34.3495 9.20902 34.2596 9.48998 34.1681 9.77248C34.1418 9.8559 34.1154 9.93932 34.0883 10.0253C34.0012 10.3003 33.913 10.5751 33.8248 10.8498C33.7642 11.0403 33.7039 11.2308 33.6435 11.4213C33.4617 11.9943 33.2784 12.5669 33.095 13.1393C33.0018 13.4304 32.9087 13.7214 32.8156 14.0125C32.6797 14.4375 32.5437 14.8625 32.4077 15.2875C32.1671 16.0392 31.9268 16.791 31.6867 17.5428C31.6692 17.5976 31.6517 17.6523 31.6337 17.7087C31.5457 17.9843 31.4577 18.2598 31.3697 18.5353C31.2639 18.8666 31.1581 19.1978 31.0523 19.529C31.0348 19.5839 31.0173 19.6388 30.9992 19.6953C30.9637 19.8063 30.9283 19.9173 30.8928 20.0284C30.6953 20.6466 30.4978 21.2647 30.3004 21.883C30.282 21.9404 30.2637 21.9978 30.2448 22.057C30.2076 22.1735 30.1704 22.2899 30.1332 22.4063C30.0404 22.697 29.9476 22.9876 29.8545 23.2782C29.6899 23.7927 29.5257 24.3074 29.3639 24.8229C29.277 25.0997 29.1898 25.3763 29.1024 25.653C29.0855 25.7065 29.0686 25.7601 29.0511 25.8152C28.8325 26.5049 28.5955 27.1834 28.3353 27.8587C27.4343 30.2436 27.3624 32.4932 27.4399 35.0143C27.4642 35.9884 27.2886 36.8101 26.6163 37.5546C26.1776 37.9629 25.5091 38.3193 24.9027 38.3207C24.8386 38.321 24.7745 38.3214 24.7084 38.3217C24.638 38.3217 24.5675 38.3217 24.4949 38.3217C24.4201 38.3219 24.3453 38.3222 24.2682 38.3225C24.0162 38.3233 23.7643 38.3236 23.5123 38.3239C23.3322 38.3243 23.152 38.3248 22.9718 38.3254C22.4302 38.3268 21.8886 38.3276 21.347 38.3282C21.0919 38.3286 20.8367 38.329 20.5815 38.3293C19.733 38.3306 18.8845 38.3317 18.036 38.3322C17.8158 38.3324 17.5956 38.3325 17.3754 38.3327C17.3207 38.3327 17.266 38.3327 17.2096 38.3328C16.3237 38.3334 15.4377 38.3353 14.5518 38.3377C13.6418 38.3401 12.7319 38.3415 11.8219 38.3417C11.3111 38.3419 10.8004 38.3425 10.2896 38.3444C9.80894 38.3462 9.32825 38.3464 8.84754 38.3457C8.67132 38.3456 8.4951 38.3461 8.31888 38.3471C8.07781 38.3484 7.83681 38.3479 7.59574 38.3469C7.52644 38.3478 7.45713 38.3486 7.38573 38.3494C6.56779 38.3415 5.91715 37.9984 5.3202 37.4526C4.80457 36.9261 4.57383 36.2626 4.57269 35.5376C4.57219 35.3909 4.57219 35.3909 4.57169 35.2412C4.57169 35.1323 4.57171 35.0235 4.57173 34.9147C4.57148 34.7993 4.57121 34.6839 4.5709 34.5685C4.57016 34.2509 4.56988 33.9333 4.56969 33.6157C4.5694 33.2733 4.56869 32.9309 4.56804 32.5885C4.56657 31.7614 4.56582 30.9343 4.56516 30.1072C4.56484 29.7177 4.56444 29.3282 4.56405 28.9387C4.56279 27.6439 4.56171 26.3491 4.56117 25.0543C4.56103 24.7182 4.56089 24.3822 4.56075 24.0462C4.56071 23.9626 4.56067 23.8791 4.56064 23.7931C4.56002 22.4402 4.55814 21.0874 4.55573 19.7345C4.55327 18.3456 4.55194 16.9566 4.5517 15.5677C4.55154 14.7878 4.55089 14.008 4.54899 13.2281C4.54738 12.564 4.54679 11.8998 4.54751 11.2356C4.54784 10.8969 4.54771 10.5581 4.54626 10.2193C4.54495 9.90888 4.54503 9.59844 4.54618 9.28798C4.54636 9.17599 4.54604 9.06401 4.54516 8.95203C4.53829 8.02243 4.68036 7.24833 5.32484 6.54512C5.90919 5.95252 6.60139 5.65023 7.43223 5.63764C7.62107 5.63767 7.80991 5.6385 7.99874 5.64C8.09951 5.64028 8.20027 5.64049 8.30103 5.64064C8.5647 5.6412 8.82836 5.64266 9.09203 5.6443C9.3617 5.64583 9.63137 5.6465 9.90103 5.64725C10.429 5.64883 10.957 5.65136 11.485 5.6545C11.4927 5.58373 11.5005 5.51297 11.5084 5.44007C11.5596 5.08456 11.6682 4.7507 11.7781 4.40959C11.8 4.34108 11.8219 4.27256 11.8445 4.20196C11.8908 4.05755 11.9375 3.91321 11.9843 3.76895C12.0551 3.55007 12.1243 3.33074 12.1934 3.11134C12.2389 2.97041 12.2844 2.82951 12.3301 2.68865C12.3503 2.62391 12.3705 2.55918 12.3913 2.49249C12.6659 1.6611 13.158 1.02272 13.9055 0.562394C15.2176 -0.0836695 16.5915 0.463663 17.8771 0.895219ZM13.86 2.01778C13.4258 2.66143 13.2461 3.47802 13.0204 4.21187C12.9792 4.34375 12.938 4.47561 12.8967 4.60746C12.6985 5.1242 12.6985 5.1242 12.5983 5.6545C12.6935 5.65466 12.6935 5.65466 12.7907 5.65483C14.3382 5.65758 15.8857 5.66196 17.4331 5.66814C18.1815 5.6711 18.9299 5.6735 19.6782 5.67461C20.3307 5.67558 20.9832 5.67758 21.6357 5.68082C21.981 5.68249 22.3263 5.68366 22.6715 5.68358C22.997 5.68353 23.3225 5.68486 23.648 5.68724C23.767 5.68787 23.886 5.688 24.0049 5.68758C24.9657 5.68466 25.7942 5.83202 26.5514 6.4709C27.0774 7.01573 27.3755 7.76056 27.3781 8.51685C27.3785 8.583 27.3789 8.64914 27.3793 8.7173C27.3794 8.78928 27.3795 8.86126 27.3796 8.93542C27.3799 9.01241 27.3803 9.08941 27.3807 9.16874C27.3818 9.42708 27.3824 9.68542 27.383 9.94376C27.3838 10.1288 27.3845 10.3139 27.3853 10.4989C27.3869 10.8975 27.3882 11.2961 27.3894 11.6947C27.3911 12.2709 27.3932 12.8472 27.3954 13.4235C27.3989 14.3585 27.4021 15.2935 27.4051 16.2285C27.408 17.1367 27.4111 18.0449 27.4144 18.9531C27.4146 19.0091 27.4148 19.0651 27.415 19.1228C27.416 19.4037 27.417 19.6846 27.4181 19.9655C27.4265 22.2954 27.4344 24.6253 27.442 26.9553C27.5905 26.7326 27.6564 26.5554 27.7369 26.3016C27.7657 26.2117 27.7944 26.1217 27.824 26.0291C27.8554 25.9293 27.8869 25.8296 27.9184 25.7298C27.9517 25.6251 27.985 25.5203 28.0184 25.4156C28.0903 25.1898 28.162 24.9639 28.2335 24.738C28.3479 24.3763 28.4629 24.0148 28.5779 23.6533C28.7182 23.2124 28.8583 22.7715 28.9983 22.3306C29.2415 21.5645 29.4856 20.7986 29.7303 20.0329C29.7478 19.9783 29.7652 19.9238 29.7832 19.8675C29.8709 19.5933 29.9585 19.3191 30.0462 19.0449C30.2043 18.5502 30.3624 18.0555 30.5204 17.5608C30.5912 17.3392 30.6619 17.1176 30.7327 16.896C30.9395 16.2486 31.1463 15.6012 31.3531 14.9539C31.4886 14.5297 31.6241 14.1055 31.7596 13.6814C31.9235 13.1681 31.9235 13.1681 32.0875 12.6548C32.1218 12.5473 32.1561 12.4398 32.1905 12.3323C32.2727 12.0752 32.3547 11.818 32.4363 11.5607C32.5842 11.095 32.7347 10.6305 32.8922 10.1679C32.9342 10.0427 32.9342 10.0427 32.977 9.91503C33.0283 9.7626 33.0806 9.61051 33.1341 9.45888C33.3383 8.847 33.4202 8.2161 33.194 7.5981C32.8583 6.95681 32.3132 6.69377 31.6468 6.48101C31.5409 6.44825 31.4351 6.4155 31.3292 6.38277C31.214 6.34591 31.0988 6.3089 30.9837 6.27177C30.721 6.18728 30.458 6.10371 30.1948 6.02063C29.693 5.86185 29.1924 5.6992 28.6919 5.5365C26.7206 4.89647 24.7464 4.2658 22.7693 3.64408C21.7289 3.3169 20.6897 2.98665 19.652 2.65125C19.5993 2.63423 19.5467 2.61722 19.4924 2.59969C18.9773 2.4332 18.4623 2.26646 17.9474 2.09912C17.8042 2.05261 17.661 2.00617 17.5178 1.95977C17.3436 1.90331 17.1694 1.8467 16.9953 1.7899C15.3346 1.23411 15.3346 1.23411 13.86 2.01778ZM5.93019 7.57955C5.73928 7.92008 5.67733 8.18969 5.67684 8.58101C5.67636 8.67803 5.67588 8.77505 5.67539 8.87501C5.67561 8.98255 5.67584 9.0901 5.67609 9.19764C5.67581 9.31198 5.67547 9.42632 5.67507 9.54066C5.67416 9.85501 5.67418 10.1694 5.67435 10.4837C5.67438 10.8227 5.67356 11.1617 5.67286 11.5007C5.67163 12.1649 5.67122 12.8291 5.67114 13.4933C5.67107 14.0332 5.67076 14.573 5.67029 15.1129C5.66898 16.6434 5.6683 18.1739 5.66841 19.7044C5.66842 19.7869 5.66842 19.8694 5.66843 19.9544C5.66843 20.0371 5.66844 20.1197 5.66845 20.2048C5.66851 21.5439 5.66709 22.8829 5.66499 24.2219C5.66286 25.5966 5.66184 26.9713 5.66196 28.346C5.66201 29.1179 5.6616 29.8897 5.66001 30.6616C5.65866 31.3188 5.65833 31.9761 5.65934 32.6333C5.65983 32.9686 5.65983 33.3038 5.65855 33.6391C5.65738 33.9462 5.65759 34.2533 5.65889 34.5604C5.65911 34.6714 5.65884 34.7823 5.65802 34.8932C5.65319 35.586 5.68794 36.1443 6.1282 36.7005C6.19665 36.7582 6.19665 36.7582 6.26649 36.8171C6.31117 36.8567 6.35585 36.8963 6.40188 36.9371C6.90468 37.2418 7.41499 37.3043 7.9925 37.3C8.06382 37.3003 8.13515 37.3007 8.20863 37.301C8.44604 37.3019 8.68342 37.3012 8.92083 37.3005C9.09167 37.3008 9.26252 37.3012 9.43337 37.3017C9.89631 37.3027 10.3592 37.3023 10.8222 37.3016C11.3071 37.301 11.7921 37.3016 12.277 37.3019C13.1435 37.3024 14.0099 37.3016 14.8764 37.3005C15.6611 37.2995 16.4458 37.2997 17.2305 37.3007C18.143 37.3019 19.0554 37.3023 19.9679 37.3017C20.4505 37.3013 20.9331 37.3013 21.4156 37.302C21.8694 37.3027 22.3231 37.3022 22.7768 37.3009C22.9431 37.3006 23.1094 37.3007 23.2758 37.3012C23.5032 37.3018 23.7305 37.3011 23.958 37.3C24.0234 37.3005 24.0889 37.301 24.1563 37.3015C24.8078 37.2953 25.3967 37.1266 25.8834 36.6779C26.2217 36.2482 26.3472 35.8479 26.3478 35.3046C26.3486 35.16 26.3486 35.16 26.3493 35.0126C26.3491 34.9062 26.3488 34.7998 26.3486 34.6934C26.3489 34.58 26.3492 34.4665 26.3496 34.3531C26.3505 34.0416 26.3505 33.7301 26.3503 33.4186C26.3503 33.0826 26.3511 32.7465 26.3518 32.4105C26.3531 31.7522 26.3535 31.0938 26.3535 30.4355C26.3536 29.9004 26.3539 29.3652 26.3544 28.8301C26.3557 27.3127 26.3564 25.7954 26.3563 24.2781C26.3563 24.1963 26.3563 24.1145 26.3563 24.0302C26.3562 23.9073 26.3562 23.9073 26.3562 23.782C26.3562 22.4548 26.3576 21.1276 26.3597 19.8004C26.3618 18.4375 26.3628 17.0746 26.3627 15.7117C26.3627 14.9466 26.3631 14.1815 26.3647 13.4164C26.366 12.7649 26.3663 12.1135 26.3653 11.462C26.3649 11.1297 26.3648 10.7975 26.3661 10.4652C26.3673 10.1607 26.3671 9.85629 26.3658 9.55183C26.3656 9.44195 26.3658 9.33207 26.3667 9.22219C26.3717 8.50968 26.3346 7.88419 25.8724 7.31282C25.8179 7.26766 25.7634 7.22251 25.7072 7.17598C25.6259 7.10595 25.6259 7.10595 25.5431 7.0345C25.1116 6.74962 24.6901 6.74611 24.191 6.74743C24.1181 6.74704 24.0452 6.74665 23.9701 6.74625C23.726 6.74514 23.4819 6.74509 23.2379 6.74504C23.0628 6.74447 22.8877 6.74385 22.7126 6.74317C22.2371 6.74154 21.7616 6.74088 21.286 6.74051C20.9889 6.74026 20.6917 6.73978 20.3945 6.73924C19.571 6.73779 18.7475 6.73657 17.9241 6.73636C17.8714 6.73634 17.8187 6.73633 17.7645 6.73632C17.6578 6.73629 17.551 6.73626 17.4443 6.73624C17.3913 6.73622 17.3383 6.73621 17.2837 6.73619C17.2042 6.73617 17.2042 6.73617 17.123 6.73615C16.2637 6.73589 15.4044 6.73389 14.5452 6.73111C13.662 6.72828 12.7789 6.72685 11.8957 6.72682C11.4002 6.72678 10.9048 6.72612 10.4093 6.724C9.94312 6.72206 9.477 6.7219 9.01084 6.72309C8.84001 6.72322 8.66917 6.72273 8.49834 6.72154C8.26458 6.72002 8.03093 6.72081 7.79717 6.72215C7.73004 6.72117 7.66291 6.72019 7.59375 6.71918C6.88691 6.72843 6.335 6.99587 5.93019 7.57955Z" fill="#7C7A7A"/>
<path d="M19.9603 10.8387C21.5799 12.0663 22.5216 13.6581 22.8754 15.6452C22.8958 15.8033 22.9081 15.9585 22.9148 16.1178C22.9178 16.1779 22.9208 16.2381 22.9238 16.3001C22.9691 18.1174 22.3424 19.8101 21.1336 21.1646C21.0797 21.2255 21.0259 21.2863 20.9704 21.349C19.8137 22.5803 18.2003 23.3388 16.5123 23.4196C14.4229 23.476 12.6306 22.9002 11.0888 21.4427C10.1787 20.5032 9.57487 19.3918 9.25859 18.1217C9.24194 18.0602 9.2253 17.9986 9.20814 17.9353C8.82506 16.2638 9.19155 14.4199 10.0472 12.9542C11.0986 11.3441 12.5809 10.1912 14.4833 9.76978C16.3948 9.38751 18.3564 9.71615 19.9603 10.8387ZM18.0164 11.1451C18.0417 11.1768 18.0669 11.2084 18.0929 11.2411C18.6562 11.9677 19.0926 12.7427 19.4677 13.5784C19.5488 13.7588 19.635 13.9369 19.7234 14.1139C20.2133 14.1139 20.7031 14.1139 21.2078 14.1139C20.7891 12.8578 19.7208 11.9207 18.5684 11.3307C18.3035 11.1906 18.3035 11.1906 18.0164 11.1451ZM13.6375 11.2193C13.052 11.4623 12.5521 11.8437 12.0789 12.2584C12.0023 12.3244 12.0023 12.3244 11.9241 12.3917C11.4379 12.8414 10.954 13.4808 10.743 14.1139C11.2328 14.1139 11.7227 14.1139 12.2273 14.1139C12.3146 13.898 12.4018 13.6822 12.4917 13.4598C12.8239 12.6591 13.2524 11.9756 13.7859 11.2935C13.7369 11.2691 13.688 11.2446 13.6375 11.2193ZM14.825 11.7389C13.8639 12.8067 13.8639 12.8067 13.4148 14.1139C14.0761 14.1139 14.7374 14.1139 15.4187 14.1139C15.4187 13.1832 15.4187 12.2525 15.4187 11.2935C15.2067 11.2935 14.9681 11.597 14.825 11.7389ZM16.532 11.3678C16.532 12.274 16.532 13.1802 16.532 14.1139C17.1933 14.1139 17.8546 14.1139 18.5359 14.1139C18.1126 13.0554 17.522 12.1478 16.6805 11.3678C16.6315 11.3678 16.5825 11.3678 16.532 11.3678ZM10.3719 15.2271C10.2431 15.7048 10.2431 15.7048 10.2037 16.1665C10.2035 16.2255 10.2033 16.2845 10.2031 16.3453C10.2037 16.405 10.2043 16.4646 10.2049 16.526C10.2043 16.5856 10.2037 16.6452 10.2031 16.7066C10.2033 16.7656 10.2035 16.8246 10.2037 16.8855C10.2039 16.9377 10.2041 16.9898 10.2042 17.0436C10.2314 17.3085 10.3073 17.5664 10.3719 17.8248C10.8862 17.8248 11.4005 17.8248 11.9305 17.8248C11.9305 16.9676 11.9305 16.1103 11.9305 15.2271C11.4161 15.2271 10.9018 15.2271 10.3719 15.2271ZM13.0437 15.2271C12.9772 15.4931 12.96 15.6911 12.9597 15.9621C12.9596 16.0465 12.9595 16.1309 12.9594 16.2179C12.9597 16.3058 12.96 16.3937 12.9602 16.4842C12.96 16.5718 12.9597 16.6594 12.9594 16.7496C12.9595 16.8342 12.9596 16.9187 12.9597 17.0058C12.9598 17.0828 12.9598 17.1598 12.9599 17.2391C12.9653 17.4816 12.9653 17.4816 13.0437 17.8248C13.8275 17.8248 14.6112 17.8248 15.4187 17.8248C15.4187 16.9676 15.4187 16.1103 15.4187 15.2271C14.635 15.2271 13.8512 15.2271 13.0437 15.2271ZM16.532 15.2271C16.532 16.0844 16.532 16.9416 16.532 17.8248C17.2913 17.8248 18.0505 17.8248 18.8328 17.8248C19.1937 17.103 18.9654 15.9562 18.8328 15.2271C18.0736 15.2271 17.3143 15.2271 16.532 15.2271ZM19.9461 15.2271C19.9583 15.3573 19.9706 15.4874 19.9832 15.6214C20.0443 16.3658 20.016 17.0817 19.9461 17.8248C20.5094 17.8248 21.0727 17.8248 21.6531 17.8248C21.7809 17.1682 21.7809 17.1682 21.8201 16.526C21.8205 16.4533 21.8209 16.3805 21.8213 16.3056C21.794 15.9428 21.7182 15.5851 21.6531 15.2271C21.0898 15.2271 20.5265 15.2271 19.9461 15.2271ZM10.743 18.9381C11.0008 19.5022 11.2989 19.9567 11.7078 20.4225C11.774 20.4992 11.774 20.4992 11.8415 20.5776C12.1378 20.898 12.4663 21.1413 12.8304 21.378C12.8739 21.4063 12.9174 21.4347 12.9622 21.4639C13.2282 21.6306 13.4846 21.7456 13.7859 21.8326C13.6449 21.5908 13.4942 21.3655 13.3267 21.1414C13.0951 20.8134 12.9074 20.4747 12.7283 20.1163C12.7039 20.0676 12.6795 20.0188 12.6543 19.9686C12.4881 19.6286 12.3621 19.2975 12.2273 18.9381C11.7375 18.9381 11.2477 18.9381 10.743 18.9381ZM13.4148 18.9381C13.6946 19.7773 14.0928 20.4279 14.6534 21.0997C14.6869 21.1401 14.7203 21.1805 14.7548 21.2221C14.9666 21.4679 15.1304 21.5854 15.4187 21.7584C15.4187 20.8277 15.4187 19.897 15.4187 18.9381C14.7575 18.9381 14.0962 18.9381 13.4148 18.9381ZM16.532 18.9381C16.532 19.8688 16.532 20.7995 16.532 21.7584C17.4448 20.976 18.1522 20.0893 18.5359 18.9381C17.8746 18.9381 17.2134 18.9381 16.532 18.9381ZM19.7234 18.9381C19.6469 19.1049 19.5704 19.2718 19.4915 19.4437C19.1336 20.2115 18.7482 20.9082 18.2283 21.5778C18.0908 21.7465 18.0908 21.7465 18.0164 21.9068C19.028 21.7653 19.9924 20.875 20.5949 20.0922C20.869 19.7158 21.0587 19.3856 21.2078 18.9381C20.718 18.9381 20.2281 18.9381 19.7234 18.9381Z" fill="#7C7A7A"/>
<path d="M9.87015 26.7752C9.95159 26.7745 9.95159 26.7745 10.0347 26.7739C10.2167 26.7729 10.3986 26.774 10.5806 26.7751C10.7111 26.7748 10.8415 26.7744 10.972 26.7739C11.3263 26.7729 11.6807 26.7737 12.0351 26.7749C12.4057 26.776 12.7763 26.7755 13.1469 26.7752C13.7694 26.775 14.3918 26.776 15.0142 26.7777C15.7341 26.7797 16.454 26.7798 17.1739 26.779C17.8661 26.7782 18.5582 26.7786 19.2504 26.7797C19.5451 26.7801 19.8398 26.7801 20.1346 26.7797C20.4816 26.7794 20.8286 26.7801 21.1755 26.7817C21.303 26.7822 21.4305 26.7822 21.5579 26.7818C21.7317 26.7814 21.9054 26.7823 22.0792 26.7836C22.1765 26.7838 22.2738 26.7839 22.3741 26.7841C22.6314 26.814 22.7355 26.8509 22.9141 27.035C23.0027 27.3066 23.0126 27.4284 22.8909 27.6891C22.7657 27.8514 22.7657 27.8514 22.6172 27.9256C22.4451 27.9335 22.2727 27.9363 22.1004 27.9371C22.0196 27.9376 22.0196 27.9376 21.9373 27.938C21.756 27.939 21.5748 27.9395 21.3936 27.94C21.264 27.9405 21.1344 27.9412 21.0048 27.9418C20.5785 27.9437 20.1522 27.9449 19.7259 27.9459C19.5793 27.9463 19.4327 27.9467 19.2861 27.9471C18.6763 27.9487 18.0666 27.9501 17.4568 27.951C16.5822 27.9522 15.7076 27.9546 14.833 27.9589C14.2185 27.9617 13.6039 27.9632 12.9894 27.9636C12.6221 27.9638 12.2549 27.9647 11.8876 27.9671C11.5421 27.9694 11.1967 27.9698 10.8512 27.969C10.7244 27.969 10.5976 27.9696 10.4708 27.9709C10.2976 27.9726 10.1246 27.9719 9.95148 27.9708C9.85459 27.971 9.7577 27.9713 9.65788 27.9715C9.34105 27.9137 9.23128 27.8051 9.03522 27.5545C8.99347 27.3273 8.99347 27.3273 9.03522 27.1092C9.27618 26.7814 9.47587 26.7752 9.87015 26.7752Z" fill="#7C7A7A"/>
<path d="M9.87437 30.408C9.92902 30.4076 9.98367 30.4072 10.04 30.4067C10.2232 30.4057 10.4063 30.4068 10.5895 30.4079C10.7208 30.4077 10.8521 30.4072 10.9834 30.4067C11.3401 30.4057 11.6967 30.4065 12.0534 30.4077C12.4263 30.4088 12.7993 30.4083 13.1722 30.408C13.7984 30.4078 14.4247 30.4088 15.0509 30.4105C15.7754 30.4125 16.5 30.4126 17.2245 30.4118C17.921 30.411 18.6174 30.4114 19.3138 30.4125C19.6105 30.4129 19.9071 30.4129 20.2038 30.4126C20.5529 30.4122 20.902 30.4129 21.2512 30.4146C21.3795 30.415 21.5078 30.415 21.6361 30.4146C21.8109 30.4142 21.9856 30.4151 22.1604 30.4164C22.2583 30.4166 22.3563 30.4168 22.4572 30.4169C22.6924 30.4452 22.6924 30.4452 22.8332 30.5447C22.9572 30.7312 22.9757 30.8915 22.9892 31.1131C22.9314 31.3025 22.8837 31.3814 22.7193 31.4911C22.479 31.5834 22.2723 31.5774 22.0148 31.5778C21.9615 31.5781 21.9082 31.5784 21.8532 31.5787C21.6745 31.5794 21.4958 31.5791 21.317 31.5788C21.1889 31.5792 21.0608 31.5795 20.9326 31.58C20.5845 31.581 20.2364 31.581 19.8884 31.5808C19.5978 31.5808 19.3073 31.5811 19.0168 31.5815C18.3316 31.5823 17.6463 31.5823 16.961 31.5819C16.2538 31.5814 15.5467 31.5823 14.8395 31.5839C14.2325 31.5852 13.6255 31.5857 13.0185 31.5854C12.6559 31.5853 12.2933 31.5855 11.9307 31.5865C11.5897 31.5875 11.2488 31.5873 10.9078 31.5864C10.7827 31.5862 10.6575 31.5864 10.5324 31.587C10.3616 31.5878 10.1908 31.5872 10.02 31.5862C9.87656 31.5862 9.87656 31.5862 9.73026 31.5863C9.46317 31.5564 9.32289 31.4972 9.11033 31.3358C9.00491 31.125 9.01277 30.9755 9.03612 30.742C9.27486 30.4116 9.48061 30.408 9.87437 30.408Z" fill="#7C7A7A"/>
<path d="M12.5303 34.0728C12.5939 34.0724 12.6575 34.0719 12.723 34.0715C12.7929 34.0714 12.8628 34.0713 12.9348 34.0713C13.0083 34.0709 13.0818 34.0705 13.1575 34.0701C13.4014 34.0691 13.6453 34.0685 13.8892 34.0681C14.0582 34.0677 14.2272 34.0673 14.3962 34.0669C14.7508 34.0661 15.1053 34.0656 15.4599 34.0654C15.915 34.065 16.3701 34.0632 16.8251 34.0611C17.1742 34.0597 17.5233 34.0593 17.8724 34.0592C18.0402 34.059 18.2081 34.0584 18.3759 34.0574C18.6103 34.0561 18.8446 34.0563 19.079 34.0568C19.1836 34.0557 19.1836 34.0557 19.2904 34.0547C19.3542 34.0551 19.418 34.0555 19.4837 34.0559C19.5391 34.0558 19.5945 34.0557 19.6517 34.0556C19.8377 34.091 19.9037 34.1591 20.0195 34.3059C20.0491 34.4497 20.0491 34.4497 20.0474 34.6027C20.0482 34.6785 20.0482 34.6785 20.0491 34.7558C20.0104 34.9439 19.9453 35.0026 19.7969 35.1223C19.6519 35.1501 19.6519 35.1501 19.4842 35.1501C19.4205 35.1506 19.3568 35.1511 19.2912 35.1516C19.2216 35.1511 19.1519 35.1505 19.0802 35.1499C19.0067 35.1502 18.9332 35.1505 18.8574 35.1507C18.6139 35.1513 18.3705 35.1503 18.1269 35.1492C17.9581 35.1492 17.7892 35.1492 17.6203 35.1494C17.2662 35.1493 16.9121 35.1486 16.5579 35.1472C16.1034 35.1455 15.6489 35.1455 15.1944 35.146C14.8457 35.1463 14.4969 35.1458 14.1481 35.145C13.9805 35.1447 13.8129 35.1447 13.6453 35.1448C13.4113 35.1448 13.1773 35.1439 12.9432 35.1427C12.8736 35.1428 12.804 35.143 12.7322 35.1432C12.6367 35.1424 12.6367 35.1424 12.5392 35.1416C12.4839 35.1415 12.4286 35.1413 12.3716 35.1412C12.2266 35.1223 12.2266 35.1223 12.0039 34.9738C11.9419 34.7162 11.9032 34.5318 11.99 34.278C12.1428 34.0689 12.2865 34.0738 12.5303 34.0728Z" fill="#7C7A7A"/>
</g>
<defs>
<clipPath id="clip0_5245_13571">
<rect width="38" height="38" fill="white" transform="translate(0.5 0.3125)"/>
</clipPath>
</defs>
</svg>
