<svg width="17" height="16" viewBox="0 0 17 16" fill="none" xmlns="http://www.w3.org/2000/svg">
<g clip-path="url(#clip0_5245_8665)">
<path fill-rule="evenodd" clip-rule="evenodd" d="M16.5 15.272H12.9638V10.1587C12.9638 8.8203 12.4106 7.90662 11.1943 7.90662C10.2639 7.90662 9.74647 8.5232 9.50564 9.11742C9.41533 9.33071 9.42944 9.62781 9.42944 9.92493V15.272H5.92616C5.92616 15.272 5.97131 6.21429 5.92616 5.39095H9.42944V6.94171C9.6364 6.26366 10.7559 5.29594 12.5423 5.29594C14.7587 5.29594 16.5 6.71724 16.5 9.77778V15.272ZM2.38335 4.155H2.36077C1.23189 4.155 0.5 3.39964 0.5 2.44217C0.5 1.46608 1.25353 0.726562 2.40498 0.726562C3.5555 0.726562 4.26293 1.46423 4.28551 2.43939C4.28551 3.39685 3.5555 4.155 2.38335 4.155ZM0.903564 5.39095H4.02211V15.272H0.903564V5.39095Z" fill="#007EBB"/>
</g>
<defs>
<clipPath id="clip0_5245_8665">
<rect width="16" height="16" fill="white" transform="translate(0.5)"/>
</clipPath>
</defs>
</svg>
