<svg width="29" height="28" viewBox="0 0 29 28" fill="none" xmlns="http://www.w3.org/2000/svg">
<path d="M11 14.875L13.625 17.5L18 11.375M25 14C25 15.4793 24.265 16.7883 23.1415 17.5793C23.2625 18.2709 23.2152 18.9814 23.0033 19.6508C22.7915 20.3202 22.4215 20.9286 21.9247 21.4247C21.4286 21.9215 20.8202 22.2915 20.1508 22.5033C19.4814 22.7152 18.7709 22.7625 18.0793 22.6415C17.6759 23.2161 17.14 23.6849 16.5169 24.0085C15.8939 24.332 15.202 24.5006 14.5 24.5C13.0207 24.5 11.7117 23.765 10.9207 22.6415C10.2291 22.7624 9.51858 22.715 8.84924 22.5032C8.17989 22.2914 7.57142 21.9214 7.07533 21.4247C6.57848 20.9286 6.20848 20.3202 5.99666 19.6508C5.78484 18.9814 5.73745 18.2709 5.8585 17.5793C5.28394 17.1759 4.81506 16.64 4.49155 16.0169C4.16804 15.3939 3.99943 14.702 4 14C4 12.5207 4.735 11.2117 5.8585 10.4207C5.73745 9.7291 5.78484 9.01855 5.99666 8.34919C6.20848 7.67983 6.57848 7.07137 7.07533 6.57533C7.57142 6.07856 8.17989 5.70861 8.84924 5.4968C9.51858 5.28499 10.2291 5.23755 10.9207 5.3585C11.3242 4.78401 11.8601 4.31518 12.4831 3.99168C13.1062 3.66818 13.798 3.49953 14.5 3.5C15.9793 3.5 17.2883 4.235 18.0793 5.3585C18.7709 5.23755 19.4814 5.28499 20.1508 5.4968C20.8201 5.70861 21.4286 6.07856 21.9247 6.57533C22.4214 7.07142 22.7914 7.67989 23.0032 8.34924C23.215 9.01858 23.2624 9.7291 23.1415 10.4207C23.7161 10.8241 24.1849 11.36 24.5085 11.9831C24.832 12.6061 25.0006 13.298 25 14Z" stroke="white" stroke-width="1.5" stroke-linecap="round" stroke-linejoin="round"/>
</svg>
