<svg width="40" height="41" viewBox="0 0 40 41" fill="none" xmlns="http://www.w3.org/2000/svg">
<rect y="0.953125" width="40" height="40" rx="5" fill="white"/>
<g clip-path="url(#clip0_5245_13611)">
<path fill-rule="evenodd" clip-rule="evenodd" d="M20.9356 22.2595C20.4408 23.2477 19.5923 23.8839 18.6741 24.0985C18.5349 24.0985 18.3223 24.1682 18.1097 24.1682C16.5574 24.1682 15.6393 22.9672 15.6393 21.2016C15.6393 18.939 16.9808 17.8811 18.6741 17.3842C19.5923 17.1734 20.6534 17.1018 21.7127 17.1018V17.9508C21.7127 19.5752 21.7823 20.8458 20.9356 22.2595ZM21.7127 13.8548C20.7945 13.9244 19.7334 13.9941 18.6741 14.1334C17.0504 14.3479 15.4267 14.6303 14.0871 15.2665C11.4737 16.3263 9.70703 18.587 9.70703 21.9056C9.70703 26.0769 12.39 28.1945 15.7823 28.1945C16.9112 28.1945 17.8293 28.0515 18.6741 27.8425C20.0193 27.4171 21.1463 26.6397 22.4878 25.2261C23.2649 26.2858 23.4794 26.7828 24.819 27.9122C25.1727 28.0515 25.5264 28.0515 25.8067 27.8425C26.6553 27.1348 28.1398 25.8623 28.9149 25.1564C29.2686 24.8741 29.199 24.4487 28.9845 24.0985C28.2094 23.1084 27.4304 22.2595 27.4304 20.3527V13.9941C27.4304 11.3098 27.6449 8.83642 25.6675 7.00112C24.0438 5.51971 21.5001 4.95312 19.5226 4.95312H18.6741C15.0749 5.16207 11.263 6.71689 10.4126 11.1687C10.2715 11.7352 10.6967 11.9461 10.9789 12.0157L14.9337 12.5108C15.3571 12.4392 15.5697 12.0854 15.6393 11.7352C15.9911 10.1804 17.263 9.40301 18.6741 9.25995H18.9582C19.8067 9.25995 20.7249 9.61383 21.2178 10.3216C21.7823 11.1687 21.7127 12.2999 21.7127 13.2901V13.8548Z" fill="#343B45"/>
<path fill-rule="evenodd" clip-rule="evenodd" d="M35.9962 28.9188V28.9169C35.9812 28.5838 35.9116 28.3297 35.7723 28.1188L35.7573 28.0981L35.7404 28.0774C35.5993 27.9231 35.4638 27.8647 35.317 27.8007C34.8786 27.6313 34.2408 27.5409 33.4732 27.5391C32.9219 27.5391 32.3142 27.5918 31.7027 27.7254L31.7009 27.684L31.0856 27.8892L31.0743 27.8948L30.7263 28.0078V28.0228C30.318 28.1922 29.9473 28.4031 29.603 28.6534C29.3885 28.8134 29.2117 29.0261 29.2023 29.3518C29.1966 29.5287 29.2869 29.732 29.4356 29.8525C29.5842 29.9729 29.7573 30.0144 29.9097 30.0144C29.9454 30.0144 29.9793 30.0125 30.0094 30.0068L30.0395 30.0049L30.0621 30.0012C30.3631 29.9372 30.8015 29.8939 31.3152 29.8224C31.7554 29.7734 32.222 29.7377 32.6265 29.7377C32.9125 29.7358 33.1703 29.7565 33.3471 29.7941C33.4356 29.8129 33.5014 29.8355 33.5372 29.8544C33.5503 29.8581 33.5597 29.8638 33.5654 29.8675C33.5729 29.892 33.5842 29.956 33.5823 30.0445C33.5861 30.3833 33.4431 31.012 33.2455 31.6257C33.0536 32.2393 32.8203 32.8548 32.666 33.2633C32.6284 33.3574 32.604 33.4609 32.604 33.5739C32.6002 33.7377 32.6679 33.9372 32.8109 34.0689C32.9501 34.2007 33.1308 34.2534 33.2813 34.2534H33.2888C33.5146 34.2515 33.7065 34.1612 33.8721 34.0313C35.4337 32.6271 35.9774 30.3833 36 29.1202L35.9962 28.9188ZM31.3659 30.8652C31.206 30.8633 31.0423 30.9009 30.8899 30.9725C30.7187 31.0402 30.5438 31.1193 30.3782 31.1889L30.1355 31.2906L29.8194 31.4167V31.4205C26.3857 32.8134 22.7789 33.6304 19.4412 33.7019C19.3189 33.7057 19.1947 33.7057 19.0762 33.7057C13.8269 33.7094 9.54471 31.2737 5.22486 28.8737C5.07435 28.7946 4.91819 28.7532 4.76767 28.7532C4.57388 28.7532 4.37444 28.8266 4.22957 28.9621C4.0847 29.0995 3.99815 29.2972 4.00003 29.4986C3.99815 29.7602 4.13926 30.0012 4.33681 30.1574C8.39137 33.6793 12.8354 36.9508 18.8128 36.9546C18.9295 36.9546 19.048 36.9508 19.1665 36.9489C22.969 36.8642 27.2681 35.5786 30.6058 33.4817L30.6265 33.4685C31.063 33.2068 31.4995 32.9094 31.9116 32.58C32.1675 32.3899 32.3443 32.0925 32.3443 31.7838C32.333 31.236 31.8683 30.8652 31.3659 30.8652Z" fill="#FF9A00"/>
</g>
<defs>
<clipPath id="clip0_5245_13611">
<rect width="32" height="32" fill="white" transform="translate(4 4.95312)"/>
</clipPath>
</defs>
</svg>
