<svg width="40" height="41" viewBox="0 0 40 41" fill="none" xmlns="http://www.w3.org/2000/svg">
<rect y="0.953125" width="40" height="40" rx="5" fill="white"/>
<g clip-path="url(#clip0_5245_13589)">
<path fill-rule="evenodd" clip-rule="evenodd" d="M10.8857 20.9539C10.8857 19.9377 11.0544 18.9635 11.3557 18.0497L6.08311 14.0234C5.05552 16.1098 4.47656 18.4608 4.47656 20.9539C4.47656 23.4449 5.0548 25.7945 6.08097 27.8794L11.3507 23.8453C11.0523 22.9358 10.8857 21.9651 10.8857 20.9539Z" fill="#FBBC05"/>
<path fill-rule="evenodd" clip-rule="evenodd" d="M20.1441 11.7125C22.3517 11.7125 24.3456 12.4947 25.9123 13.7747L30.4699 9.22361C27.6926 6.80583 24.132 5.3125 20.1441 5.3125C13.9529 5.3125 8.63195 8.85312 6.08398 14.0265L11.3565 18.0528C12.5714 14.3649 16.0345 11.7125 20.1441 11.7125Z" fill="#EB4335"/>
<path fill-rule="evenodd" clip-rule="evenodd" d="M20.1441 30.1996C16.0345 30.1996 12.5714 27.5472 11.3565 23.8594L6.08398 27.885C8.63195 33.059 13.9529 36.5996 20.1441 36.5996C23.9653 36.5996 27.6135 35.2428 30.3517 32.7006L25.3469 28.8315C23.9347 29.7211 22.1566 30.1996 20.1441 30.1996Z" fill="#34A853"/>
<path fill-rule="evenodd" clip-rule="evenodd" d="M35.0971 20.9538C35.0971 20.0294 34.9547 19.0338 34.7411 18.1094H20.1426V24.1538H28.5456C28.1255 26.2146 26.9818 27.799 25.3453 28.8301L30.3501 32.6992C33.2264 30.0297 35.0971 26.0532 35.0971 20.9538Z" fill="#4285F4"/>
</g>
<defs>
<clipPath id="clip0_5245_13589">
<rect x="4" y="4.95312" width="32" height="32" rx="5" fill="white"/>
</clipPath>
</defs>
</svg>
