<svg width="250" height="43" viewBox="0 0 250 43" fill="none" xmlns="http://www.w3.org/2000/svg">
<g clip-path="url(#clip0_5245_13387)">
<path d="M19.8616 30.6481C19.8616 31.6176 19.0879 32.2548 18.4962 32.7691C17.7114 33.3999 16.8003 33.8547 15.8245 34.1027C14.4181 34.5641 12.9441 34.7857 11.4642 34.7581C10.0988 34.7171 6.05256 34.6079 3.17605 31.4993C0.627244 28.7411 0.554421 25.3184 0.518009 23.6844C0.464271 21.5948 0.910563 19.5225 1.81972 17.6401C2.66113 15.932 3.99626 14.516 5.65203 13.5757C7.48796 12.5752 9.55622 12.0789 11.6463 12.1375C12.994 12.1218 14.3346 12.3358 15.6106 12.7701C17.6269 13.4756 18.4325 14.1355 18.6691 14.3995C19.1243 14.8865 19.8525 15.6193 19.7205 16.5615C19.6582 16.9071 19.5101 17.2316 19.2899 17.5051C19.0696 17.7787 18.7842 17.9925 18.4598 18.1271C17.6633 18.464 16.885 18.1636 16.1112 17.8677C15.2465 17.5355 15.3102 17.3306 14.4591 16.9574C13.5459 16.5661 12.5571 16.3827 11.5643 16.4204C10.7779 16.4149 10.0002 16.586 9.28863 16.921C8.61801 17.2627 8.03306 17.7512 7.57729 18.3502C6.57294 19.6337 6.07076 21.389 6.07076 23.6162C6.06006 24.5917 6.19036 25.5636 6.45763 26.5018C6.68433 27.3143 7.06438 28.0759 7.57729 28.7456C8.04888 29.3488 8.65736 29.8309 9.35235 30.152C10.0673 30.4745 10.8438 30.6376 11.6281 30.6299C12.6287 30.5924 13.6076 30.3278 14.4909 29.8562C15.7881 29.2736 15.911 28.9141 16.9214 28.7001C17.2402 28.5918 17.5772 28.5477 17.9132 28.5703C18.2491 28.593 18.5772 28.682 18.8785 28.8321C19.182 29.0276 19.4313 29.2965 19.6031 29.614C19.775 29.9314 19.8639 30.2872 19.8616 30.6481Z" fill="#3B3F76"/>
<path d="M37.5631 31.1787C36.3783 32.1319 35.0729 32.9246 33.6808 33.5364C32.3352 34.0737 30.8967 34.3397 29.4479 34.3192C28.1446 34.3468 26.8542 34.0562 25.6884 33.4727C24.6616 32.959 23.7969 32.1714 23.1897 31.197C22.6045 30.2477 22.297 29.1534 22.3022 28.0383C22.2703 26.6039 22.7881 25.2117 23.7495 24.1468C24.8094 23.0206 26.2017 22.263 27.7229 21.9848C28.0779 21.9029 28.9518 21.7209 30.3537 21.4341C31.7555 21.1474 32.9525 20.8879 33.9538 20.6513C34.9552 20.4146 36.0339 20.1233 37.2036 19.7819C37.1338 18.3164 36.8304 17.2392 36.2933 16.5504C35.7699 15.8677 34.6866 15.5218 33.0436 15.5218C31.9495 15.4605 30.8567 15.6634 29.8576 16.1135C29.1131 16.5453 28.4875 17.1553 28.037 17.8885C27.7028 18.4296 27.3397 18.9523 26.9492 19.4542C26.7398 19.7091 26.2892 19.832 25.5838 19.832C24.9874 19.8422 24.409 19.6278 23.9634 19.2312C23.7424 19.0417 23.5664 18.8053 23.4483 18.5392C23.3302 18.273 23.2729 17.9839 23.2807 17.6928C23.3017 16.6523 23.6684 15.6483 24.323 14.8391C25.1777 13.8016 26.2976 13.0151 27.5636 12.5634C29.3097 11.9151 31.1634 11.6062 33.0254 11.6531C35.471 11.6531 37.3932 11.9429 38.792 12.5224C40.0994 13.011 41.1643 13.9909 41.7596 15.2533C42.3391 16.5064 42.6274 18.1647 42.6243 20.228C42.6243 21.5342 42.6243 22.6403 42.6243 23.5505C42.6243 24.4608 42.6243 25.4758 42.597 26.5863C42.6069 27.6969 42.7817 28.7997 43.1159 29.8588C43.368 30.5691 43.542 31.3047 43.6348 32.0526C43.624 32.3555 43.5462 32.6523 43.4069 32.9214C43.2676 33.1906 43.0702 33.4255 42.8291 33.6092C42.3323 34.0645 41.6825 34.3163 41.0086 34.3147C40.3603 34.279 39.7521 33.9896 39.3154 33.5091C38.6386 32.8066 38.0501 32.024 37.5631 31.1787ZM37.1945 23.1273C36.0304 23.5215 34.8413 23.8377 33.6352 24.074C32.0787 24.4047 31.003 24.649 30.4083 24.8067C29.7763 24.9803 29.1905 25.2911 28.6924 25.717C28.4171 25.9542 28.2003 26.2517 28.0589 26.5865C27.9176 26.9212 27.8556 27.2841 27.8777 27.6468C27.8731 28.053 27.9566 28.4554 28.1224 28.8262C28.2882 29.1971 28.5323 29.5276 28.838 29.7951C29.5233 30.4139 30.4232 30.7405 31.3459 30.7054C32.4046 30.7151 33.4497 30.4667 34.3908 29.9817C35.2428 29.5756 35.9555 28.9263 36.4389 28.1156C36.9426 27.2721 37.1945 25.8869 37.1945 23.9602V23.1273Z" fill="#3B3F76"/>
<path d="M66.8151 23.4157V30.8345C66.8151 31.9997 66.5511 32.8781 66.0231 33.4607C65.7577 33.7514 65.432 33.9806 65.0688 34.1323C64.7056 34.284 64.3137 34.3546 63.9203 34.3391C63.5353 34.3528 63.152 34.2812 62.7979 34.1293C62.4438 33.9774 62.1277 33.7491 61.8722 33.4607C61.3488 32.8781 61.0893 31.9997 61.0893 30.8345V21.9456C61.1037 20.8574 61.055 19.7693 60.9437 18.6868C60.8819 17.9881 60.6124 17.3239 60.17 16.7797C59.9132 16.5148 59.6007 16.3103 59.2551 16.1812C58.9095 16.0521 58.5394 16.0016 58.1719 16.0333C56.3513 16.0333 55.1497 16.6614 54.5762 17.9085C54.0028 19.1556 53.7069 20.9534 53.7069 23.2928V30.8345C53.7754 31.7734 53.4968 32.7046 52.9241 33.4516C52.6681 33.7476 52.3495 33.9828 51.9913 34.1403C51.6331 34.2977 51.2443 34.3734 50.8532 34.3619C50.4624 34.3709 50.0744 34.294 49.7166 34.1368C49.3588 33.9795 49.0398 33.7456 48.7823 33.4516C48.1959 32.7107 47.9085 31.777 47.9767 30.8345V14.9045C47.9175 14.047 48.1768 13.1978 48.7049 12.5196C48.9419 12.2514 49.2355 12.0392 49.5645 11.8983C49.8935 11.7574 50.2497 11.6913 50.6074 11.7049C50.9606 11.6952 51.3121 11.7581 51.6401 11.8896C51.9681 12.0211 52.2657 12.2185 52.5144 12.4695C52.7779 12.7516 52.9815 13.0842 53.1129 13.4472C53.2443 13.8101 53.3008 14.196 53.2791 14.5814V15.1093C54.1234 14.053 55.1791 13.1849 56.3786 12.5605C57.5195 11.999 58.7755 11.7107 60.0471 11.7185C61.3021 11.6831 62.5452 11.9715 63.6564 12.556C64.7025 13.1518 65.5628 14.0262 66.1414 15.082C66.9699 14.0406 68.0051 13.1821 69.1818 12.5605C70.2798 12.0016 71.4953 11.7129 72.7274 11.7185C74.0953 11.6867 75.4492 11.9998 76.6644 12.6288C77.7389 13.2023 78.6029 14.103 79.1312 15.2004C79.5864 16.2062 79.8413 17.7856 79.8413 19.9475V30.8345C79.8413 31.9997 79.5773 32.8781 79.0493 33.4607C78.7843 33.7519 78.4587 33.9814 78.0954 34.1332C77.7321 34.2849 77.3399 34.3553 76.9466 34.3391C76.5565 34.3481 76.1692 34.2712 75.8121 34.1139C75.455 33.9566 75.1369 33.7227 74.8802 33.4289C74.2993 32.6939 74.0122 31.7693 74.0746 30.8345V21.4586C74.0891 20.4973 74.0374 19.5362 73.9198 18.5821C73.8391 17.9049 73.5515 17.2691 73.096 16.7615C72.8272 16.5023 72.5065 16.303 72.155 16.1767C71.8036 16.0504 71.4293 16 71.057 16.0287C70.3114 16.0335 69.5842 16.26 68.9679 16.6796C68.3073 17.1172 67.7761 17.7239 67.4295 18.4364C67.0199 19.3771 66.8151 21.0368 66.8151 23.4157Z" fill="#3B3F76"/>
<path d="M90.381 14.808V15.4817C91.2696 14.3242 92.3788 13.3543 93.6444 12.6279C94.8263 12.0108 96.1434 11.6979 97.4767 11.7176C99.1462 11.7055 100.785 12.1646 102.206 13.0421C103.693 13.9767 104.879 15.3219 105.619 16.9154C106.497 18.8035 106.927 20.8689 106.875 22.9506C106.893 24.5527 106.648 26.147 106.152 27.6704C105.732 28.995 105.056 30.2243 104.163 31.2888C103.341 32.2437 102.323 33.0092 101.177 33.5327C100.014 34.0564 98.752 34.3235 97.4767 34.3155C96.0799 34.3632 94.6961 34.033 93.4714 33.3597C92.2772 32.6181 91.2296 31.6631 90.381 30.5424V38.9034C90.381 41.349 89.4904 42.5718 87.7093 42.5718C86.6625 42.5718 85.9706 42.2562 85.6338 41.6251C85.2458 40.7581 85.071 39.8108 85.1241 38.8624V14.849C85.0571 14.0006 85.3032 13.157 85.8159 12.4777C86.0535 12.2144 86.3466 12.0072 86.674 11.871C87.0015 11.7349 87.3551 11.6731 87.7093 11.6903C88.0738 11.6742 88.4374 11.7379 88.7747 11.8771C89.112 12.0162 89.4148 12.2275 89.6619 12.4959C90.1875 13.1468 90.4448 13.9738 90.381 14.808ZM101.304 22.9051C101.336 21.6119 101.106 20.3257 100.631 19.1228C100.249 18.155 99.6023 17.3142 98.7647 16.6969C97.997 16.1415 97.0724 15.845 96.1249 15.8503C95.3826 15.8428 94.6481 16.0025 93.976 16.3177C93.3039 16.6329 92.7114 17.0954 92.2425 17.6709C91.1866 18.877 90.6586 20.6612 90.6586 23.0097C90.6586 25.2278 91.182 26.9513 92.2289 28.1802C92.6979 28.759 93.2923 29.2237 93.9672 29.5391C94.6422 29.8545 95.38 30.0124 96.1249 30.0007C97.043 30.0025 97.9394 29.7212 98.6919 29.1951C99.5344 28.5879 100.19 27.757 100.585 26.7965C101.088 25.5623 101.328 24.2371 101.291 22.9051H101.304Z" fill="#3B3F76"/>
<path d="M125.797 31.179V30.4644C125.184 31.2537 124.478 31.9659 123.694 32.5854C122.976 33.1505 122.162 33.5821 121.291 33.8598C120.326 34.1514 119.322 34.2926 118.314 34.2785C117.058 34.3006 115.815 34.013 114.696 33.4411C113.668 32.9228 112.808 32.1244 112.215 31.138C111.524 29.9547 111.178 28.257 111.178 26.045V15.0123C111.178 13.8972 111.428 13.0688 111.933 12.5181C112.186 12.243 112.496 12.0263 112.841 11.8832C113.186 11.7401 113.558 11.6741 113.931 11.6898C114.311 11.6742 114.689 11.741 115.04 11.8856C115.392 12.0302 115.707 12.249 115.966 12.5272C116.533 13.2258 116.812 14.1149 116.744 15.0123V23.924C116.724 25.0162 116.833 26.1069 117.067 27.1737C117.236 27.9659 117.646 28.6863 118.242 29.2355C118.883 29.7547 119.693 30.0188 120.517 29.9774C121.465 29.9752 122.389 29.683 123.166 29.14C123.975 28.6095 124.609 27.8507 124.987 26.9598C125.29 26.1739 125.442 24.4474 125.442 21.7803V15.0123C125.373 14.1155 125.65 13.2264 126.216 12.5272C126.472 12.2507 126.784 12.0327 127.132 11.8882C127.48 11.7436 127.855 11.676 128.232 11.6898C128.605 11.6741 128.977 11.7401 129.323 11.8832C129.668 12.0263 129.977 12.243 130.23 12.5181C130.735 13.0688 130.986 13.8835 130.986 15.0123V31.138C131.051 31.9956 130.793 32.8466 130.262 33.523C130.028 33.7841 129.74 33.9907 129.417 34.1283C129.095 34.2659 128.746 34.3312 128.396 34.3195C128.041 34.3286 127.688 34.2595 127.362 34.1171C127.036 33.9748 126.746 33.7626 126.512 33.4957C125.992 32.8402 125.737 32.0135 125.797 31.179Z" fill="#3B3F76"/>
<path d="M154.48 27.0417C154.544 28.4505 154.145 29.8416 153.345 31.0027C152.544 32.1639 151.386 33.0314 150.047 33.4729C148.342 34.0756 146.542 34.3625 144.735 34.3194C142.978 34.3675 141.23 34.0578 139.596 33.4091C138.361 32.9424 137.272 32.1573 136.438 31.1334C135.807 30.3477 135.449 29.3779 135.418 28.3707C135.413 28.0779 135.469 27.7873 135.582 27.5171C135.695 27.2469 135.862 27.0029 136.074 26.8005C136.289 26.5839 136.546 26.414 136.829 26.3012C137.113 26.1884 137.416 26.1353 137.721 26.1451C138.214 26.1088 138.703 26.2618 139.087 26.5729C139.453 26.9231 139.761 27.3304 139.997 27.779C140.483 28.6789 141.188 29.4425 142.045 30.0001C143.043 30.5365 144.168 30.7899 145.299 30.7329C146.264 30.7719 147.218 30.5129 148.03 29.991C148.337 29.8198 148.596 29.5742 148.783 29.2767C148.97 28.9792 149.079 28.6395 149.1 28.2888C149.129 27.864 149.041 27.4393 148.845 27.0612C148.649 26.6831 148.353 26.3661 147.989 26.1451C146.841 25.5504 145.616 25.1184 144.348 24.8615C142.75 24.491 141.185 23.9902 139.669 23.3641C138.535 22.9103 137.524 22.1945 136.72 21.275C135.985 20.3877 135.599 19.2633 135.632 18.1118C135.637 16.9822 135.984 15.8807 136.629 14.9531C137.371 13.9012 138.393 13.0782 139.578 12.5772C141.061 11.941 142.663 11.6305 144.275 11.6669C145.584 11.6524 146.888 11.8054 148.158 12.1221C149.176 12.3625 150.148 12.7684 151.034 13.3237C151.727 13.7537 152.324 14.3224 152.787 14.994C153.16 15.5255 153.368 16.156 153.383 16.8055C153.393 17.0977 153.341 17.3888 153.23 17.6595C153.12 17.9302 152.953 18.1743 152.741 18.3757C152.239 18.8119 151.584 19.0327 150.92 18.9902C150.392 19.0041 149.876 18.8299 149.464 18.4986C148.958 18.06 148.5 17.5687 148.099 17.0331C147.693 16.5041 147.187 16.0602 146.61 15.7268C145.889 15.3649 145.086 15.1956 144.28 15.2353C143.399 15.2033 142.528 15.4278 141.772 15.8816C141.479 16.0359 141.233 16.2651 141.058 16.5458C140.883 16.8264 140.785 17.1485 140.775 17.4791C140.772 17.7603 140.836 18.0381 140.964 18.2887C141.092 18.5393 141.278 18.755 141.508 18.9174C142.107 19.3358 142.776 19.6441 143.483 19.8277C144.316 20.0734 145.454 20.3693 146.911 20.7379C148.377 21.0641 149.797 21.5701 151.139 22.2445C152.119 22.7318 152.971 23.4409 153.629 24.3154C154.195 25.1104 154.493 26.0655 154.48 27.0417Z" fill="#3B3F76"/>
<path d="M175.152 26.2861V30.9376C175.221 31.8549 174.936 32.7636 174.356 33.4773C174.099 33.7542 173.785 33.9729 173.437 34.1189C173.088 34.2649 172.713 34.3348 172.335 34.3239C171.963 34.334 171.594 34.2627 171.252 34.1148C170.911 33.967 170.606 33.7463 170.359 33.4682C169.796 32.7503 169.52 31.8481 169.586 30.9376V15.4628C169.586 12.9625 170.496 11.7124 172.317 11.7124C172.696 11.6779 173.078 11.7404 173.427 11.894C173.776 12.0477 174.08 12.2874 174.31 12.5908C174.775 13.3731 175.008 14.271 174.984 15.1806C175.516 14.2081 176.208 13.3325 177.032 12.5908C177.831 11.9723 178.826 11.6606 179.836 11.7124C181.026 11.7171 182.196 12.019 183.24 12.5908C184.342 13.1734 184.892 13.9471 184.892 14.912C184.896 15.5144 184.668 16.0951 184.254 16.5328C183.84 16.9705 183.273 17.2312 182.671 17.2606C182.166 17.1882 181.67 17.0615 181.192 16.8828C180.527 16.6501 179.83 16.5226 179.126 16.505C178.404 16.473 177.695 16.7007 177.127 17.1468C176.556 17.6578 176.138 18.3183 175.921 19.0538C175.611 20.0295 175.412 21.0373 175.33 22.0578C175.202 23.2047 175.152 24.6202 175.152 26.2861Z" fill="#3B3F76"/>
<path d="M207.159 23.0075C207.174 24.5705 206.912 26.1238 206.385 27.5954C205.899 28.9427 205.134 30.1725 204.141 31.2046C203.151 32.2166 201.956 33.005 200.636 33.5168C199.172 34.0725 197.615 34.3459 196.049 34.3224C194.493 34.346 192.948 34.0693 191.497 33.5077C190.177 32.9832 188.982 32.1847 187.993 31.1648C187.004 30.1449 186.242 28.9267 185.758 27.5908C185.233 26.1221 184.974 24.5716 184.993 23.0121C184.976 21.4355 185.238 19.8684 185.767 18.3833C186.247 17.0438 187.005 15.8214 187.993 14.7967C188.982 13.7934 190.178 13.017 191.497 12.521C194.446 11.4409 197.683 11.4409 200.632 12.521C201.961 13.0348 203.163 13.8294 204.157 14.8506C205.151 15.8717 205.912 17.0954 206.389 18.4379C206.913 19.9038 207.174 21.4509 207.159 23.0075ZM201.574 23.0075C201.574 20.7379 201.073 18.9719 200.072 17.7096C199.601 17.0964 198.99 16.6047 198.29 16.2754C197.59 15.9461 196.822 15.7886 196.049 15.8162C195.026 15.7979 194.022 16.0934 193.172 16.6628C192.298 17.286 191.631 18.1562 191.256 19.1615C190.785 20.3896 190.556 21.6971 190.582 23.0121C190.556 24.3144 190.781 25.6096 191.247 26.8262C191.621 27.8245 192.279 28.6916 193.14 29.3204C193.994 29.9086 195.012 30.2127 196.049 30.1897C196.823 30.2161 197.592 30.0567 198.292 29.7249C198.992 29.3932 199.602 28.8986 200.072 28.2826C201.073 27.0113 201.574 25.2529 201.574 23.0075Z" fill="#3B3F76"/>
<path d="M232.378 23.0076C232.394 24.571 232.13 26.1247 231.599 27.5954C231.117 28.9434 230.353 30.1736 229.36 31.2047C228.369 32.2178 227.173 33.0063 225.851 33.5168C224.386 34.0733 222.829 34.3467 221.263 34.3224C219.707 34.3471 218.162 34.0704 216.712 33.5077C215.39 32.9853 214.194 32.1875 213.205 31.1673C212.215 30.1471 211.454 28.9279 210.972 27.5909C209.947 24.6073 209.947 21.3668 210.972 18.3833C211.451 17.0442 212.208 15.8218 213.193 14.7968C214.186 13.7944 215.383 13.0181 216.702 12.5211C219.65 11.4409 222.885 11.4409 225.833 12.5211C227.163 13.0338 228.366 13.828 229.361 14.8492C230.355 15.8705 231.117 17.0947 231.595 18.4379C232.123 19.903 232.388 21.4501 232.378 23.0076ZM226.788 23.0076C226.788 20.7379 226.289 18.972 225.291 17.7097C224.819 17.0961 224.207 16.6042 223.506 16.2749C222.806 15.9456 222.037 15.7883 221.263 15.8163C220.241 15.7969 219.239 16.0924 218.391 16.6629C217.516 17.2848 216.849 18.1554 216.475 19.1616C216.002 20.389 215.773 21.697 215.801 23.0121C215.773 24.3146 215.998 25.6102 216.466 26.8262C216.838 27.8259 217.496 28.6936 218.359 29.3204C219.212 29.908 220.228 30.2122 221.263 30.1897C222.039 30.2167 222.81 30.0572 223.512 29.7246C224.214 29.392 224.825 28.8959 225.296 28.2781C226.294 27.0098 226.791 25.2529 226.788 23.0076Z" fill="#3B3F76"/>
<path d="M237.066 12.1773H237.676V8.84107C237.676 7.93078 237.676 7.23896 237.749 6.7292C237.78 6.26798 237.916 5.81985 238.145 5.41839C238.372 5.0377 238.695 4.72369 239.083 4.5081C239.497 4.26859 239.969 4.14444 240.448 4.14854C241.167 4.15157 241.855 4.43775 242.364 4.94504C242.74 5.28754 242.994 5.74279 243.088 6.2422C243.208 6.95933 243.26 7.68628 243.243 8.41323V12.1773H245.282C245.937 12.1277 246.588 12.3276 247.102 12.7371C247.305 12.9165 247.466 13.1383 247.574 13.3868C247.682 13.6354 247.734 13.9046 247.726 14.1754C247.75 14.4977 247.676 14.8197 247.513 15.0992C247.351 15.3786 247.107 15.6024 246.815 15.741C246.016 16.0832 245.149 16.2388 244.28 16.1962H243.238V26.4369C243.229 27.1072 243.259 27.7774 243.329 28.4441C243.371 28.8666 243.543 29.2657 243.821 29.5865C243.992 29.7492 244.195 29.8739 244.418 29.9523C244.641 30.0308 244.878 30.0612 245.113 30.0417C245.559 30.0262 246.003 29.9683 246.438 29.8687C246.867 29.7704 247.304 29.7125 247.744 29.6957C247.972 29.6947 248.198 29.7402 248.407 29.8294C248.617 29.9186 248.806 30.0497 248.964 30.2146C249.14 30.3889 249.28 30.5976 249.373 30.8277C249.466 31.0578 249.511 31.3045 249.505 31.5527C249.505 32.463 249.017 33.1488 248.04 33.61C247.063 34.0712 245.655 34.3094 243.816 34.3246C242.077 34.3246 240.762 34.0333 239.861 33.4461C238.985 32.8922 238.355 32.0242 238.099 31.0202C237.786 29.6643 237.645 28.2742 237.681 26.883V16.2007H236.948C236.292 16.2429 235.643 16.0402 235.127 15.6318C234.922 15.4515 234.76 15.2284 234.65 14.9784C234.541 14.7283 234.488 14.4573 234.495 14.1845C234.49 13.9101 234.547 13.6383 234.662 13.3892C234.777 13.1402 234.947 12.9204 235.159 12.7462C235.708 12.3382 236.383 12.1368 237.066 12.1773Z" fill="#3B3F76"/>
<path d="M133.357 12.5347V6.85446L133.589 6.57683C129.341 4.38607 125.102 2.19379 120.872 0L109.234 6.59958C110.023 7.8133 110.812 9.02702 111.601 10.2407L116.808 10.2726C116.877 9.09322 117.391 7.98402 118.246 7.16851C118.884 6.59624 119.671 6.21583 120.516 6.07108C121.361 5.92633 122.23 6.02312 123.022 6.35032C123.814 6.67752 124.498 7.22182 124.995 7.92055C125.491 8.61929 125.78 9.44406 125.829 10.2999L130.917 10.3318L133.088 7.19127V12.5347C132.818 13.2811 132.547 14.0306 132.274 14.7831C132.534 15.0358 132.881 15.1792 133.243 15.1836C133.626 15.18 133.992 15.0264 134.263 14.7558C133.962 14.0124 133.66 13.272 133.357 12.5347Z" fill="#FEB853"/>
</g>
<defs>
<clipPath id="clip0_5245_13387">
<rect width="249" height="42.5787" fill="white" transform="translate(0.5)"/>
</clipPath>
</defs>
</svg>
