<svg width="32" height="32" viewBox="0 0 32 32" fill="none" xmlns="http://www.w3.org/2000/svg">
<g clip-path="url(#clip0_5048_18204)">
<path d="M19.2927 22.0371C19.1054 21.8495 19.0002 21.5954 19.0002 21.3304C19.0002 21.0654 19.1054 20.8112 19.2927 20.6237L22.9193 16.997H6.66602C6.4008 16.997 6.14645 16.8917 5.95891 16.7042C5.77137 16.5166 5.66602 16.2623 5.66602 15.997C5.66602 15.7318 5.77137 15.4775 5.95891 15.2899C6.14645 15.1024 6.4008 14.997 6.66602 14.997H22.9167L19.2927 11.3717C19.1998 11.2788 19.1261 11.1686 19.0758 11.0472C19.0256 10.9258 18.9997 10.7957 18.9997 10.6644C18.9997 10.3991 19.1051 10.1446 19.2927 9.95705C19.4803 9.76945 19.7347 9.66406 20 9.66406C20.2653 9.66406 20.5198 9.76945 20.7073 9.95705L26.0407 15.2904C26.1336 15.3831 26.2073 15.4933 26.2575 15.6145C26.3078 15.7358 26.3337 15.8658 26.3337 15.997C26.3337 16.1283 26.3078 16.2583 26.2575 16.3796C26.2073 16.5008 26.1336 16.611 26.0407 16.7037L20.7073 22.0371C20.6145 22.13 20.5042 22.2037 20.3828 22.254C20.2615 22.3043 20.1314 22.3302 20 22.3302C19.8686 22.3302 19.7386 22.3043 19.6172 22.254C19.4958 22.2037 19.3855 22.13 19.2927 22.0371Z" fill="#1B5FE3"/>
</g>
<defs>
<clipPath id="clip0_5048_18204">
<rect width="32" height="32" fill="white"/>
</clipPath>
</defs>
</svg>
