<svg width="25" height="25" viewBox="0 0 25 25" fill="none" xmlns="http://www.w3.org/2000/svg">
<path d="M22.6333 24.7891L14.2333 16.3891C13.5667 16.9224 12.8 17.3446 11.9333 17.6557C11.0667 17.9668 10.1444 18.1224 9.16667 18.1224C6.74444 18.1224 4.69444 17.2835 3.01667 15.6057C1.33889 13.928 0.5 11.878 0.5 9.45573C0.5 7.03351 1.33889 4.98351 3.01667 3.30573C4.69444 1.62795 6.74444 0.789062 9.16667 0.789062C11.5889 0.789062 13.6389 1.62795 15.3167 3.30573C16.9944 4.98351 17.8333 7.03351 17.8333 9.45573C17.8333 10.4335 17.6778 11.3557 17.3667 12.2224C17.0556 13.0891 16.6333 13.8557 16.1 14.5224L24.5 22.9224L22.6333 24.7891ZM9.16667 15.4557C10.8333 15.4557 12.25 14.8724 13.4167 13.7057C14.5833 12.5391 15.1667 11.1224 15.1667 9.45573C15.1667 7.78906 14.5833 6.3724 13.4167 5.20573C12.25 4.03906 10.8333 3.45573 9.16667 3.45573C7.5 3.45573 6.08333 4.03906 4.91667 5.20573C3.75 6.3724 3.16667 7.78906 3.16667 9.45573C3.16667 11.1224 3.75 12.5391 4.91667 13.7057C6.08333 14.8724 7.5 15.4557 9.16667 15.4557Z" fill="black"/>
</svg>
